<?xml version="1.0" encoding="UTF-8" standalone="no"?>
<svg
   xmlns:dc="http://purl.org/dc/elements/1.1/"
   xmlns:cc="http://creativecommons.org/ns#"
   xmlns:rdf="http://www.w3.org/1999/02/22-rdf-syntax-ns#"
   xmlns:svg="http://www.w3.org/2000/svg"
   xmlns="http://www.w3.org/2000/svg"
   xmlns:sodipodi="http://sodipodi.sourceforge.net/DTD/sodipodi-0.dtd"
   xmlns:inkscape="http://www.inkscape.org/namespaces/inkscape"
   version="1.1"
   x="0px"
   y="0px"
   viewBox="128.347 0 100 125"
   enable-background="new 128.347 0 100 100"
   xml:space="preserve"
   id="svg2"
   inkscape:version="0.91 r13725"
   sodipodi:docname="aclaracion.svg"><metadata
     id="metadata34"><rdf:RDF><cc:Work
         rdf:about=""><dc:format>image/svg+xml</dc:format><dc:type
           rdf:resource="http://purl.org/dc/dcmitype/StillImage" /></cc:Work></rdf:RDF></metadata><defs
     id="defs32" /><sodipodi:namedview
     pagecolor="#ffffff"
     bordercolor="#666666"
     borderopacity="1"
     objecttolerance="10"
     gridtolerance="10"
     guidetolerance="10"
     inkscape:pageopacity="0"
     inkscape:pageshadow="2"
     inkscape:window-width="718"
     inkscape:window-height="480"
     id="namedview30"
     showgrid="false"
     inkscape:zoom="1.888"
     inkscape:cx="50"
     inkscape:cy="62.5"
     inkscape:window-x="0"
     inkscape:window-y="0"
     inkscape:window-maximized="0"
     inkscape:current-layer="svg2" /><g
     id="g4"><rect
       x="150.246"
       y="27.521"
       width="23.489"
       height="3.805"
       id="rect6" /><path
       d="M150.246,41.226h31.814c0.065-0.103,0.126-0.208,0.195-0.308c0.954-1.393,2.148-2.554,3.604-3.496h-35.613V41.226z"
       id="path8" /><path
       d="M150.246,50.766h29.306c0.057-1.287,0.169-2.562,0.386-3.805h-29.691V50.766z"
       id="path10" /><path
       d="M150.246,60.305h29.372c-0.09-1.259-0.118-2.533-0.126-3.805h-29.246V60.305z"
       id="path12" /><path
       d="M150.246,69.844h32.416c-0.424-0.564-0.815-1.162-1.151-1.814c-0.332-0.643-0.604-1.309-0.836-1.988h-30.429V69.844z"
       id="path14" /><path
       d="M150.246,79.383h39.026c-0.202-0.342-0.369-0.707-0.473-1.105c-0.238-0.923-0.152-1.863,0.188-2.699h-38.742V79.383z"
       id="path16" /><path
       d="M198.007,86.196h-55.055V13.804h37.534v15.62c0,1.051,0.852,1.902,1.903,1.902h15.617v3.006   c0.617-0.022,1.248-0.037,1.901-0.037s1.283,0.015,1.902,0.037v-4.893c0-0.005,0.002-0.009,0.002-0.015   c0-0.529-0.218-1.006-0.565-1.352l-17.514-17.515c-0.002-0.002-0.004-0.003-0.006-0.005c-0.086-0.085-0.181-0.162-0.28-0.229   c-0.028-0.02-0.061-0.031-0.089-0.049c-0.077-0.046-0.155-0.092-0.238-0.126c-0.04-0.017-0.083-0.024-0.123-0.039   c-0.077-0.026-0.152-0.055-0.232-0.071C182.643,10.013,182.516,10,182.39,10h-41.34c-1.051,0-1.902,0.852-1.902,1.902v76.196   c0,1.051,0.852,1.902,1.902,1.902h58.858c1.051,0,1.902-0.852,1.902-1.902v-9.25c-1.187,0.739-2.468,1.335-3.804,1.777V86.196z    M184.29,16.494l11.026,11.027H184.29V16.494z"
       id="path18" /><path
       d="M192.959,78.716c-0.689,0-1.294-0.466-1.467-1.137c-0.177-0.683,0.141-1.396,0.766-1.723   c1.387-0.724,2.431-1.812,2.864-2.981c0.036-0.1,0.067-0.223,0.09-0.348c-12.941-0.418-12.941-9.563-12.941-17.654   c0-9.151,0-17.796,17.638-17.796s17.638,8.645,17.638,17.796c0,8.111,0.001,17.282-13.039,17.658   c-2.491,3.674-6.913,6.073-11.511,6.185C192.983,78.716,192.972,78.716,192.959,78.716z M199.908,40.109   c-14.605,0-14.605,5.874-14.605,14.764c0,8.498,0,14.638,10.85,14.638c0.678,0,1.288,0.318,1.675,0.873   c0.935,1.341,0.172,3.452,0.14,3.542c-0.067,0.182-0.143,0.361-0.225,0.537c1.928-0.959,3.58-2.424,4.61-4.197   c0.271-0.468,0.771-0.755,1.311-0.755c10.852,0,10.852-6.14,10.852-14.638C214.515,45.983,214.515,40.109,199.908,40.109z"
       id="path20" /><path
       d="M201.445,65.937c-0.434,0.386-0.942,0.579-1.522,0.579c-0.59,0-1.104-0.191-1.545-0.572   c-0.438-0.383-0.661-0.916-0.661-1.604c0-0.598,0.213-1.109,0.634-1.529c0.42-0.42,0.934-0.631,1.543-0.631   s1.131,0.211,1.561,0.631c0.429,0.42,0.644,0.932,0.644,1.529C202.098,65.018,201.882,65.549,201.445,65.937z"
       id="path22" /><path
       d="M201.996,49.853l-0.623,7.15c-0.068,0.851-0.211,1.503-0.435,1.957c-0.222,0.455-0.589,0.682-1.104,0.682   c-0.521,0-0.884-0.22-1.086-0.659c-0.205-0.439-0.349-1.109-0.436-2.01l-0.465-6.946c-0.086-1.353-0.132-2.325-0.132-2.915   c0-0.802,0.213-1.429,0.634-1.878c0.42-0.45,0.972-0.674,1.658-0.674c0.833,0,1.388,0.288,1.669,0.863   c0.281,0.575,0.42,1.403,0.42,2.486C202.098,48.548,202.063,49.196,201.996,49.853z"
       id="path24" /></g></svg>