<?xml version="1.0" encoding="UTF-8" standalone="no"?>
<svg
   xmlns:dc="http://purl.org/dc/elements/1.1/"
   xmlns:cc="http://creativecommons.org/ns#"
   xmlns:rdf="http://www.w3.org/1999/02/22-rdf-syntax-ns#"
   xmlns:svg="http://www.w3.org/2000/svg"
   xmlns="http://www.w3.org/2000/svg"
   xmlns:sodipodi="http://sodipodi.sourceforge.net/DTD/sodipodi-0.dtd"
   xmlns:inkscape="http://www.inkscape.org/namespaces/inkscape"
   version="1.1"
   x="0px"
   y="0px"
   viewBox="0 0 100 125"
   enable-background="new 0 0 100 100"
   xml:space="preserve"
   id="svg2"
   inkscape:version="0.91 r13725"
   sodipodi:docname="analitica.svg"><metadata
     id="metadata16"><rdf:RDF><cc:Work
         rdf:about=""><dc:format>image/svg+xml</dc:format><dc:type
           rdf:resource="http://purl.org/dc/dcmitype/StillImage" /></cc:Work></rdf:RDF></metadata><defs
     id="defs14" /><sodipodi:namedview
     pagecolor="#ffffff"
     bordercolor="#666666"
     borderopacity="1"
     objecttolerance="10"
     gridtolerance="10"
     guidetolerance="10"
     inkscape:pageopacity="0"
     inkscape:pageshadow="2"
     inkscape:window-width="640"
     inkscape:window-height="480"
     id="namedview12"
     showgrid="false"
     inkscape:zoom="1.888"
     inkscape:cx="50"
     inkscape:cy="62.5"
     inkscape:window-x="0"
     inkscape:window-y="0"
     inkscape:window-maximized="0"
     inkscape:current-layer="svg2" /><path
     fill="#000000"
     d="M81.539,25.825L81.539,25.825L81.539,25.825c-0.033-0.035-0.076-0.047-0.111-0.078  c-0.424-0.371-1-0.482-1.506-0.291c-0.089,0.034-0.163,0.104-0.246,0.155c-0.086,0.054-0.181,0.089-0.258,0.162L51.657,52.216V13.89  c0-0.829-0.671-1.5-1.5-1.5c-23.891,0-43.328,19.436-43.328,43.326c0,23.892,19.437,43.328,43.328,43.328  c12.843,0,24.394-5.62,32.336-14.522c0.093-0.066,0.18-0.142,0.258-0.23c0.079-0.092,0.143-0.19,0.196-0.293  c6.564-7.596,10.548-17.48,10.548-28.282C93.495,44.525,89.25,33.91,81.539,25.825L81.539,25.825z M50.157,96.044  c-22.237,0-40.328-18.091-40.328-40.328c0-21.733,17.285-39.495,38.828-40.288v40.288c0,0.017,0.004,0.032,0.005,0.048  c0.001,0.053,0.009,0.105,0.016,0.158c0.007,0.046,0.012,0.092,0.022,0.137c0.011,0.047,0.027,0.094,0.043,0.141  c0.001,0.004,0.003,0.009,0.004,0.014c0.006,0.016,0.009,0.032,0.015,0.049c0.01,0.024,0.02,0.049,0.031,0.072  c0.02,0.043,0.044,0.084,0.067,0.125c0.025,0.043,0.049,0.087,0.078,0.127c0.026,0.037,0.057,0.07,0.086,0.105  c0.011,0.013,0.021,0.027,0.034,0.04c0.005,0.006,0.006,0.014,0.012,0.019c0.004,0.004,0.009,0.008,0.013,0.012  c0.017,0.017,0.035,0.031,0.053,0.048c0.012,0.011,0.02,0.024,0.032,0.034l30.285,26.551C72.095,91.175,61.688,96.044,50.157,96.044  z M81.438,81.145L52.381,55.67l27.996-26.666c6.531,7.374,10.118,16.798,10.118,26.712C90.495,65.35,87.095,74.201,81.438,81.145z"
     id="path4" /><path
     fill="#000000"
     d="M53.691,44.775c0.068,0.176,0.17,0.334,0.296,0.471c0.005,0.006,0.007,0.014,0.012,0.019  c0.004,0.004,0.009,0.007,0.013,0.011c0.055,0.056,0.115,0.104,0.178,0.151c0.018,0.014,0.034,0.031,0.053,0.044  c0.082,0.055,0.168,0.103,0.261,0.142c0.024,0.01,0.052,0.015,0.077,0.024c0.068,0.024,0.135,0.049,0.207,0.063  c0.098,0.02,0.197,0.03,0.298,0.03c0.184,0,0.356-0.038,0.519-0.098c0.014-0.005,0.027-0.007,0.04-0.012  c0.171-0.069,0.323-0.169,0.456-0.292c0.006-0.005,0.014-0.007,0.02-0.013l30.283-28.855l0,0l0,0l0.002-0.001  c0.061-0.059,0.09-0.134,0.139-0.2c0.072-0.095,0.156-0.183,0.202-0.288c0.011-0.026,0.009-0.056,0.019-0.083  c0.057-0.155,0.102-0.315,0.105-0.479c0-0.005-0.004-0.011-0.004-0.017c0.003-0.186-0.025-0.373-0.093-0.55  c-0.017-0.045-0.057-0.081-0.078-0.125c-0.065-0.132-0.131-0.266-0.238-0.378c-0.001,0-0.001,0-0.001-0.001l0,0l0,0  C78.324,5.793,66.891,0.891,55.085,0.891c-0.829,0-1.5,0.671-1.5,1.5v41.84c0,0.176,0.036,0.341,0.091,0.498  C53.682,44.744,53.685,44.76,53.691,44.775z M56.585,40.729V3.93c9.952,0.376,19.51,4.473,26.636,11.419L56.585,40.729z"
     id="path6" /></svg>