<?xml version="1.0" encoding="UTF-8" standalone="no"?>
<svg
   xmlns:dc="http://purl.org/dc/elements/1.1/"
   xmlns:cc="http://creativecommons.org/ns#"
   xmlns:rdf="http://www.w3.org/1999/02/22-rdf-syntax-ns#"
   xmlns:svg="http://www.w3.org/2000/svg"
   xmlns="http://www.w3.org/2000/svg"
   xmlns:sodipodi="http://sodipodi.sourceforge.net/DTD/sodipodi-0.dtd"
   xmlns:inkscape="http://www.inkscape.org/namespaces/inkscape"
   version="1.1"
   x="0px"
   y="0px"
   viewBox="0 0 100 125"
   enable-background="new 0 0 100 100"
   xml:space="preserve"
   id="svg2"
   inkscape:version="0.91 r13725"
   sodipodi:docname="clientes.svg"><metadata
     id="metadata32"><rdf:RDF><cc:Work
         rdf:about=""><dc:format>image/svg+xml</dc:format><dc:type
           rdf:resource="http://purl.org/dc/dcmitype/StillImage" /></cc:Work></rdf:RDF></metadata><defs
     id="defs30" /><sodipodi:namedview
     pagecolor="#ffffff"
     bordercolor="#666666"
     borderopacity="1"
     objecttolerance="10"
     gridtolerance="10"
     guidetolerance="10"
     inkscape:pageopacity="0"
     inkscape:pageshadow="2"
     inkscape:window-width="718"
     inkscape:window-height="480"
     id="namedview28"
     showgrid="false"
     inkscape:zoom="1.888"
     inkscape:cx="50"
     inkscape:cy="62.5"
     inkscape:window-x="0"
     inkscape:window-y="0"
     inkscape:window-maximized="0"
     inkscape:current-layer="svg2" /><g
     id="g4"><g
       id="g6"><path
         fill="#000000"
         d="M23.5,40.5c-6,0-10.9-4.9-10.9-11c0-6.1,4.9-11,10.9-11c6,0,10.9,4.9,10.9,11    C34.4,35.6,29.5,40.5,23.5,40.5z M23.5,20.7c-4.8,0-8.7,3.9-8.7,8.8c0,4.8,3.9,8.8,8.7,8.8c4.8,0,8.7-3.9,8.7-8.8    C32.2,24.7,28.3,20.7,23.5,20.7z"
         id="path8" /><path
         fill="#000000"
         d="M41.6,58H5.4l0.3-1.4c1.9-8.3,9.3-14.2,17.8-14.2s15.8,5.8,17.8,14.2L41.6,58z M8.2,55.8    h30.5c-2.2-6.6-8.2-11.1-15.3-11.1S10.3,49.2,8.2,55.8z"
         id="path10" /></g><g
       id="g12"><path
         fill="#000000"
         d="M77.3,64.5c-6,0-10.9-4.9-10.9-11s4.9-11,10.9-11c6,0,10.9,4.9,10.9,11    S83.3,64.5,77.3,64.5z M77.3,44.7c-4.8,0-8.7,3.9-8.7,8.8s3.9,8.8,8.7,8.8c4.8,0,8.7-3.9,8.7-8.8S82.1,44.7,77.3,44.7z"
         id="path14" /><path
         fill="#000000"
         d="M95.4,82H59.2l0.3-1.4c1.9-8.3,9.3-14.2,17.8-14.2c8.5,0,15.8,5.8,17.8,14.2L95.4,82z     M62,79.7h30.5c-2.2-6.6-8.2-11.1-15.3-11.1C70.2,68.7,64.2,73.2,62,79.7z"
         id="path16" /></g><g
       id="g18"><path
         fill="#000000"
         d="M81,36.2c-5.3-11.4-16.7-19.3-30-19.3c-3.8,0-7.6,0.7-11.1,1.9l0.7,2.1    c3.3-1.2,6.8-1.8,10.4-1.8c12,0,22.4,6.9,27.6,17c0.4,0.7,0.7,1.5,1,2.2h2.4C81.6,37.6,81.3,36.9,81,36.2z"
         id="path20" /><path
         fill="#000000"
         d="M49.8,81.3c-10.4-0.4-20.1-6.1-25.5-15.2l-1.9,1.1c5.8,9.7,16.2,15.9,27.4,16.3    c0.4,0,0.7,0,1.1,0c0.4,0,0.7,0,1.1,0v-2.2c-0.4,0-0.7,0-1.1,0C50.6,81.3,50.2,81.3,49.8,81.3z"
         id="path22" /></g></g></svg>