<?xml version="1.0" encoding="UTF-8" standalone="no"?>
<svg
   xmlns:dc="http://purl.org/dc/elements/1.1/"
   xmlns:cc="http://creativecommons.org/ns#"
   xmlns:rdf="http://www.w3.org/1999/02/22-rdf-syntax-ns#"
   xmlns:svg="http://www.w3.org/2000/svg"
   xmlns="http://www.w3.org/2000/svg"
   xmlns:sodipodi="http://sodipodi.sourceforge.net/DTD/sodipodi-0.dtd"
   xmlns:inkscape="http://www.inkscape.org/namespaces/inkscape"
   version="1.1"
   x="0px"
   y="0px"
   viewBox="0 0 100 125"
   enable-background="new 0 0 100 100"
   xml:space="preserve"
   id="svg2"
   inkscape:version="0.91 r13725"
   sodipodi:docname="compras.svg"><metadata
     id="metadata24"><rdf:RDF><cc:Work
         rdf:about=""><dc:format>image/svg+xml</dc:format><dc:type
           rdf:resource="http://purl.org/dc/dcmitype/StillImage" /></cc:Work></rdf:RDF></metadata><defs
     id="defs22" /><sodipodi:namedview
     pagecolor="#ffffff"
     bordercolor="#666666"
     borderopacity="1"
     objecttolerance="10"
     gridtolerance="10"
     guidetolerance="10"
     inkscape:pageopacity="0"
     inkscape:pageshadow="2"
     inkscape:window-width="640"
     inkscape:window-height="480"
     id="namedview20"
     showgrid="false"
     inkscape:zoom="1.888"
     inkscape:cx="50"
     inkscape:cy="62.5"
     inkscape:window-x="0"
     inkscape:window-y="0"
     inkscape:window-maximized="0"
     inkscape:current-layer="svg2" /><path
     fill="#000000"
     d="M66.931,64.67c0.001-0.007,0.009-0.014,0.009-0.02c0-0.01-0.009-0.016-0.01-0.025s0.009-0.019,0.007-0.029  l-0.01-0.059c0-0.004,0.004-0.006,0.004-0.01c0-0.008-0.008-0.013-0.009-0.02l-0.005-0.029l-0.01-0.059  c0-0.004,0.004-0.006,0.004-0.01c0-0.008-0.008-0.013-0.009-0.02l-0.005-0.029c-0.002-0.01-0.011-0.014-0.014-0.023  c-0.002-0.008,0.005-0.015,0.002-0.022l-0.039-0.117c-0.001-0.003-0.004-0.003-0.005-0.006c-0.001-0.001,0-0.003-0.001-0.005  s0.001-0.004,0-0.006l-0.002-0.005c0-0.001-0.001-0.002-0.001-0.003l-0.036-0.09c-0.006-0.015-0.023-0.019-0.031-0.031  c-0.008-0.015-0.002-0.031-0.013-0.045L66.68,63.91c-0.002-0.003-0.007-0.002-0.009-0.005c-0.004-0.005-0.007-0.012-0.011-0.016  c0-0.001-0.001,0-0.002-0.001c-0.001,0,0-0.002-0.001-0.003l-0.067-0.067c-0.013-0.015-0.024-0.025-0.04-0.037l-0.062-0.05  c-0.001-0.001-0.001-0.001-0.002-0.003l-0.034-0.045c-0.003-0.004-0.009-0.004-0.012-0.008c-0.005-0.007-0.004-0.02-0.01-0.025  c-0.02-0.02-0.052-0.016-0.076-0.028c-0.023-0.014-0.034-0.04-0.061-0.048l-0.124-0.035l-0.081-0.032  c-0.011-0.005-0.022,0.003-0.033,0.001c-0.012-0.004-0.018-0.017-0.029-0.019l-0.116-0.02c0,0,0,0-0.001,0l0,0l-0.024-0.004  c-0.009-0.001-0.015-0.01-0.024-0.01c-0.004,0-0.006,0.004-0.009,0.004l-0.059-0.01c-0.015-0.003-0.022,0.009-0.036,0.008  c-0.013-0.001-0.021,0.001-0.034,0.001c-0.014,0.002-0.024-0.01-0.038-0.007l-0.017,0.003c-0.009,0-0.014-0.009-0.022-0.009  c-0.023,0-0.039,0.021-0.061,0.025l-0.118,0.017c-0.01,0.002-0.015,0.012-0.024,0.014c-0.01,0.003-0.019-0.005-0.028-0.002  l-0.019,0.007c-0.001,0-0.002-0.002-0.004-0.002c-0.015,0-0.023,0.014-0.038,0.016l-0.057,0.019  c-0.003,0.002-0.004,0.006-0.008,0.007c-0.003,0.001-0.006-0.001-0.009,0l-0.098,0.039c-0.016,0.006-0.019,0.023-0.032,0.031  s-0.031,0.003-0.044,0.013l-0.098,0.078c-0.005,0.004-0.004,0.012-0.009,0.016s-0.012,0.002-0.016,0.007l-0.031,0.03  c-0.021,0.014-0.048,0.01-0.066,0.028s-0.015,0.046-0.027,0.067l-0.031,0.03c-0.01,0.01-0.007,0.024-0.015,0.035  s-0.023,0.011-0.03,0.022l-0.059,0.098l-0.021,0.035c-0.018,0.016-0.021,0.037-0.034,0.056l-0.004,0.007  c-0.001,0.002,0,0.004-0.001,0.005c-0.009,0.015-0.013,0.03-0.019,0.046c-0.002,0.004-0.007,0.005-0.008,0.009l-0.017,0.05  c-0.003,0.017-0.019,0.027-0.019,0.045c0,0.002,0.002,0.003,0.002,0.005l-0.006,0.018c-0.001,0.003,0.002,0.007,0.001,0.01  c-0.004,0.013-0.011,0.022-0.013,0.036l-0.02,0.117c-0.001,0.008,0.006,0.014,0.005,0.021c-0.001,0.012-0.013,0.019-0.013,0.029  c0,0.006,0.004,0.012,0.004,0.018v0.084c0,0.003-0.004,0.006-0.004,0.009c0,0.004,0.004,0.006,0.004,0.01v0.101  c0,0.004-0.004,0.006-0.004,0.01c0,0.012,0.012,0.02,0.013,0.031c0.001,0.007-0.006,0.013-0.005,0.02l0.02,0.117  c0.001,0.006,0.006,0.008,0.007,0.012c0.004,0.017,0.004,0.033,0.011,0.049v0.002l0.001,0.003c0.001,0.001,0.001,0.003,0.002,0.005  l0.036,0.09c0.002,0.006,0.008,0.008,0.011,0.013c0.004,0.009,0.005,0.018,0.01,0.025c0.001,0.001,0,0.003,0.001,0.005l0.004,0.007  c0.014,0.019,0.017,0.04,0.034,0.056l0.021,0.035l0.041,0.068c0.003,0.003,0.003,0.007,0.006,0.01l0.012,0.02  c0.005,0.008,0.013,0.01,0.018,0.018c0.004,0.004,0.001,0.011,0.005,0.016l0.008,0.01c0.013,0.016,0.02,0.029,0.034,0.043  l0.021,0.025c0.017,0.023,0.03,0.041,0.052,0.059l0.064,0.063c0.005,0.005,0.014,0.003,0.019,0.008  c0.008,0.007,0.018,0.013,0.025,0.02c0.007,0.005,0.007,0.014,0.014,0.019l0.035,0.021c0.015,0.016,0.035,0.019,0.053,0.032  l0.01,0.006l0.098,0.059c0.005,0.002,0.012,0.002,0.017,0.004c0.014,0.008,0.025,0.015,0.04,0.021  c0.002,0.001,0.002,0.002,0.003,0.003l0.117,0.039c0.015,0.004,0.029,0.004,0.045,0.007c0.003,0.001,0.005,0.005,0.008,0.005  l0.118,0.017c0.021,0.005,0.037,0.025,0.061,0.025c0.009,0,0.014-0.009,0.022-0.009l0.017,0.003c0.02,0.005,0.039,0.007,0.059,0.007  c0.001,0,0.001-0.001,0.002-0.001c0.015,0,0.031-0.001,0.048-0.004l0.058-0.01c0.004,0,0.006,0.004,0.01,0.004  c0.008,0,0.013-0.009,0.021-0.009l0.027-0.005c0.001,0,0.001,0,0.002,0l0.116-0.02c0.005-0.001,0.007-0.007,0.013-0.008  c0.017-0.003,0.033-0.003,0.05-0.01l0.098-0.039c0.001,0,0.001-0.001,0.001-0.001c0.002-0.001,0.004,0,0.006-0.002l0.137-0.059  c0.015-0.006,0.018-0.022,0.03-0.031c0.022-0.014,0.05-0.016,0.067-0.036l0.04-0.04l0.006-0.004c0.01-0.01,0.021-0.014,0.029-0.023  l0.053-0.043c0.006-0.004,0.004-0.012,0.01-0.018c0.005-0.004,0.011-0.002,0.016-0.006c0.003-0.003,0.001-0.008,0.004-0.01  c0.005-0.006,0.013-0.008,0.018-0.014l0.054-0.067c0.002-0.001,0.002-0.003,0.004-0.004l0.021-0.026l0.054-0.067  c0.002-0.001,0.002-0.003,0.004-0.004l0.021-0.026c0.008-0.01,0.003-0.023,0.01-0.034c0.01-0.016,0.027-0.024,0.034-0.042  l0.039-0.098l0.039-0.098c0.004-0.01-0.003-0.02,0-0.03c0-0.001,0-0.001,0-0.001c0.003-0.012,0.016-0.018,0.018-0.031l0.004-0.024  c0.001-0.009,0.01-0.015,0.01-0.024c0-0.004-0.004-0.006-0.004-0.009l0.01-0.06l0.004-0.024c0.001-0.009,0.01-0.015,0.01-0.024  c0-0.004-0.004-0.006-0.004-0.009l0.01-0.06C66.938,64.686,66.931,64.679,66.931,64.67z M65.896,65.213l-0.086,0.015l0,0  c-0.001,0-0.001,0-0.001,0l-0.063,0.011l-0.043-0.009c-0.003-0.001-0.006,0.003-0.009,0.002s-0.005-0.005-0.008-0.005l-0.108-0.016  l-0.062-0.021l-0.069-0.042l-0.067-0.04l-0.036-0.036l-0.061-0.075l-0.046-0.077l-0.046-0.076l-0.018-0.045l-0.011-0.062v-0.092  v-0.092l0.013-0.072l0.02-0.062l0.042-0.069l0.04-0.066l0.052-0.052l0.063-0.063l0.055-0.043l0.043-0.018l0.088-0.029l0.108-0.016  c0.001,0,0.001-0.002,0.002-0.002c0.005,0,0.01,0,0.015-0.001l0.043-0.009l0.063,0.011c0.001,0,0.001,0,0.002,0l0.085,0.015  l0.066,0.026c0.007,0.003,0.015,0.002,0.021,0.005c0.004,0,0.005,0.004,0.008,0.006l0.04,0.012c0.006,0.006,0.014,0.009,0.02,0.016  c0.007,0.008,0.014,0.012,0.021,0.02c0.005,0.004,0.004,0.012,0.009,0.016l0.088,0.07l0.049,0.049l0.005,0.006  c0.002,0.003,0.004,0.006,0.006,0.01c0.001,0,0.001,0,0.002,0l0.03,0.039l0.021,0.05l0.026,0.081l0.017,0.096l0.012,0.068  l-0.012,0.068l-0.015,0.086l-0.026,0.066l-0.022,0.055l-0.051,0.064l-0.058,0.072l-0.071,0.057  c-0.005,0.004-0.004,0.012-0.009,0.016c-0.004,0.004-0.012,0.003-0.017,0.008l-0.016,0.016l-0.085,0.037c0,0,0,0-0.001,0  L65.896,65.213z"
     id="path4" /><path
     fill="#000000"
     d="M83.484,64.481c-0.003-0.017,0.009-0.032,0.003-0.049l-0.038-0.115c-0.004-0.011-0.006-0.021-0.011-0.031  l-0.029-0.088c-0.004-0.012-0.018-0.015-0.022-0.026c-0.005-0.01,0.002-0.022-0.005-0.033l-0.046-0.076l-0.03-0.076  c-0.008-0.021-0.031-0.026-0.043-0.044c-0.011-0.016-0.008-0.04-0.022-0.053c-0.004-0.004-0.01-0.003-0.014-0.006  c-0.007-0.005-0.005-0.015-0.012-0.021l-0.054-0.043c-0.005-0.006-0.003-0.016-0.01-0.022c-0.009-0.009-0.022-0.005-0.031-0.013  l-0.057-0.056c-0.004-0.005-0.011-0.003-0.016-0.007s-0.004-0.012-0.009-0.016l-0.098-0.078c-0.013-0.01-0.03-0.005-0.044-0.013  s-0.017-0.025-0.032-0.031l-0.098-0.039c-0.003-0.001-0.006,0.001-0.009,0c-0.004-0.001-0.005-0.005-0.008-0.007L82.634,63.5  c-0.009-0.002-0.017,0.004-0.025,0.002c-0.008-0.002-0.012-0.012-0.021-0.013l-0.116-0.02c0,0,0,0-0.001,0l0,0l-0.024-0.004  c-0.009-0.001-0.015-0.01-0.024-0.01c-0.004,0-0.006,0.004-0.009,0.004l-0.059-0.01c-0.012-0.002-0.018,0.007-0.029,0.007  c-0.017-0.002-0.029-0.002-0.046-0.001c-0.009,0.001-0.015-0.007-0.024-0.006l-0.041,0.007c-0.01-0.001-0.017-0.011-0.026-0.011  c-0.024,0-0.039,0.021-0.062,0.025l-0.104,0.018c-0.012,0.002-0.018,0.015-0.029,0.019c-0.005,0.001-0.009-0.002-0.014-0.001  c-0.003,0-0.004-0.002-0.006-0.002s-0.003,0.002-0.005,0.002c-0.003,0.001-0.006-0.001-0.009,0l-0.086,0.034l-0.112,0.037  c-0.017,0.006-0.022,0.024-0.037,0.033c-0.016,0.008-0.033,0.001-0.048,0.012l-0.035,0.026c0,0.001-0.001,0.001-0.001,0.001l0,0  l-0.042,0.031c-0.007,0.005-0.006,0.014-0.012,0.02c-0.009,0.008-0.018,0.012-0.025,0.021l-0.009,0.005  c-0.002,0.002-0.005,0.002-0.007,0.004l-0.02,0.012c-0.012,0.008-0.013,0.023-0.022,0.031c-0.021,0.016-0.034,0.029-0.05,0.049  l-0.054,0.055c-0.003,0.002-0.008,0-0.01,0.003c-0.006,0.007-0.004,0.017-0.01,0.022c-0.003,0.005-0.01,0.004-0.013,0.008  l-0.055,0.068c-0.001,0.001-0.002,0.001-0.003,0.002s-0.001,0.003-0.002,0.004l-0.019,0.023c-0.011,0.014-0.005,0.03-0.013,0.045  c-0.008,0.013-0.025,0.017-0.031,0.031l-0.039,0.098c-0.001,0.004,0.001,0.006,0,0.01c-0.001,0.003-0.005,0.004-0.006,0.007  l-0.039,0.117c-0.006,0.017,0.006,0.032,0.003,0.049s-0.019,0.028-0.019,0.046v0.069l-0.023,0.07  c-0.011,0.032,0.006,0.062,0.007,0.095c-0.001,0.032-0.018,0.062-0.007,0.095l0.023,0.07v0.069c0,0.021,0.019,0.033,0.022,0.054  c0.003,0.02-0.009,0.038-0.001,0.058l0.039,0.098l0.039,0.098c0.005,0.013,0.018,0.018,0.024,0.029  c0.015,0.033,0.013,0.068,0.04,0.096c0.003,0.002,0.007,0.001,0.01,0.004l0.045,0.043c0.008,0.013,0.006,0.032,0.016,0.043  c0.003,0.002,0.008,0.001,0.011,0.004l0.065,0.065c0.002,0.003,0.001,0.008,0.004,0.011c0.007,0.006,0.018,0.004,0.024,0.01  c0.004,0.004,0.003,0.01,0.008,0.014l0.046,0.036c0.004,0.006,0.003,0.015,0.008,0.021l0.019,0.018  c0.005,0.006,0.014,0.004,0.019,0.008c0.008,0.008,0.02,0.006,0.028,0.013c0.013,0.009,0.016,0.027,0.03,0.034  c0.007,0.008,0.019,0.008,0.026,0.016l0.054,0.026l0.117,0.059c0.001,0.001,0.003,0.001,0.004,0.001  c0.009,0.005,0.017,0.008,0.026,0.012l0.09,0.036c0.017,0.007,0.033,0.007,0.05,0.01c0.006,0.001,0.008,0.007,0.013,0.008  l0.104,0.018c0.022,0.005,0.037,0.025,0.062,0.025c0.01,0,0.017-0.01,0.026-0.011l0.041,0.007c0.018,0.003,0.034,0.004,0.05,0.004  s0.032-0.001,0.05-0.004l0.058-0.01c0.004,0,0.006,0.004,0.01,0.004c0.008,0,0.013-0.009,0.021-0.009l0.027-0.005  c0.001,0,0.001,0,0.002,0l0.116-0.02c0.003-0.001,0.005-0.005,0.008-0.005c0.013-0.002,0.025-0.002,0.038-0.006l0.117-0.039  c0.003-0.002,0.004-0.005,0.006-0.006c0.013-0.004,0.024-0.012,0.036-0.018c0.006-0.002,0.013-0.001,0.018-0.004l0.098-0.059  l0.098-0.059c0.012-0.008,0.013-0.023,0.023-0.031c0.01-0.008,0.024-0.005,0.034-0.015l0.067-0.067  c0.014-0.012,0.023-0.021,0.035-0.035l0.064-0.064c0.015-0.014,0.017-0.034,0.028-0.051c0.015-0.021,0.037-0.034,0.047-0.059  l0.03-0.076l0.01-0.016c0.007-0.008,0.009-0.018,0.015-0.025l0.021-0.035c0.004-0.006,0-0.014,0.003-0.02  c0.005-0.01,0.015-0.014,0.019-0.023l0.034-0.086c0.005-0.009,0.006-0.018,0.01-0.027c0,0,0.001,0,0.001-0.001l0.039-0.117  c0.006-0.017-0.006-0.032-0.003-0.049s0.019-0.028,0.019-0.046v-0.117v-0.117C83.503,64.51,83.487,64.498,83.484,64.481z   M81.727,64.573c0.003-0.017,0.019-0.028,0.019-0.046v-0.069l0.02-0.059l0.021-0.05l0.043-0.055l0.063-0.063  c0.003-0.003,0.002-0.009,0.005-0.012l0.035-0.021c0.013-0.008,0.014-0.024,0.024-0.033c0.013-0.012,0.024-0.018,0.035-0.029  l0.005-0.004l0.071-0.023c0.002-0.001,0.003-0.004,0.005-0.004c0.004-0.002,0.008-0.002,0.012-0.003l0.066-0.026l0.085-0.015  c0.001,0,0.001,0,0.002,0l0.067-0.011l0.067,0.011c0.001,0,0.001,0,0.002,0l0.093,0.016l0.09,0.03l0.043,0.018l0.038,0.029  c0.001,0.002,0.001,0.004,0.002,0.006c0.002,0.002,0.006,0.001,0.008,0.002l0.007,0.006l0.063,0.063  c0.004,0.005,0.011,0.003,0.016,0.007s0.004,0.012,0.009,0.016l0.036,0.029l0.01,0.023c0.004,0.01,0.014,0.014,0.019,0.023  c0.003,0.006-0.001,0.014,0.003,0.02l0.042,0.069l0.028,0.086l0.003,0.011c0.002,0.004,0.003,0.009,0.005,0.014l0.016,0.046v0.056  c0,0.007-0.004,0.012-0.004,0.02c0,0.006,0.004,0.01,0.004,0.016v0.048l-0.016,0.047c-0.002,0.004-0.002,0.008-0.004,0.013  l-0.028,0.07L82.81,64.92c-0.005,0.008,0,0.018-0.004,0.025s-0.015,0.01-0.018,0.018l-0.017,0.041l-0.054,0.053  c0,0.001,0,0.001-0.001,0.002l-0.05,0.05l-0.067,0.04L82.53,65.19l-0.063,0.021l-0.094,0.016l0,0c-0.001,0-0.001,0-0.001,0  l-0.067,0.011l-0.067-0.011c0,0,0,0-0.001,0l0,0l-0.086-0.015l-0.052-0.021l-0.109-0.055l-0.015-0.008  c-0.006-0.005-0.004-0.013-0.01-0.017l-0.088-0.07l-0.05-0.05c-0.008-0.01-0.005-0.024-0.014-0.033l-0.021-0.021l-0.029-0.073  l-0.018-0.044v-0.06c0-0.018-0.016-0.029-0.019-0.046s0.009-0.032,0.003-0.049l-0.008-0.022l0.008-0.022  C81.735,64.605,81.724,64.59,81.727,64.573z"
     id="path6" /><path
     fill="#000000"
     d="M96.762,56.064c-0.001-0.036,0.015-0.07,0.001-0.105l-0.018-0.044v-0.079c0-0.021-0.019-0.033-0.022-0.054  c-0.003-0.02,0.009-0.038,0.001-0.058l-0.039-0.098c-0.003-0.008-0.014-0.01-0.018-0.018c-0.004-0.009,0.001-0.018-0.004-0.025  l-0.059-0.098l-0.059-0.098c-0.004-0.006-0.013-0.006-0.017-0.012c-0.004-0.007-0.001-0.016-0.006-0.021l-0.078-0.098  c-0.004-0.006-0.012-0.004-0.016-0.009s-0.003-0.011-0.007-0.016l-0.078-0.078c-0.01-0.01-0.024-0.007-0.034-0.015  c-0.011-0.008-0.012-0.023-0.023-0.031l-0.098-0.059c-0.004-0.002-0.009,0.001-0.013-0.002c-0.004-0.002-0.004-0.007-0.008-0.009  l-0.117-0.059c-0.005-0.002-0.009,0.001-0.014-0.001c-0.004-0.002-0.005-0.007-0.009-0.009l-0.098-0.039  c-0.011-0.005-0.022,0.003-0.033,0.001c-0.012-0.004-0.018-0.017-0.029-0.019l-0.116-0.02c-0.015-0.003-0.026,0.001-0.04,0.001  c-0.004-0.001-0.006-0.005-0.01-0.005h-0.137h-0.098c-0.009,0-0.015,0.009-0.023,0.01c-0.01,0.001-0.016-0.008-0.026-0.006  l-0.116,0.02c-0.009,0.001-0.013,0.011-0.021,0.013c-0.008,0.002-0.016-0.004-0.024-0.002l-0.117,0.039  c-0.012,0.004-0.015,0.018-0.025,0.023c-0.011,0.004-0.023-0.002-0.034,0.004l-0.098,0.059l-0.098,0.059  c-0.012,0.008-0.013,0.023-0.023,0.031c-0.01,0.008-0.024,0.005-0.034,0.015l-0.078,0.078c-0.004,0.005-0.003,0.011-0.007,0.016  s-0.012,0.004-0.016,0.009l-0.078,0.098l-0.078,0.098c-0.011,0.014-0.005,0.03-0.013,0.045c-0.008,0.013-0.025,0.017-0.031,0.031  l-0.039,0.098l-0.039,0.098c-0.002,0.006,0.002,0.011,0,0.016c-0.002,0.006-0.008,0.008-0.01,0.014l-0.039,0.137  c-0.004,0.014,0.007,0.027,0.005,0.042s-0.017,0.024-0.017,0.04v0.098v0.117c0,0.018,0.016,0.029,0.019,0.046  s-0.009,0.032-0.003,0.049l0.039,0.117l0.039,0.117c0.001,0.003,0.005,0.005,0.006,0.009c0.001,0.002-0.001,0.005,0,0.008  l0.039,0.098c0.007,0.018,0.024,0.026,0.034,0.042c0.007,0.011,0.002,0.024,0.01,0.034l0.078,0.098l0.078,0.098  c0.013,0.016,0.029,0.022,0.044,0.035c0.006,0.004,0.005,0.014,0.011,0.018l0.078,0.059c0.005,0.004,0.012,0.002,0.017,0.006  c0.005,0.002,0.004,0.009,0.009,0.012l0.098,0.059l0.098,0.059c0.013,0.008,0.027,0.006,0.041,0.011  c0.008,0.003,0.01,0.013,0.019,0.017l0.117,0.039c0.013,0.004,0.025,0.004,0.038,0.006c0.003,0,0.005,0.004,0.008,0.005l0.116,0.02  c0.001,0,0.001,0,0.002,0l0.087,0.018c0.02,0.005,0.039,0.007,0.059,0.007c0.001,0,0.001-0.001,0.002-0.001  c0.013,0,0.027-0.001,0.04-0.003l0.137-0.02c0,0,0,0,0.001,0c0.002-0.001,0.004,0,0.007-0.001l0.116-0.02  c0.005-0.001,0.007-0.007,0.013-0.008c0.017-0.003,0.033-0.003,0.05-0.01l0.098-0.039c0.003-0.001,0.003-0.005,0.006-0.006  c0.006-0.003,0.012-0.001,0.017-0.004l0.117-0.059c0.003-0.001,0.003-0.006,0.007-0.007c0.004-0.003,0.01-0.002,0.014-0.004  l0.098-0.059c0.005-0.003,0.004-0.01,0.009-0.012c0.005-0.004,0.012-0.002,0.017-0.006l0.078-0.059  c0.006-0.004,0.005-0.014,0.011-0.018c0.015-0.013,0.031-0.02,0.044-0.035l0.078-0.098c0.004-0.005,0.001-0.012,0.005-0.016  c0.005-0.008,0.013-0.01,0.018-0.018l0.059-0.098l0.059-0.098c0.005-0.009,0-0.02,0.004-0.028c0.006-0.012,0.02-0.019,0.023-0.031  l0.039-0.117c0.006-0.017-0.006-0.032-0.003-0.049s0.019-0.028,0.019-0.046v-0.069l0.023-0.07  C96.78,56.131,96.763,56.099,96.762,56.064z M95.654,56.653l-0.08,0.011l-0.047-0.009c-0.002-0.001-0.003,0.001-0.005,0.001  s-0.003-0.002-0.005-0.003l-0.094-0.016l-0.063-0.021l-0.069-0.042l-0.085-0.051l-0.034-0.025l-0.055-0.068l-0.051-0.064  l-0.021-0.05l-0.035-0.105l-0.023-0.07V56.07v-0.057l0.022-0.08l0.034-0.084l0.022-0.055l0.051-0.064l0.07-0.088l0.036-0.036  l0.067-0.04l0.069-0.042l0.063-0.021l0.07-0.012h0.072h0.111l0.062,0.011l0.052,0.021l0.099,0.05l0.058,0.034l0.036,0.036  l0.061,0.075l0.046,0.077l0.046,0.076l0.009,0.022v0.079c0,0.021,0.019,0.033,0.022,0.054c0.003,0.017-0.007,0.032-0.001,0.048  l-0.006,0.019c-0.006,0.017,0.006,0.032,0.003,0.049s-0.019,0.028-0.019,0.046v0.069l-0.013,0.039l-0.042,0.069l-0.046,0.077  L96,56.498l-0.034,0.025l-0.075,0.045l-0.099,0.05l-0.052,0.021L95.654,56.653z"
     id="path8" /><path
     fill="#000000"
     d="M94.403,29.759l0.039,0.117c0.001,0.003,0.005,0.005,0.006,0.008c0.001,0.002-0.001,0.005,0,0.008  l0.037,0.093l0.035,0.105c0.007,0.021,0.026,0.033,0.038,0.052c0.008,0.013,0.002,0.029,0.012,0.041l0.078,0.098l0.078,0.098  c0.013,0.015,0.029,0.022,0.044,0.035c0.006,0.005,0.005,0.014,0.011,0.018l0.07,0.053l0.098,0.078  c0.007,0.005,0.015,0.003,0.021,0.008c0.006,0.004,0.006,0.012,0.012,0.015l0.098,0.059c0.024,0.015,0.052,0.015,0.078,0.021  c0.011,0.003,0.016,0.015,0.027,0.017l0.094,0.016l0.095,0.032c0.031,0.01,0.063,0.016,0.095,0.016c0.001,0,0.001,0,0.002,0h0.096  h0.135c0.001,0,0.001,0,0.002,0c0.031,0,0.063-0.005,0.095-0.016l0.102-0.034l0.077-0.016c0.008-0.001,0.011-0.01,0.018-0.012  c0.02-0.005,0.039-0.004,0.058-0.014l0.117-0.059c0.01-0.005,0.011-0.017,0.02-0.022c0.011-0.007,0.024-0.004,0.034-0.012  l0.098-0.078l0.07-0.053c0.006-0.004,0.005-0.013,0.011-0.018c0.015-0.012,0.031-0.02,0.044-0.035l0.078-0.098  c0.004-0.005,0.001-0.011,0.005-0.016c0.005-0.007,0.013-0.01,0.018-0.018l0.059-0.098c0.002-0.003,0-0.006,0.001-0.009  c0.003-0.005,0.008-0.006,0.011-0.011l0.059-0.117c0.002-0.004-0.001-0.008,0.001-0.012c0.002-0.005,0.007-0.006,0.009-0.011  l0.039-0.098c0.008-0.02-0.004-0.038-0.001-0.058c0.004-0.02,0.022-0.033,0.022-0.054v-0.06l0.018-0.044  c0.013-0.033-0.003-0.064-0.001-0.098s0.021-0.062,0.011-0.096l-0.027-0.096v-0.056c0-0.018-0.016-0.029-0.019-0.046  s0.009-0.032,0.003-0.049L96.69,29.12c-0.002-0.007-0.011-0.009-0.014-0.016c-0.003-0.008,0.002-0.016-0.002-0.023l-0.059-0.117  c-0.005-0.009-0.016-0.01-0.021-0.019c-0.005-0.008-0.001-0.019-0.007-0.027l-0.059-0.078c-0.001-0.001-0.003-0.001-0.005-0.002  c-0.001-0.001,0-0.003-0.001-0.005l-0.078-0.098c-0.004-0.005-0.012-0.004-0.016-0.009c-0.004-0.004-0.003-0.011-0.007-0.016  l-0.078-0.078c-0.01-0.01-0.024-0.006-0.034-0.014c-0.011-0.009-0.012-0.024-0.023-0.031l-0.098-0.059  c-0.004-0.002-0.009,0-0.013-0.002c-0.004-0.002-0.004-0.007-0.008-0.009l-0.117-0.059c-0.005-0.002-0.009,0.001-0.014-0.001  c-0.004-0.002-0.005-0.007-0.009-0.009l-0.098-0.039c-0.011-0.004-0.022,0.003-0.033,0c-0.012-0.003-0.018-0.016-0.029-0.018  l-0.116-0.02c-0.011-0.002-0.017,0.007-0.026,0.006c-0.009-0.001-0.015-0.01-0.023-0.01h-0.137h-0.098  c-0.01,0-0.015,0.009-0.023,0.01c-0.011,0-0.016-0.007-0.026-0.006l-0.116,0.02c-0.009,0.001-0.013,0.011-0.021,0.013  c-0.009,0.002-0.017-0.005-0.025-0.002l-0.117,0.039c-0.012,0.004-0.015,0.017-0.025,0.022c-0.011,0.005-0.023-0.001-0.034,0.005  l-0.098,0.059l-0.098,0.059c-0.012,0.007-0.013,0.022-0.023,0.031c-0.01,0.008-0.024,0.004-0.034,0.014l-0.078,0.078  c-0.004,0.004-0.003,0.011-0.007,0.016c-0.004,0.005-0.012,0.004-0.016,0.009l-0.07,0.088l-0.063,0.063  c-0.018,0.018-0.015,0.044-0.026,0.064c-0.014,0.021-0.038,0.029-0.046,0.053l-0.039,0.117l-0.035,0.105l-0.037,0.093  c-0.008,0.02,0.004,0.038,0.001,0.058c-0.004,0.02-0.022,0.033-0.022,0.054v0.137v0.098c0,0.018,0.016,0.029,0.019,0.046  S94.397,29.742,94.403,29.759z M95.099,29.222c0.006-0.006,0.014-0.008,0.019-0.015l0.07-0.088l0.036-0.036l0.067-0.041l0.069-0.042  l0.063-0.021l0.07-0.012h0.072h0.111l0.062,0.011l0.052,0.021l0.099,0.049l0.058,0.035l0.036,0.036l0.064,0.081l0.043,0.057  l0.039,0.078l0.015,0.045v0.05c0,0.016,0.015,0.025,0.017,0.04c0.002,0.015-0.009,0.028-0.005,0.042l0.011,0.038l-0.001,0.002  c-0.008,0.02,0.004,0.038,0.001,0.058c-0.004,0.02-0.022,0.033-0.022,0.054v0.06l-0.011,0.027l-0.055,0.108l-0.035,0.06L96,29.975  l-0.047,0.035c-0.002,0.001-0.001,0.003-0.003,0.004c-0.001,0.001-0.003,0-0.005,0.001l-0.073,0.059l-0.054,0.027l-0.057,0.011  c-0.007,0.001-0.01,0.009-0.016,0.011c-0.008,0.002-0.014-0.004-0.021-0.001l-0.071,0.024h-0.088h-0.049l-0.071-0.024  c-0.009-0.003-0.017,0.004-0.025,0.002c-0.008-0.002-0.012-0.012-0.021-0.013L95.34,30.1l-0.031-0.019l-0.082-0.066  c-0.002-0.001-0.004,0-0.005-0.001c-0.002-0.001-0.001-0.003-0.003-0.004l-0.047-0.035l-0.055-0.068l-0.046-0.057l-0.021-0.065  c-0.001-0.003-0.005-0.004-0.006-0.007c-0.001-0.003,0.001-0.006,0-0.01l-0.037-0.093l-0.02-0.059v-0.05v-0.079l0.018-0.044  c0.001-0.003-0.001-0.006,0-0.008c0.001-0.003,0.005-0.005,0.006-0.008l0.039-0.117l0.017-0.05l0.028-0.028  C95.098,29.229,95.097,29.224,95.099,29.222z"
     id="path10" /><path
     fill="#000000"
     d="M14.187,64.747V64.67c0.001-0.01,0.01-0.016,0.01-0.025c0-0.009-0.009-0.014-0.01-0.022v-0.079  c0-0.005,0.003-0.009,0.003-0.014c0-0.014-0.007-0.027-0.01-0.041c0-0.004,0.004-0.006,0.003-0.01l-0.01-0.059  c0-0.004,0.004-0.006,0.004-0.01c0-0.008-0.008-0.013-0.009-0.02l-0.005-0.029c-0.002-0.01-0.011-0.014-0.014-0.023  c-0.002-0.008,0.005-0.015,0.002-0.022l-0.039-0.117c0-0.001,0-0.001-0.001-0.001c-0.003-0.011-0.006-0.021-0.011-0.031  l-0.033-0.082c-0.006-0.015-0.023-0.019-0.031-0.031c-0.008-0.015-0.002-0.031-0.013-0.045l-0.078-0.098  c-0.004-0.005-0.012-0.004-0.016-0.009s-0.003-0.011-0.007-0.016l-0.001-0.001c-0.001-0.002-0.001-0.004-0.002-0.005  s-0.004-0.001-0.005-0.002l-0.06-0.06c-0.013-0.015-0.024-0.025-0.04-0.037l-0.093-0.074l-0.098-0.078  c-0.013-0.01-0.03-0.005-0.044-0.013s-0.017-0.025-0.032-0.031l-0.098-0.039c-0.003-0.001-0.006,0.001-0.009,0  c-0.004-0.001-0.005-0.005-0.008-0.007L13.317,63.5c-0.007-0.002-0.013,0.004-0.021,0.002c-0.006-0.002-0.009-0.01-0.016-0.011  l-0.098-0.02c-0.002-0.001-0.003,0.001-0.005,0.001s-0.003-0.002-0.005-0.003l-0.024-0.004c-0.009-0.001-0.015-0.01-0.024-0.01  c-0.004,0-0.006,0.004-0.009,0.004l-0.059-0.01c-0.012-0.002-0.018,0.007-0.028,0.007c-0.016-0.002-0.026-0.001-0.041,0  c-0.012,0-0.019-0.009-0.03-0.007l-0.041,0.007c-0.01-0.001-0.017-0.011-0.026-0.011c-0.024,0-0.039,0.021-0.062,0.025l-0.104,0.018  c-0.009,0.001-0.013,0.011-0.021,0.013c-0.009,0.002-0.017-0.004-0.025-0.002l-0.019,0.007c-0.001,0-0.002-0.002-0.004-0.002  c-0.015,0-0.023,0.014-0.038,0.016l-0.057,0.019c-0.003,0.002-0.004,0.006-0.008,0.007c-0.003,0.001-0.006-0.001-0.009,0  l-0.098,0.039c-0.016,0.006-0.019,0.023-0.032,0.031s-0.031,0.003-0.044,0.013l-0.021,0.018c-0.003,0.002-0.007,0.001-0.01,0.004  c-0.001,0.001-0.001,0.004-0.002,0.006l-0.064,0.051l-0.078,0.062c-0.026,0.02-0.044,0.038-0.063,0.064  c-0.002,0.003-0.007,0.002-0.009,0.006l-0.029,0.039c-0.001,0-0.003,0-0.004,0.001c-0.005,0.007-0.009,0.015-0.014,0.021  l-0.012,0.017c-0.001,0.001,0,0.004-0.002,0.006c-0.003,0.005-0.007,0.01-0.01,0.016c-0.001,0.002-0.004,0.002-0.005,0.004  l-0.021,0.035c-0.016,0.014-0.02,0.032-0.031,0.049l-0.062,0.078c-0.016,0.02-0.009,0.044-0.019,0.065  c-0.013,0.026-0.038,0.042-0.043,0.073l-0.02,0.117l-0.02,0.117c-0.002,0.009,0.007,0.016,0.006,0.025  c-0.001,0.009-0.01,0.014-0.01,0.023v0.07c-0.003,0.018-0.02,0.028-0.02,0.047s0.017,0.029,0.02,0.047v0.07  c0,0.01,0.009,0.015,0.01,0.023c0.001,0.01-0.008,0.017-0.006,0.025l0.02,0.117c0,0.002,0.003,0.004,0.003,0.006  s-0.001,0.003-0.001,0.004l0.02,0.098c0.006,0.029,0.03,0.047,0.043,0.072c0.01,0.018,0.003,0.04,0.017,0.057l0.013,0.016  c0.003,0.003,0.002,0.008,0.004,0.01s0.005,0.002,0.006,0.003l0.024,0.03c0.014,0.027,0.011,0.061,0.034,0.083  c0.008,0.008,0.02,0.005,0.028,0.012l0.005,0.009l0.041,0.068c0.003,0.003,0.003,0.007,0.006,0.01l0.012,0.02  c0.004,0.006,0.011,0.008,0.015,0.014c0.01,0.014,0.018,0.031,0.028,0.043c0.005,0.004,0.012,0.002,0.018,0.007  c0.005,0.005,0.004,0.013,0.009,0.017l0.098,0.078c0.007,0.005,0.015,0.003,0.021,0.008c0.006,0.004,0.006,0.012,0.012,0.016  l0.035,0.021c0.015,0.016,0.035,0.019,0.053,0.032l0.01,0.006l0.098,0.059c0.002,0,0.004,0,0.006,0.001  c0.017,0.01,0.034,0.019,0.053,0.024c0,0,0,0.002,0.001,0.002l0.117,0.039c0.013,0.004,0.025,0.004,0.038,0.006  c0.003,0,0.005,0.004,0.008,0.005l0.104,0.018c0.022,0.005,0.037,0.025,0.062,0.025c0.01,0,0.017-0.01,0.026-0.011l0.041,0.007  c0.018,0.003,0.034,0.004,0.05,0.004s0.032-0.001,0.05-0.004l0.058-0.01c0.004,0,0.006,0.004,0.01,0.004  c0.008,0,0.013-0.009,0.021-0.009l0.028-0.005c0.001,0,0.001-0.001,0.002-0.001c0.003,0,0.005,0,0.008-0.001l0.098-0.02  c0.003-0.001,0.004-0.004,0.007-0.005c0.01-0.002,0.02-0.001,0.029-0.004l0.117-0.039c0.003-0.002,0.004-0.005,0.006-0.006  c0.013-0.004,0.023-0.012,0.035-0.018c0.006-0.002,0.013-0.001,0.019-0.004l0.098-0.059l0.098-0.059  c0.006-0.004,0.006-0.012,0.012-0.016c0.007-0.005,0.015-0.003,0.021-0.008l0.098-0.078c0.006-0.004,0.005-0.013,0.01-0.018  c0.002-0.002,0.004-0.003,0.006-0.005c0.001-0.001,0.003-0.001,0.004-0.001c0.001-0.001,0-0.002,0.001-0.003  c0.008-0.008,0.019-0.011,0.026-0.021l0.054-0.067c0.002-0.001,0.002-0.003,0.004-0.004l0.021-0.026l0.054-0.067  c0.002-0.001,0.002-0.003,0.004-0.004l0.021-0.026c0.008-0.01,0.003-0.023,0.01-0.034c0.01-0.016,0.027-0.024,0.034-0.042  l0.039-0.098l0.039-0.098c0.004-0.01-0.003-0.02,0-0.03c0-0.001,0-0.001,0-0.001c0.003-0.012,0.016-0.018,0.018-0.031l0.004-0.024  c0.001-0.009,0.01-0.015,0.01-0.024c0-0.004-0.004-0.006-0.004-0.009l0.01-0.06c0.001-0.004-0.003-0.006-0.002-0.01  c0.002-0.014,0.009-0.027,0.009-0.041C14.189,64.756,14.187,64.752,14.187,64.747z M13.477,64.984l-0.058,0.072l-0.056,0.045  l-0.08,0.047l-0.069,0.042l-0.07,0.023l-0.067,0.014c-0.001,0-0.001,0-0.001,0l-0.067,0.011l-0.067-0.011c0,0,0,0-0.001,0l0,0  l-0.094-0.016l-0.063-0.021l-0.069-0.042l-0.08-0.047l-0.041-0.033l-0.03-0.051l-0.059-0.098c-0.004-0.006-0.013-0.006-0.017-0.012  c-0.004-0.007-0.001-0.016-0.006-0.021l-0.033-0.041l-0.003-0.016l0,0l-0.016-0.094v-0.092v-0.092l0.016-0.094l0.007-0.039  l0.029-0.037c0.004-0.005,0.001-0.012,0.005-0.016c0.005-0.008,0.013-0.01,0.018-0.018l0.048-0.079l0.03-0.041l0.067-0.054  l0.064-0.051l0.043-0.018l0.09-0.03l0.093-0.016c0.001,0,0.001,0,0.002,0l0.067-0.011l0.067,0.011c0.001,0,0.001,0,0.002,0  l0.066,0.014l0.097,0.032l0.043,0.018l0.064,0.051l0.088,0.07l0.049,0.049l0.043,0.055l0.021,0.05l0.026,0.081l0.013,0.072v0.092  v0.092l-0.011,0.062l-0.026,0.066l-0.022,0.055L13.477,64.984z"
     id="path12" /><path
     fill="#000000"
     d="M42.525,27.73v31.055c0,0.332,0.269,0.6,0.6,0.6h3.951V60.9h-6.359V35.875c0-0.332-0.269-0.6-0.6-0.6h-5.723  h-5.723H25.82c-0.285,0-0.531,0.201-0.588,0.48l-2.793,13.68H3.359c-0.331,0-0.6,0.269-0.6,0.6v5.742V60.9H2.461  c-0.331,0-0.6,0.268-0.6,0.6v5.723c0,0.332,0.269,0.6,0.6,0.6h3.075l0.081,0.196c0.008,0.019,0.016,0.036,0.025,0.053l0.469,0.879  C6.125,68.976,6.14,69,6.156,69.022l0.586,0.801c0.015,0.021,0.031,0.039,0.048,0.058l0.664,0.703  c0.018,0.019,0.036,0.035,0.056,0.052l0.762,0.625c0.022,0.019,0.046,0.034,0.07,0.05l0.84,0.508c0.02,0.012,0.04,0.022,0.062,0.032  l0.898,0.41c0.027,0.013,0.056,0.022,0.084,0.031l0.957,0.273c0.023,0.007,0.047,0.012,0.07,0.015l0.977,0.156  c0.023,0.004,0.047,0.007,0.07,0.008l0.977,0.039c0.009,0,0.017,0,0.024,0c0.023,0,0.048-0.001,0.071-0.004l0.977-0.117  c0.023-0.003,0.046-0.007,0.068-0.012l0.977-0.234c0.027-0.007,0.054-0.016,0.079-0.025l0.898-0.352  c0.021-0.008,0.043-0.018,0.063-0.029l0.879-0.469c0.024-0.013,0.048-0.027,0.07-0.043l0.781-0.566  c0.019-0.014,0.037-0.029,0.054-0.045l0.742-0.684c0.024-0.022,0.048-0.047,0.068-0.074l0.605-0.781  c0.014-0.018,0.027-0.037,0.039-0.057l0.508-0.84c0.013-0.021,0.024-0.043,0.034-0.066l0.251-0.562h37.804l0.081,0.196  c0.008,0.019,0.016,0.036,0.025,0.053l0.469,0.879c0.014,0.025,0.028,0.05,0.045,0.072l0.586,0.801  c0.015,0.021,0.031,0.039,0.048,0.058l0.664,0.703c0.018,0.019,0.036,0.035,0.056,0.052l0.762,0.625  c0.024,0.02,0.049,0.037,0.075,0.053l0.859,0.508c0.018,0.01,0.034,0.019,0.052,0.027l0.879,0.41  c0.029,0.013,0.059,0.024,0.089,0.033l0.957,0.273c0.023,0.007,0.047,0.012,0.07,0.015l0.977,0.156  c0.023,0.004,0.047,0.007,0.07,0.008l0.977,0.039c0.009,0,0.017,0,0.024,0c0.023,0,0.047-0.001,0.07-0.004l0.996-0.117  c0.024-0.003,0.049-0.007,0.072-0.013l0.957-0.234c0.024-0.007,0.049-0.014,0.072-0.022l0.918-0.352  c0.024-0.01,0.049-0.021,0.072-0.033l0.859-0.469c0.021-0.012,0.04-0.023,0.06-0.037l0.801-0.566  c0.023-0.017,0.045-0.035,0.065-0.055l0.723-0.684c0.022-0.021,0.043-0.043,0.062-0.068l0.605-0.781  c0.014-0.018,0.027-0.037,0.039-0.057l0.508-0.84c0.013-0.021,0.024-0.043,0.034-0.066l0.251-0.562h1.619l0.068,0.18  c0.01,0.027,0.021,0.053,0.036,0.078l0.488,0.879c0.011,0.02,0.022,0.037,0.034,0.056l0.566,0.801  c0.019,0.025,0.038,0.05,0.061,0.071l0.684,0.703c0.017,0.018,0.035,0.035,0.055,0.051l0.781,0.625  c0.019,0.015,0.039,0.029,0.06,0.041l0.82,0.508c0.022,0.015,0.046,0.027,0.07,0.038l0.918,0.41c0.026,0.012,0.053,0.021,0.08,0.029  l0.957,0.273c0.022,0.006,0.044,0.011,0.066,0.015l0.938,0.156c0.025,0.004,0.05,0.007,0.075,0.008l1.016,0.039  c0.008,0,0.016,0,0.023,0c0.023,0,0.048-0.001,0.071-0.004l0.977-0.117c0.025-0.003,0.05-0.008,0.074-0.014l0.938-0.234  c0.022-0.006,0.044-0.012,0.065-0.02l0.938-0.352c0.026-0.011,0.052-0.022,0.076-0.035l0.859-0.469  c0.021-0.012,0.04-0.023,0.06-0.037l0.801-0.566c0.025-0.019,0.049-0.038,0.071-0.061l0.703-0.684  c0.016-0.015,0.031-0.031,0.045-0.048l0.645-0.781c0.019-0.022,0.035-0.046,0.051-0.071l0.508-0.84  c0.013-0.021,0.024-0.043,0.034-0.066l0.251-0.562h3.068c0.331,0,0.6-0.268,0.6-0.6V61.5v-2.115h3.932c0.331,0,0.6-0.268,0.6-0.6  V27.73c0-0.332-0.269-0.6-0.6-0.6H43.125C42.794,27.13,42.525,27.399,42.525,27.73z M81.633,71.846l-0.903-0.15l-0.92-0.264  l-0.879-0.393l-0.787-0.487l-0.757-0.604l-0.649-0.668l-0.545-0.771l-0.472-0.85l-0.206-0.543l-0.108-0.323l-0.228-0.914  l-0.112-0.952l0.037-0.939l0.15-0.938l0.262-0.914l0.227-0.51l0.168-0.354l0.509-0.812l0.578-0.727l0.666-0.647h9.258l0.298,0.253  l0.655,0.674l0.56,0.766l0.434,0.848l0.339,0.885l0.225,0.9l0.112,0.952l-0.037,0.942l-0.132,0.938l-0.263,0.881  c-0.001,0.002-0.004,0.002-0.005,0.004c-0.001,0.003,0.001,0.006-0.001,0.008c-0.001,0.002-0.004,0.002-0.005,0.005l-0.384,0.863  l-0.486,0.804l-0.619,0.751l-0.676,0.657l-0.768,0.543l-0.823,0.449l-0.901,0.338l-0.904,0.227l-0.934,0.111L81.633,71.846z   M65.09,71.846l-0.944-0.151l-0.914-0.261l-0.848-0.396l-0.823-0.486l-0.732-0.6l-0.635-0.673l-0.564-0.771l-0.45-0.844  l-0.229-0.554l-0.106-0.316l-0.227-0.908l-0.095-0.963l0.02-0.936l0.149-0.938l0.261-0.911l0.244-0.507  c0.002-0.005-0.001-0.01,0.001-0.015s0.008-0.007,0.01-0.013l0.125-0.341l0.503-0.8l0.599-0.73l0.686-0.647h9.224l0.315,0.256  l0.651,0.669l0.545,0.771l0.47,0.846l0.318,0.881l0.226,0.903l0.113,0.957l-0.02,0.932l-0.168,0.938l-0.269,0.9  c-0.003,0.01,0.005,0.018,0.003,0.025l-0.389,0.834l-0.493,0.814l-0.581,0.75l-0.688,0.652l-0.771,0.545l-0.822,0.449l-0.885,0.338  l-0.922,0.227l-0.952,0.111L65.09,71.846z M12.355,71.846l-0.944-0.151l-0.915-0.261l-0.864-0.395l-0.806-0.488l-0.732-0.6  l-0.635-0.673l-0.564-0.771l-0.45-0.844l-0.229-0.556c0,0,0,0-0.001,0l-0.126-0.326l-0.204-0.891l-0.096-0.969l0.02-0.936  l0.149-0.938l0.262-0.914l0.228-0.513c0.001-0.001,0-0.003,0-0.003c0.001-0.002,0.002-0.002,0.002-0.003l0.146-0.348l0.508-0.81  l0.577-0.725l0.716-0.66l0.749-0.543l0.824-0.469l0.898-0.317l0.926-0.227l0.934-0.112l0.934,0.037l0.944,0.151l0.915,0.261  l0.863,0.395l0.786,0.487l0.754,0.603l0.634,0.671l0.564,0.771l0.448,0.841l0.34,0.887l0.224,0.895l0.095,0.963l-0.02,0.936  l-0.149,0.936l-0.268,0.898c-0.003,0.01,0.005,0.018,0.003,0.025l-0.389,0.834l-0.493,0.814l-0.579,0.748l-0.713,0.656l-0.745,0.54  l-0.85,0.453l-0.862,0.337l-0.938,0.226l-0.937,0.112L12.355,71.846z M60.009,59.31c-0.005,0.005-0.003,0.013-0.008,0.019  c-0.005,0.005-0.013,0.004-0.018,0.009l-0.625,0.762c-0.005,0.005-0.002,0.013-0.006,0.019s-0.013,0.006-0.017,0.012l-0.527,0.84  c-0.006,0.011-0.001,0.022-0.006,0.033c-0.005,0.01-0.018,0.013-0.021,0.023L58.717,61.2H47.976v-2.115h12.271L60.009,59.31z   M20.639,66.391c0.002-0.007-0.004-0.013-0.002-0.02c0.002-0.008,0.01-0.012,0.011-0.02l0.156-0.977  c0.001-0.008-0.006-0.013-0.005-0.021s0.009-0.013,0.009-0.021l0.02-0.977c0-0.006-0.007-0.01-0.007-0.017s0.007-0.012,0.006-0.019  l-0.098-0.996c-0.001-0.008-0.01-0.013-0.012-0.021c-0.001-0.009,0.006-0.015,0.004-0.022l-0.234-0.938  c-0.002-0.007-0.009-0.01-0.012-0.016c-0.002-0.007,0.004-0.014,0.001-0.02L20.28,61.8h2.649h5.742h5.723h5.723h7.559h10.772  l-0.047,0.097c-0.004,0.01,0.002,0.019-0.001,0.027c-0.004,0.01-0.014,0.012-0.017,0.021l-0.273,0.957  c-0.002,0.006,0.004,0.012,0.002,0.019c-0.001,0.007-0.009,0.009-0.01,0.017l-0.156,0.977c-0.001,0.008,0.006,0.014,0.005,0.021  s-0.009,0.012-0.009,0.02l-0.02,0.977c0,0.006,0.007,0.01,0.007,0.017s-0.007,0.012-0.006,0.019l0.098,0.996  c0.001,0.009,0.01,0.014,0.011,0.021c0.002,0.008-0.005,0.014-0.003,0.021l0.229,0.917H20.48L20.639,66.391z M26.065,36.175h2.307  V61.2h-5.143v-5.423v-5.711L26.065,36.175z M34.694,61.2V36.175h5.123V61.2H34.694z M34.095,61.2h-5.123V36.175h5.123V61.2z   M22.63,55.478H3.659v-5.143H22.63V55.478z M3.659,56.077H22.63V61.2h-2.606l-0.384-0.72c-0.004-0.008-0.013-0.008-0.017-0.015  c-0.005-0.007-0.001-0.015-0.006-0.022l-0.586-0.801c-0.004-0.006-0.013-0.004-0.018-0.01c-0.004-0.006-0.002-0.014-0.007-0.019  l-0.664-0.703c-0.005-0.006-0.014-0.004-0.02-0.009c-0.006-0.006-0.005-0.015-0.011-0.02l-0.781-0.625  c-0.006-0.004-0.013-0.002-0.019-0.006c-0.005-0.004-0.005-0.012-0.011-0.015l-0.82-0.508c-0.006-0.004-0.013,0-0.02-0.003  c-0.006-0.004-0.007-0.012-0.014-0.016l-0.898-0.41c-0.008-0.004-0.017,0.002-0.024,0c-0.008-0.004-0.011-0.013-0.019-0.016  l-0.957-0.273c-0.006-0.002-0.012,0.004-0.019,0.002c-0.006-0.001-0.009-0.008-0.016-0.01l-0.977-0.156  c-0.007,0-0.012,0.006-0.019,0.005s-0.011-0.007-0.018-0.008l-0.977-0.039c-0.011-0.001-0.015,0.009-0.024,0.009  c-0.009,0-0.015-0.008-0.023-0.007l-0.977,0.117c-0.007,0.001-0.01,0.008-0.017,0.009c-0.006,0.002-0.012-0.004-0.019-0.002  l-0.957,0.234c-0.006,0.001-0.008,0.008-0.013,0.01c-0.006,0.001-0.011-0.004-0.017-0.002l-0.938,0.332  c-0.01,0.004-0.012,0.015-0.021,0.02c-0.009,0.004-0.019-0.002-0.027,0.003l-0.859,0.488C8.83,58.02,8.83,58.027,8.825,58.031  c-0.005,0.003-0.012,0-0.017,0.004l-0.781,0.566c-0.005,0.004-0.005,0.011-0.01,0.015C8.013,58.621,8.005,58.618,8,58.623  l-0.742,0.684c-0.007,0.006-0.005,0.016-0.011,0.022s-0.016,0.005-0.021,0.012l-0.605,0.762c-0.004,0.005-0.001,0.011-0.005,0.017  c-0.004,0.005-0.011,0.005-0.015,0.01l-0.527,0.84c-0.005,0.008,0,0.018-0.004,0.025c-0.005,0.009-0.015,0.01-0.019,0.019  L5.973,61.2H3.659V56.077z M3.359,61.8H5.71l-0.047,0.105c-0.003,0.008,0.002,0.015-0.001,0.022  c-0.002,0.008-0.011,0.01-0.013,0.018l-0.273,0.957c-0.002,0.006,0.004,0.012,0.002,0.019c-0.001,0.007-0.009,0.009-0.01,0.017  l-0.156,0.977c-0.001,0.008,0.006,0.014,0.005,0.021s-0.009,0.012-0.009,0.02l-0.02,0.977c0,0.006,0.007,0.01,0.007,0.017  s-0.007,0.012-0.006,0.019l0.098,0.996c0.001,0.008,0.009,0.012,0.01,0.02C5.298,65.988,5.293,65.994,5.294,66l0.211,0.923H2.761  V61.8H3.359z M76.568,59.312c-0.006,0.005-0.004,0.014-0.009,0.02c-0.004,0.004-0.013,0.004-0.017,0.009l-0.605,0.762  c-0.004,0.005-0.001,0.011-0.005,0.017c-0.004,0.005-0.011,0.005-0.015,0.01l-0.527,0.84c-0.004,0.006,0,0.013-0.003,0.019  c-0.004,0.006-0.012,0.007-0.015,0.013l-0.095,0.2h-2.504l-0.402-0.725c-0.003-0.005-0.011-0.006-0.014-0.011  c-0.003-0.006,0-0.012-0.004-0.018l-0.566-0.801c-0.005-0.007-0.016-0.006-0.021-0.013c-0.005-0.007-0.003-0.017-0.009-0.022  l-0.512-0.526h5.556L76.568,59.312z M73.373,66.391c0.002-0.006-0.003-0.011-0.002-0.017c0.002-0.007,0.009-0.01,0.01-0.017  l0.176-0.977c0.002-0.008-0.006-0.015-0.005-0.023s0.01-0.014,0.01-0.023l0.02-0.977c0-0.008-0.008-0.013-0.008-0.02  c0-0.008,0.007-0.014,0.006-0.021l-0.117-0.996c-0.001-0.008-0.009-0.011-0.01-0.018c-0.001-0.008,0.005-0.014,0.003-0.02  l-0.234-0.938c-0.001-0.006-0.008-0.008-0.01-0.014c-0.001-0.006,0.003-0.011,0.001-0.016L73.025,61.8h1.981l-0.047,0.105  c-0.003,0.008,0.002,0.015-0.001,0.022c-0.002,0.008-0.011,0.01-0.013,0.018l-0.273,0.957c-0.002,0.006,0.004,0.012,0.002,0.019  c-0.001,0.007-0.009,0.009-0.01,0.017l-0.156,0.977c-0.001,0.006,0.005,0.01,0.004,0.017s-0.008,0.011-0.008,0.019l-0.039,0.977  c0,0.009,0.008,0.014,0.009,0.023c0,0.008-0.008,0.015-0.007,0.023l0.117,0.996c0.001,0.008,0.009,0.012,0.01,0.019  S74.59,66,74.592,66.006l0.229,0.917h-1.606L73.373,66.391z M89.955,66.391c0.002-0.008-0.004-0.015-0.002-0.022  c0.002-0.009,0.011-0.013,0.012-0.022l0.137-0.977c0.001-0.005-0.004-0.009-0.004-0.014c0.001-0.006,0.007-0.01,0.007-0.016  l0.039-0.977c0-0.009-0.008-0.014-0.009-0.023c0-0.008,0.008-0.015,0.007-0.023l-0.117-0.996c-0.001-0.008-0.009-0.011-0.01-0.018  c-0.001-0.008,0.005-0.014,0.003-0.02l-0.234-0.938c-0.002-0.008-0.009-0.01-0.012-0.016c-0.002-0.007,0.004-0.014,0.001-0.02  L89.577,61.8h2.975v5.123h-2.755L89.955,66.391z M92.552,61.2h-3.227l-0.366-0.716c-0.004-0.008-0.015-0.009-0.02-0.017  s-0.001-0.017-0.006-0.024l-0.586-0.801c-0.005-0.006-0.014-0.006-0.02-0.012c-0.005-0.006-0.002-0.014-0.008-0.02l-0.512-0.526  h4.743V61.2z M92.852,58.485h-5.82h-9.453h-7.129h-9.434h-13.34h-4.251V28.03h3.108c0.055,0.068,0.13,0.117,0.225,0.117  s0.17-0.049,0.225-0.117h50.101v30.455H92.852z"
     id="path14" /></svg>