<?xml version="1.0" encoding="UTF-8" standalone="no"?>
<svg
   xmlns:dc="http://purl.org/dc/elements/1.1/"
   xmlns:cc="http://creativecommons.org/ns#"
   xmlns:rdf="http://www.w3.org/1999/02/22-rdf-syntax-ns#"
   xmlns:svg="http://www.w3.org/2000/svg"
   xmlns="http://www.w3.org/2000/svg"
   xmlns:sodipodi="http://sodipodi.sourceforge.net/DTD/sodipodi-0.dtd"
   xmlns:inkscape="http://www.inkscape.org/namespaces/inkscape"
   version="1.1"
   x="0px"
   y="0px"
   viewBox="0 0 150 187.5"
   style="enable-background:new 0 0 150 150;"
   xml:space="preserve"
   id="svg2"
   inkscape:version="0.91 r13725"
   sodipodi:docname="requi.svg"><metadata
     id="metadata88"><rdf:RDF><cc:Work
         rdf:about=""><dc:format>image/svg+xml</dc:format><dc:type
           rdf:resource="http://purl.org/dc/dcmitype/StillImage" /></cc:Work></rdf:RDF></metadata><defs
     id="defs86" /><sodipodi:namedview
     pagecolor="#ffffff"
     bordercolor="#666666"
     borderopacity="1"
     objecttolerance="10"
     gridtolerance="10"
     guidetolerance="10"
     inkscape:pageopacity="0"
     inkscape:pageshadow="2"
     inkscape:window-width="1310"
     inkscape:window-height="722"
     id="namedview84"
     showgrid="false"
     inkscape:zoom="1.2586667"
     inkscape:cx="-61.652542"
     inkscape:cy="93.75"
     inkscape:window-x="0"
     inkscape:window-y="0"
     inkscape:window-maximized="0"
     inkscape:current-layer="svg2" /><style
     type="text/css"
     id="style4">
	.st0{opacity:0.99;}
	.st1{fill:none;}
	.st2{fill:none;stroke:#000000;stroke-width:2;stroke-linecap:round;stroke-linejoin:round;stroke-miterlimit:10;}
</style><g
     id="g6"><g
       id="g8" /><g
       id="g12" /><g
       id="g16" /><g
       id="g20" /><g
       id="g24" /><g
       id="g28" /><g
       id="g32" /><g
       id="g36" /><g
       id="g40" /><g
       id="g44" /><g
       id="g48" /><g
       id="g52" /><g
       id="g56" /><g
       id="g60" /><g
       id="g64" /><g
       id="g68" /><g
       id="g72" /><g
       id="g76"><path
         id="polygon78"
         style=""
         d="m 59.554443,51.84082 -1.115356,-8.875976 -8.590454,0 2.270324,8.875976 z m 32.143067,13.669922 -8.133179,0 -0.37207,8.883301 7.388916,0 z m -36.082031,0 2.272216,8.883301 4.500794,0 -1.116272,-8.883301 z m 18.179199,8.883301 7.395996,0 0.37207,-8.883301 -8.140137,0 z M 10,98.709961 l 130,0 0,-70.119995 -130,0 0,70.119995 z m 28.26001,-65.159973 7.97998,0 c 0.440003,0 0.830017,0.279968 0.960022,0.700012 l 2.099976,6.709961 57.119932,0 c 0.31006,0 0.6001,0.150024 0.79004,0.390014 0.19006,0.25 0.25,0.559998 0.18005,0.859986 l -8.549922,33.430054 c -0.01001,0.02997 -0.03003,0.04999 -0.04004,0.07996 -0.01001,0.04999 -0.03003,0.09003 -0.06006,0.130005 -0.03003,0.07001 -0.07007,0.130005 -0.119995,0.179992 -0.02991,0.04004 -0.05994,0.07001 -0.08997,0.100037 -0.06006,0.06 -0.130004,0.09998 -0.199951,0.130005 -0.03003,0.01996 -0.06006,0.04999 -0.100097,0.06 -0.109986,0.04999 -0.229981,0.07001 -0.359986,0.07001 l -6.380005,0 c -0.01001,0 -0.02002,0.0099 -0.03003,0.0099 -0.02002,0 -0.04004,0 -0.05994,-0.0099 l -9.230102,0 c -0.01001,0 -0.01001,0.0099 -0.0199,0.0099 l -0.04004,0 c -0.01001,0 -0.01001,-0.0099 -0.01001,-0.0099 l -9.20996,0 -0.01001,0.0099 -0.04999,0 -0.01001,-0.0099 -9.23999,0 c -0.02002,0.0099 -0.04004,0.0099 -0.06,0.0099 -0.01001,0 -0.01001,-0.0099 -0.02002,-0.0099 l -6.979981,0 c -1.619995,0 -2.950012,1.399963 -2.950012,3.119995 0,1.709961 1.330017,3.109985 2.950012,3.109985 l 38.909912,0 c 0.550049,0 1,0.450012 1,1 0,0.549988 -0.449951,1 -1,1 l -4.599853,0 c 0.689941,0.839966 1.119873,1.909973 1.119873,3.089966 0,2.680054 -2.119873,4.860046 -4.709961,4.860046 -2.589966,0 -4.689941,-2.179992 -4.689941,-4.860046 0,-1.179993 0.429931,-2.25 1.109863,-3.089966 l -19.44989,0 c 0.690002,0.839966 1.119995,1.909973 1.119995,3.089966 0,2.680054 -2.110046,4.860046 -4.710022,4.860046 -2.580017,0 -4.679993,-2.179992 -4.679993,-4.860046 0,-1.179993 0.429993,-2.25 1.109986,-3.089966 l -0.529969,0 c -2.730041,0 -4.950012,-2.299988 -4.950012,-5.109985 0,-2.580017 1.869995,-4.700013 4.27002,-5.040039 L 47.599975,42.22998 45.51001,35.549988 l -7.25,0 c -0.549988,0 -1,-0.450013 -1,-1 0,-0.559998 0.450012,-1 1,-1 z m 66.86987,9.414856 -8.583615,0 -1.115357,8.875976 7.428952,0 z m -12.532956,31.429199 4.494873,0 2.271973,-8.883301 -5.650635,0 z m 1.933594,-31.429199 -10.021729,0 -0.371826,8.875976 9.27832,0 z m -39.426575,20.545898 5.916931,0 -1.215088,-9.669922 -7.175232,0 z m 38.059875,-9.669922 -9.110595,0 -0.40503,9.669922 8.300537,0 z m -30.127258,9.669922 8.300659,0 -0.405029,-9.669922 -9.110718,0 z m 36.838684,0 2.473146,-9.669922 -7.168825,0 -1.215088,9.669922 z M 70.84845,51.84082 l -0.371826,-8.875976 -10.021851,0 1.115356,8.875976 z m 11.286926,0 0.371704,-8.875976 -10.02887,0 0.371766,8.875976 z m -17.731201,22.553223 7.388916,0 -0.372071,-8.883301 -8.133117,0 z m 8.934631,-10.883301 8.307678,0 0.40503,-9.669922 -9.117737,0 z M 134.44995,10 15.549988,10 C 12.48999,10 10,12.570007 10,15.73999 l 0,10.849976 130,0 0,-10.849976 C 140,12.570007 137.51001,10 134.44995,10 Z m -44.089965,10.289978 -70.260009,0 c -0.549988,0 -1,-0.440002 -1,-1 0,-0.549988 0.450012,-1 1,-1 l 70.260009,0 c 0.549927,0 1,0.450012 1,1 0,0.559998 -0.450073,1 -1,1 z m 13.930055,0 -4.830079,0 c -0.550049,0 -1,-0.440002 -1,-1 0,-0.549988 0.449951,-1 1,-1 l 4.830079,0 c 0.55994,0 1,0.450012 1,1 0,0.559998 -0.44006,1 -1,1 z m 12.80994,0 -4.83997,0 c -0.55005,0 -1,-0.440002 -1,-1 0,-0.549988 0.44995,-1 1,-1 l 4.83997,0 c 0.55004,0 1,0.450012 1,1 0,0.559998 -0.44996,1 -1,1 z m 12.80004,0 -4.83996,0 c -0.55005,0 -1,-0.440002 -1,-1 0,-0.549988 0.44995,-1 1,-1 l 4.83996,0 c 0.54993,0 1,0.450012 1,1 0,0.559998 -0.45007,1 -1,1 z M 10,106.82001 c 0,3.15997 2.48999,5.73999 5.549988,5.73999 l 43.036255,0 c 1.047363,5.94629 0.204101,10.67755 -2.92627,16.45001 -4.769958,0.65997 -8.429993,4.94 -8.429993,9.98999 0,0.54999 0.450013,1 1,1 l 47.989991,0 c 0.550049,0 1,-0.45001 1,-1 0,-2.67999 -1.01001,-5.20001 -2.829956,-7.12 -1.52002,-1.57 -3.489991,-2.57 -5.609986,-2.86004 -3.130127,-5.80078 -3.973511,-10.52374 -2.926514,-16.45996 l 48.596435,0 c 3.06006,0 5.55005,-2.58002 5.55005,-5.73999 l 0,-6.11005 -130,0 0,6.11005 z" /></g></g></svg>