<?xml version="1.0" encoding="UTF-8" standalone="no"?>
<svg
   xmlns:dc="http://purl.org/dc/elements/1.1/"
   xmlns:cc="http://creativecommons.org/ns#"
   xmlns:rdf="http://www.w3.org/1999/02/22-rdf-syntax-ns#"
   xmlns:svg="http://www.w3.org/2000/svg"
   xmlns="http://www.w3.org/2000/svg"
   xmlns:sodipodi="http://sodipodi.sourceforge.net/DTD/sodipodi-0.dtd"
   xmlns:inkscape="http://www.inkscape.org/namespaces/inkscape"
   version="1.1"
   x="0px"
   y="0px"
   viewBox="0 0 100 125"
   id="svg2"
   inkscape:version="0.91 r13725"
   sodipodi:docname="revision.svg">
  <metadata
     id="metadata16">
    <rdf:RDF>
      <cc:Work
         rdf:about="">
        <dc:format>image/svg+xml</dc:format>
        <dc:type
           rdf:resource="http://purl.org/dc/dcmitype/StillImage" />
      </cc:Work>
    </rdf:RDF>
  </metadata>
  <defs
     id="defs14" />
  <sodipodi:namedview
     pagecolor="#ffffff"
     bordercolor="#666666"
     borderopacity="1"
     objecttolerance="10"
     gridtolerance="10"
     guidetolerance="10"
     inkscape:pageopacity="0"
     inkscape:pageshadow="2"
     inkscape:window-width="718"
     inkscape:window-height="480"
     id="namedview12"
     showgrid="false"
     inkscape:zoom="1.888"
     inkscape:cx="50"
     inkscape:cy="62.5"
     inkscape:window-x="0"
     inkscape:window-y="0"
     inkscape:window-maximized="0"
     inkscape:current-layer="svg2" />
  <g
     transform="translate(0,-952.36218)"
     id="g4">
    <path
       style="text-indent:0;text-transform:none;direction:ltr;block-progression:tb;baseline-shift:baseline;color:#000000;enable-background:accumulate;"
       d="m 22,957.36219 c -2.7527,0 -5,2.24732 -5,5 l 0,80.00001 c 0,2.7527 2.2473,5 5,5 l 56,0 c 2.7527,0 5,-2.2473 5,-5 l 0,-80.00001 c 0,-2.75268 -2.2473,-5 -5,-5 z m 0,2 56,0 c 1.6793,0 3,1.32073 3,3 l 0,80.00001 c 0,1.6793 -1.3207,3 -3,3 l -56,0 c -1.6793,0 -3,-1.3207 -3,-3 l 0,-80.00001 c 0,-1.67927 1.3207,-3 3,-3 z m 4,9 c -0.635,0.01 -1.0041,0.5878 -1,1 l 0,14 c 10e-5,0.5236 0.4764,0.9999 1,1 l 18,0 c 0.5236,-1e-4 0.9999,-0.4764 1,-1 l 0,-14 c -1e-4,-0.5236 -0.4764,-0.9999 -1,-1 z m 1,2 16,0 0,12 -16,0 z m 25,5 c -0.5523,0 -1,0.4477 -1,1 0,0.5523 0.4477,1 1,1 l 22,0 c 0.5523,0 1,-0.4477 1,-1 0,-0.5523 -0.4477,-1 -1,-1 z m -4.0938,14.96879 c -0.287637,0.033 -0.557694,0.1969 -0.7187,0.4375 L 38.75,1002.956 33.5625,999.51848 c -0.433479,-0.2986 -1.100228,-0.1734 -1.395963,0.262 -0.295736,0.43532 -0.166316,1.10132 0.270963,1.39422 l 6,4 c 0.427503,0.2885 1.076427,0.1705 1.375,-0.25 l 9,-13.00002 c 0.463227,-0.6189 -0.137522,-1.6754 -0.9063,-1.5937 z M 26,992.36218 c -0.6038,0 -0.9963,0.5214 -1,1 l 0,18.00002 c 10e-5,0.5236 0.4764,0.9999 1,1 l 18,0 c 0.5236,-10e-5 0.9999,-0.4764 1,-1 l 0,-2 c 0.01,-0.5283 -0.4716,-1 -1,-1 -0.5284,0 -1.0075,0.4717 -1,1 l 0,1 -16,0 0,-16.00002 11,0 c 0.5283,0.01 1,-0.4716 1,-1 0,-0.5284 -0.4717,-1.0075 -1,-1 z m 26,9.00002 c -0.5523,0 -1,0.4478 -1,1 0,0.5523 0.4477,1 1,1 l 22,0 c 0.5523,0 1,-0.4477 1,-1 0,-0.5522 -0.4477,-1 -1,-1 z m -26,19 c -0.635,0.01 -1.0041,0.5878 -1,1 l 0,14 c 10e-5,0.5236 0.4764,0.9999 1,1 l 18,0 c 0.5236,-10e-5 0.9999,-0.4764 1,-1 l 0,-14 c -1e-4,-0.5236 -0.4764,-0.9999 -1,-1 z m 1,2 16,0 0,12 -16,0 z m 25,5 c -0.5523,0 -1,0.4477 -1,1 0,0.5523 0.4477,1 1,1 l 22,0 c 0.5523,0 1,-0.4477 1,-1 0,-0.5523 -0.4477,-1 -1,-1 z"
       fill="#000000"
       fill-opacity="1"
       stroke="none"
       marker="none"
       visibility="visible"
       display="inline"
       overflow="visible"
       id="path6" />
  </g>
</svg>
