<?xml version="1.0" encoding="UTF-8" standalone="no"?>
<svg
   xmlns:dc="http://purl.org/dc/elements/1.1/"
   xmlns:cc="http://creativecommons.org/ns#"
   xmlns:rdf="http://www.w3.org/1999/02/22-rdf-syntax-ns#"
   xmlns:svg="http://www.w3.org/2000/svg"
   xmlns="http://www.w3.org/2000/svg"
   xmlns:sodipodi="http://sodipodi.sourceforge.net/DTD/sodipodi-0.dtd"
   xmlns:inkscape="http://www.inkscape.org/namespaces/inkscape"
   version="1.1"
   x="0px"
   y="0px"
   viewBox="0 0 100 125"
   id="svg2"
   inkscape:version="0.91 r13725"
   sodipodi:docname="noun_route_939680.svg">
  <metadata
     id="metadata16">
    <rdf:RDF>
      <cc:Work
         rdf:about="">
        <dc:format>image/svg+xml</dc:format>
        <dc:type
           rdf:resource="http://purl.org/dc/dcmitype/StillImage" />
      </cc:Work>
    </rdf:RDF>
  </metadata>
  <defs
     id="defs14" />
  <sodipodi:namedview
     pagecolor="#ffffff"
     bordercolor="#666666"
     borderopacity="1"
     objecttolerance="10"
     gridtolerance="10"
     guidetolerance="10"
     inkscape:pageopacity="0"
     inkscape:pageshadow="2"
     inkscape:window-width="718"
     inkscape:window-height="480"
     id="namedview12"
     showgrid="false"
     inkscape:zoom="1.888"
     inkscape:cx="50"
     inkscape:cy="62.5"
     inkscape:window-x="0"
     inkscape:window-y="0"
     inkscape:window-maximized="0"
     inkscape:current-layer="svg2" />
  <g
     transform="translate(0,-952.36218)"
     id="g4">
    <path
       style="text-indent:0;text-transform:none;direction:ltr;block-progression:tb;baseline-shift:baseline;color:#000000;enable-background:accumulate;"
       d="m 83.9688,952.36268 c 8.751,0 16.0312,6.87157 16.0312,16 0,2.22877 -0.4975,5.12263 -1.25,7.15625 -4.2905,9.22206 -8.6236,18.46276 -12.9375,27.68747 -0.2751,0.5895 -0.8608,0.9849 -1.5,1.0938 l 0,0.031 c -16.5329,2.7034 -23.6399,6.4447 -26.2813,9.9062 -1.3206,1.7308 -1.7112,3.4435 -1.7187,5.4375 -0.01,1.9941 0.4591,4.2378 0.875,6.625 0.4159,2.3873 0.7977,4.9374 0.375,7.5938 -0.4227,2.6563 -1.7276,5.3551 -4.3437,7.6875 -5.2326,4.6647 -15.2767,8.1838 -34.9688,10.75 -0.082,0.011 -0.1665,0.031 -0.25,0.031 -0.7562,0 -1.4927,-0.4711 -1.8125,-1.1563 -4.8684,-10.3872 -9.9558,-20.7003 -14.7813,-31.0937 -0.8215,-2.186 -1.4062,-5.283 -1.4062,-7.75 0,-10.1565 8.1535,-18.00001 18.0312,-18.00001 9.8779,0 17.9688,7.84941 17.9688,18.00001 0,2.4687 -0.591,5.5693 -1.4062,7.75 -4.372,9.2353 -8.7899,18.4792 -13.1876,27.7187 16.9288,-2.4929 25.3691,-5.8703 29.125,-9.2187 2.0085,-1.7905 2.7959,-3.4713 3.0938,-5.3438 0.2979,-1.8724 0.024,-3.9886 -0.375,-6.2812 -0.3994,-2.2926 -0.9472,-4.7619 -0.9375,-7.3438 0.01,-2.5818 0.6654,-5.3261 2.5625,-7.8125 3.5908,-4.706 11.062,-8.2838 26.1875,-11 C 77.1408,992.38669 73.1084,983.97519 69.25,975.51843 68.5037,973.4904 68,970.59267 68,968.36218 c 0,-9.12266 7.2175,-16 15.9688,-16 z m 0,4 c -6.7142,0 -11.9688,4.93666 -11.9688,12 0,1.4789 0.5449,4.49654 1,5.75 3.6437,7.83674 7.3299,15.66981 11,23.50001 3.5832,-7.8693 7.293,-15.4787 11,-23.50001 0.456,-1.24911 1,-4.26779 1,-5.75 0,-7.05757 -5.317401,-12 -12.0312,-12 z m 0.031,5 c 3.8422,0 6.999999,3.15765 6.999999,7 0,3.84235 -3.157799,7 -6.999999,7 -3.8423,0 -7,-3.1577 -7,-7 0,-3.8423 3.1577,-7 7,-7 z m 0,4 c -1.6805,0 -3,1.3195 -3,3 0,1.6805 1.3195,3 3,3 1.6804,0 3,-1.31955 3,-3 0,-1.68045 -1.3196,-3 -3,-3 z M 18.031,998.36269 c -7.797,0 -14.0312,5.94721 -14.0312,14.00001 0,1.7084 0.5977,4.8113 1.1562,6.3125 4.2583,9.0035 8.5591,18.0032 12.8438,27 4.1965,-9.0373 8.6833,-18.1483 12.8438,-27 0.5574,-1.5053 1.1564,-4.6076 1.1564,-6.3125 0,-8.0586 -6.1716,-14.00001 -13.9688,-14.00001 z M 18,1003.3627 c 4.9468,0 9,4.0531 9,9 0,4.9468 -4.0532,9 -9,9 -4.9469,0 -9,-4.0532 -9,-9 0,-4.9469 4.0531,-9 9,-9 z m 0,4 c -2.7851,0 -5,2.2149 -5,5 0,2.785 2.2149,5 5,5 2.785,0 5,-2.2151 5,-5 0,-2.7851 -2.215,-5 -5,-5 z"
       fill="#000000"
       fill-opacity="1"
       stroke="none"
       marker="none"
       visibility="visible"
       display="inline"
       overflow="visible"
       id="path6" />
  </g>
</svg>
