<?xml version="1.0" encoding="UTF-8" standalone="no"?>
<svg
   xmlns:dc="http://purl.org/dc/elements/1.1/"
   xmlns:cc="http://creativecommons.org/ns#"
   xmlns:rdf="http://www.w3.org/1999/02/22-rdf-syntax-ns#"
   xmlns:svg="http://www.w3.org/2000/svg"
   xmlns="http://www.w3.org/2000/svg"
   xmlns:sodipodi="http://sodipodi.sourceforge.net/DTD/sodipodi-0.dtd"
   xmlns:inkscape="http://www.inkscape.org/namespaces/inkscape"
   version="1.1"
   x="0px"
   y="0px"
   viewBox="0 0 100 125"
   enable-background="new 0 0 100 100"
   xml:space="preserve"
   id="svg2"
   inkscape:version="0.91 r13725"
   sodipodi:docname="ajustes.svg"><metadata
     id="metadata24"><rdf:RDF><cc:Work
         rdf:about=""><dc:format>image/svg+xml</dc:format><dc:type
           rdf:resource="http://purl.org/dc/dcmitype/StillImage" /></cc:Work></rdf:RDF></metadata><defs
     id="defs22" /><sodipodi:namedview
     pagecolor="#ffffff"
     bordercolor="#666666"
     borderopacity="1"
     objecttolerance="10"
     gridtolerance="10"
     guidetolerance="10"
     inkscape:pageopacity="0"
     inkscape:pageshadow="2"
     inkscape:window-width="640"
     inkscape:window-height="480"
     id="namedview20"
     showgrid="false"
     inkscape:zoom="1.888"
     inkscape:cx="50"
     inkscape:cy="62.5"
     inkscape:window-x="0"
     inkscape:window-y="0"
     inkscape:window-maximized="0"
     inkscape:current-layer="svg2" /><path
     fill="#000000"
     d="M49.2,63.556c-0.018-0.005-0.035,0-0.053-0.003c-0.021-0.003-0.038-0.013-0.059-0.014l-2.266-0.078  c-0.015,0.001-0.027,0.008-0.042,0.01c-0.034,0.002-0.068-0.003-0.103,0.007l-2.227,0.586c-0.021,0.005-0.036,0.02-0.056,0.027  c-0.02,0.008-0.041,0.009-0.061,0.02l-1.953,1.094c-0.022,0.013-0.036,0.032-0.056,0.048c-0.019,0.014-0.041,0.021-0.058,0.039  l-1.602,1.641c-0.015,0.016-0.021,0.035-0.033,0.051c-0.011,0.016-0.028,0.025-0.038,0.042l-1.172,1.953  c-0.012,0.021-0.014,0.042-0.022,0.063c-0.009,0.021-0.025,0.038-0.031,0.062l-0.586,2.148c-0.006,0.022-0.001,0.044-0.004,0.067  c-0.003,0.021-0.013,0.041-0.013,0.064v0.069l-0.039,2.188c0,0.023,0.009,0.044,0.012,0.066c0.002,0.021-0.002,0.042,0.003,0.063  l0.547,2.188c0.003,0.012,0.014,0.017,0.018,0.027c0.011,0.033,0.015,0.067,0.033,0.099l1.133,1.992  c0.007,0.013,0.021,0.017,0.028,0.028c0.014,0.021,0.022,0.046,0.04,0.065l1.562,1.68c0.017,0.018,0.039,0.025,0.058,0.04  c0.022,0.019,0.039,0.041,0.064,0.056l1.953,1.094c0.013,0.007,0.027,0.005,0.041,0.011c0.02,0.01,0.036,0.024,0.058,0.031  l2.188,0.664c0.048,0.015,0.097,0.021,0.145,0.021h2.266c0,0,0,0,0,0c0.043,0,0.086-0.006,0.129-0.017l2.187-0.586  c0.025-0.007,0.045-0.023,0.068-0.034c0.014-0.006,0.029-0.003,0.043-0.011l1.992-1.094c0.023-0.013,0.038-0.033,0.059-0.049  c0.02-0.015,0.041-0.022,0.059-0.04l1.602-1.641c0.018-0.018,0.024-0.039,0.038-0.059c0.008-0.011,0.021-0.015,0.028-0.026  l1.172-1.875c0.02-0.032,0.026-0.067,0.039-0.102c0.004-0.012,0.016-0.017,0.019-0.028l0.625-2.227  c0.007-0.022,0.002-0.045,0.005-0.068c0.004-0.022,0.014-0.043,0.014-0.066v-2.188c0-0.014-0.006-0.024-0.008-0.037v-0.002  c0.001-0.014,0.008-0.025,0.008-0.039c0-0.021-0.01-0.04-0.012-0.061c-0.003-0.021,0.002-0.04-0.004-0.061l-0.547-2.188  c-0.005-0.022-0.02-0.039-0.027-0.06c-0.01-0.022-0.011-0.046-0.022-0.066l-1.133-1.992c-0.011-0.019-0.028-0.029-0.04-0.046  c-0.014-0.019-0.021-0.04-0.037-0.057l-1.562-1.602c-0.016-0.016-0.035-0.022-0.053-0.036c-0.018-0.013-0.028-0.031-0.047-0.043  l-1.953-1.172c-0.021-0.013-0.044-0.015-0.065-0.023c-0.022-0.009-0.04-0.024-0.063-0.031L49.2,63.556z M54.263,77.633l-1.515,1.551  l-1.873,1.028l-2.068,0.554h-2.124l-2.064-0.627l-1.838-1.029l-1.471-1.58l-1.069-1.881l-0.514-2.056l0.037-2.063l0.552-2.097  l1.102-1.8l1.511-1.512l1.838-1.029l2.092-0.551l2.136,0.074l2.066,0.554l1.835,1.101l1.475,1.512l1.066,1.875l0.516,2.061v2.059  l-0.588,2.092L54.263,77.633z"
     id="path4" /><path
     fill="#000000"
     d="M53.473,48.312c-0.002-0.021-0.014-0.037-0.019-0.057c-0.005-0.019-0.002-0.038-0.009-0.057l-0.469-1.25  c-0.01-0.023-0.027-0.041-0.04-0.062c-0.011-0.02-0.015-0.043-0.028-0.062l-0.011-0.014c0,0,0-0.001-0.001-0.001l-0.003-0.004  l-0.806-1.075c-0.014-0.018-0.033-0.027-0.048-0.042c-0.015-0.016-0.022-0.033-0.038-0.047l-1.016-0.82  c-0.019-0.016-0.042-0.021-0.062-0.032c-0.021-0.013-0.036-0.03-0.059-0.04l-1.211-0.508c-0.023-0.01-0.047-0.008-0.07-0.014  s-0.042-0.019-0.065-0.021l-1.328-0.156c-0.022-0.003-0.042,0.004-0.063,0.004c-0.019,0-0.036-0.006-0.056-0.004l-0.039,0.005  c-0.006,0.001-0.012,0.001-0.018,0.002l-1.233,0.149c-0.024,0.003-0.043,0.016-0.066,0.021s-0.045,0.005-0.067,0.014l-1.211,0.508  c-0.016,0.007-0.026,0.02-0.041,0.027c-0.015,0.008-0.032,0.01-0.047,0.02l-1.094,0.742c-0.028,0.02-0.045,0.047-0.068,0.069  c-0.019,0.019-0.042,0.031-0.058,0.054l-0.781,1.094c-0.01,0.015-0.012,0.031-0.021,0.047c-0.009,0.016-0.023,0.027-0.031,0.045  l-0.508,1.172c-0.009,0.021-0.008,0.044-0.014,0.066c-0.006,0.021-0.019,0.038-0.022,0.061l-0.195,1.328  c-0.001,0.007,0.001,0.014,0,0.021c-0.001,0.018-0.01,0.033-0.01,0.051c0,0.015,0.008,0.027,0.009,0.042  c0,0-0.002,0.012-0.001,0.018l0.156,1.328c0.003,0.028,0.017,0.052,0.024,0.078c0.006,0.021,0.004,0.042,0.013,0.062l0.508,1.172  c0.005,0.012,0.018,0.017,0.023,0.027c0.011,0.021,0.015,0.045,0.028,0.064l0.782,1.094c0.01,0.016,0.028,0.021,0.041,0.035  c0.021,0.023,0.036,0.051,0.062,0.07l1.016,0.781c0.01,0.008,0.022,0.004,0.032,0.011c0.027,0.019,0.048,0.041,0.079,0.054  l1.211,0.508c0.023,0.01,0.048,0.008,0.071,0.015c0.022,0.005,0.04,0.018,0.063,0.021l1.328,0.156  c0.02,0.003,0.039,0.004,0.058,0.004h0h0h0h0c0.02,0,0.039-0.001,0.059-0.004l1.289-0.156c0.014-0.002,0.025-0.01,0.039-0.013  c0.022-0.005,0.045-0.004,0.068-0.012l1.211-0.43c0.038-0.014,0.067-0.039,0.1-0.06c0.01-0.007,0.022-0.004,0.031-0.011l1.055-0.781  c0.022-0.017,0.036-0.041,0.056-0.062c0.012-0.013,0.029-0.019,0.041-0.033l0.82-1.055c0.021-0.027,0.028-0.059,0.043-0.088  c0.007-0.012,0.021-0.018,0.025-0.03l0.508-1.25c0.008-0.017,0.006-0.035,0.01-0.053c0.007-0.021,0.018-0.038,0.021-0.061  l0.195-1.289c0.002-0.016-0.003-0.03-0.002-0.046c0-0.01,0.006-0.019,0.006-0.028c0-0.008-0.005-0.015-0.005-0.022  c-0.001-0.015,0.005-0.027,0.003-0.041L53.473,48.312z M50.319,53.553l-1.093,0.388l-1.172,0.143l-1.197-0.142l-1.086-0.455  l-0.905-0.696l-0.707-0.989l-0.458-1.059l-0.14-1.188l0.176-1.195l0.458-1.057l0.701-0.911l0.991-0.743l1.089-0.456l1.145-0.14  l1.2,0.212l1.095,0.459l0.917,0.74l0.738,0.914l0.42,1.119l0.14,1.123l-0.175,1.16l-0.461,1.135l-0.734,0.943L50.319,53.553z"
     id="path6" /><path
     fill="#000000"
     d="M19.231,24.188l3.017,0.146l1.598,1.632l0.037,3v0.001v0.001v0.072l0,0.002  c0.001,0.195,0.117,0.381,0.309,0.46l2.454,1.013h0.001l0.001,0.001c0.001,0,0.002,0.001,0.003,0.001l0.002,0.001  c0.062,0.026,0.127,0.038,0.191,0.038c0.063,0,0.126-0.014,0.186-0.037c0.022-0.01,0.04-0.024,0.06-0.036  c0.017-0.01,0.031-0.019,0.047-0.03c0.015-0.011,0.032-0.016,0.046-0.028l2.239-2.056h2.296l2.159,2.122  c0.016,0.016,0.036,0.022,0.054,0.035c0.018,0.014,0.035,0.024,0.054,0.036c0.076,0.043,0.158,0.072,0.243,0.072  c0.065,0,0.131-0.014,0.192-0.039l2.495-1.014c0.034-0.014,0.062-0.038,0.092-0.059c0.024-0.016,0.052-0.026,0.074-0.046  c0.023-0.026,0.038-0.059,0.057-0.088c0.015-0.022,0.034-0.04,0.045-0.063c0.001-0.002,0.001-0.005,0.002-0.007  c0.001-0.003,0.003-0.006,0.004-0.009c0.017-0.041,0.021-0.084,0.028-0.127c0.002-0.016,0.009-0.03,0.01-0.046v-0.001v-0.002  c0-0.006,0.004-0.012,0.004-0.012c0-0.01-0.002-0.014-0.003-0.019l0.109-3.013l1.629-1.629h1.647l-1.344,0.602  c-0.001,0-0.002,0.001-0.004,0.002l-0.007,0.003c-0.017,0.007-0.027,0.021-0.043,0.03c-0.04,0.023-0.08,0.047-0.112,0.08  c-0.021,0.021-0.034,0.049-0.05,0.074c-0.019,0.029-0.041,0.055-0.053,0.086c-0.016,0.039-0.019,0.08-0.025,0.121  c-0.003,0.022-0.013,0.042-0.013,0.064v0.01v0.001v2.674v0.001v0.002c0,0-0.001,0.003-0.001,0.005c0,0.033,0.013,0.065,0.019,0.098  c0.006,0.029,0.007,0.06,0.018,0.088c0.001,0.003,0.001,0.005,0.003,0.008c0.012,0.03,0.034,0.054,0.052,0.081  c0.017,0.025,0.029,0.053,0.05,0.074c0.003,0.003,0.004,0.007,0.007,0.01c0,0,0,0,0.001,0.001c0.006,0.006,0.015,0.008,0.021,0.014  c0.025,0.022,0.054,0.038,0.083,0.056c0.016,0.009,0.026,0.023,0.043,0.03l0.007,0.003c0.001,0.001,0.002,0.002,0.004,0.002  l2.773,1.241l0.866,2.13l-1.095,2.81c-0.001,0.002-0.001,0.003-0.002,0.005l-0.002,0.006c0,0,0,0.001,0,0.001l0,0.001  c-0.002,0.005-0.001,0.01-0.003,0.016c-0.003,0.008-0.002,0.017-0.004,0.025c-0.015,0.045-0.03,0.09-0.03,0.142  c0,0.065,0.015,0.13,0.042,0.192c0,0,0.001,0.001,0.002,0.002l0.001,0.002c0.004,0.012,0.014,0.02,0.019,0.029  c0.024,0.048,0.05,0.095,0.086,0.135c0.006,0.006,0.014,0.008,0.021,0.014l1.896,1.857c0.015,0.015,0.035,0.021,0.052,0.033  c0.017,0.014,0.033,0.023,0.051,0.033c0.078,0.045,0.161,0.076,0.248,0.076c0.06,0,0.121-0.011,0.18-0.033l1.978-0.761l-1.164,2.635  l-2.123,0.796l-2.823-1.1c0,0,0,0,0,0l-0.006-0.003c-0.016-0.007-0.033-0.004-0.05-0.009c-0.046-0.013-0.093-0.024-0.141-0.023  c-0.021,0-0.041,0.009-0.062,0.012c-0.042,0.006-0.085,0.012-0.125,0.028c-0.027,0.012-0.049,0.032-0.073,0.049  c-0.028,0.019-0.059,0.03-0.084,0.056l-1.902,1.902c-0.003,0.003-0.008,0.004-0.011,0.007c-0.034,0.034-0.054,0.075-0.077,0.115  c-0.008,0.015-0.021,0.026-0.027,0.041c-0.021,0.046-0.028,0.095-0.034,0.145c-0.002,0.015-0.008,0.027-0.008,0.042  c0,0-0.003,0.012-0.003,0.018c0,0.069,0.016,0.137,0.044,0.199l1.053,2.796l-0.896,2.124l-2.815,1.134  c-0.192,0.077-0.311,0.261-0.313,0.456v0.001l-0.039,2.726l0,0v0.009v0.001c0,0.031,0.011,0.06,0.017,0.09  c0.005,0.031,0.006,0.064,0.017,0.094c0.001,0.003,0.001,0.006,0.002,0.008c0.01,0.026,0.03,0.047,0.045,0.07  c0.001,0.002,0.002,0.004,0.003,0.006c0.017,0.026,0.028,0.055,0.05,0.078c0.002,0.002,0.003,0.005,0.006,0.008  c0.029,0.029,0.066,0.049,0.102,0.07c0.018,0.012,0.029,0.027,0.049,0.036l0.007,0.003c0,0,0.001,0.001,0.001,0.001l0.001,0.001  l0.015,0.006l2.768,1.275l0.862,2.055l-1.132,2.886l-0.001,0.003l-0.003,0.009c-0.007,0.019-0.005,0.038-0.01,0.058  c-0.011,0.043-0.023,0.085-0.023,0.129c0,0.032,0.011,0.062,0.018,0.094c0.006,0.031,0.008,0.062,0.021,0.094  c0.016,0.037,0.042,0.069,0.067,0.104c0.013,0.018,0.02,0.038,0.036,0.055l0.002,0.002c0.003,0.004,0.005,0.009,0.008,0.013  c0.003,0.003,0.007,0.004,0.01,0.007l1.85,1.887c0.004,0.005,0.005,0.012,0.01,0.016c0.018,0.017,0.04,0.023,0.059,0.037  c0.014,0.01,0.026,0.018,0.04,0.025c0.021,0.013,0.04,0.031,0.062,0.04c0,0.001,0,0.001,0,0.001c0.06,0.023,0.123,0.037,0.188,0.037  c0,0,0,0,0.001,0c0,0,0,0,0.001,0c0.06,0,0.121-0.011,0.18-0.033l2.854-1.098l2.092,0.93l0.181,0.425l-0.5-0.491  c-0.048-0.049-0.104-0.084-0.166-0.109c-0.033-0.014-0.068-0.016-0.103-0.021c-0.028-0.005-0.055-0.016-0.083-0.016  c-0.068,0-0.135,0.014-0.198,0.041l-2.409,0.994c-0.079,0.022-0.148,0.066-0.206,0.126c-0.011,0.011-0.017,0.024-0.027,0.036  c-0.029,0.037-0.058,0.072-0.076,0.115c-0.015,0.033-0.02,0.07-0.027,0.105c-0.005,0.025-0.017,0.048-0.019,0.073l-0.147,3.05  l-1.592,1.592h-3.074c-0.001,0-0.002,0.001-0.004,0.001c-0.064,0-0.127,0.013-0.187,0.037c-0.019,0.008-0.032,0.022-0.049,0.031  c-0.05,0.028-0.095,0.062-0.134,0.106c-0.035,0.04-0.067,0.083-0.088,0.133c0,0-0.001,0.002-0.002,0.003l-1.016,2.5  c-0.01,0.025-0.009,0.052-0.015,0.078c-0.008,0.035-0.02,0.069-0.02,0.104c0,0.015,0.003,0.027,0.004,0.042  c-0.001,0.012-0.004,0.022-0.004,0.033c-0.001,0.003-0.002,0.006-0.002,0.006c0,0.028,0.011,0.051,0.015,0.075  c0.005,0.037,0.008,0.074,0.022,0.11c0.015,0.037,0.039,0.067,0.062,0.1c0.013,0.019,0.02,0.041,0.036,0.059l2.05,2.196  l-0.033,2.219l-2.122,2.195l0,0L35,75.84c-0.015,0.015-0.02,0.034-0.032,0.051c-0.026,0.034-0.054,0.068-0.071,0.11  c-0.012,0.028-0.013,0.06-0.019,0.09c-0.007,0.031-0.018,0.062-0.019,0.094l0,0.003v0.07v0.002v0.006  c0,0.021,0.009,0.036,0.012,0.056c0.005,0.044,0.007,0.089,0.025,0.133l1.016,2.5c0,0.001,0.001,0.001,0.002,0.002  c0.013,0.031,0.036,0.056,0.054,0.084c0.017,0.024,0.029,0.052,0.05,0.073c0.018,0.019,0.041,0.029,0.061,0.045  c0.016,0.012,0.03,0.022,0.048,0.033c0.017,0.01,0.03,0.023,0.048,0.031c0.029,0.013,0.063,0.015,0.095,0.021  c0.031,0.008,0.06,0.021,0.093,0.021l3.042,0.073l1.628,1.628l0.037,2.996l0,0v0.004v0.072l0,0c0,0.195,0.115,0.381,0.307,0.461  l2.417,1.014c0,0,0.001,0,0.001,0l0.001,0.001c0.061,0.025,0.126,0.04,0.196,0.04c0.063,0,0.126-0.014,0.186-0.037  c0.022-0.009,0.039-0.024,0.059-0.035c0.017-0.01,0.031-0.02,0.046-0.03s0.033-0.017,0.047-0.029l2.239-2.056h2.299l2.198,2.125  c0.014,0.014,0.033,0.02,0.049,0.031c0.016,0.013,0.031,0.021,0.05,0.032c0.078,0.046,0.161,0.077,0.249,0.077  c0.059,0,0.117-0.01,0.176-0.032l0.016-0.006c0,0,0,0,0.001-0.001l2.483-0.931c0.002-0.001,0.004-0.003,0.006-0.004  c0.004-0.001,0.008-0.001,0.012-0.003c0.021-0.009,0.036-0.025,0.056-0.037c0.021-0.012,0.04-0.023,0.058-0.037  c0.012-0.01,0.027-0.016,0.039-0.026c0.002-0.002,0.004-0.003,0.006-0.005c0.018-0.018,0.026-0.04,0.041-0.06  c0.014-0.019,0.028-0.036,0.04-0.058c0.006-0.012,0.017-0.021,0.022-0.032c0.002-0.003,0.002-0.005,0.004-0.008  c0.01-0.023,0.01-0.052,0.017-0.076c0.009-0.035,0.022-0.069,0.023-0.106l0.001-0.004l0.073-3.113l1.622-1.557l0.763-0.01  l-0.847,0.379c-0.001,0-0.002,0.001-0.004,0.002l-0.007,0.003c-0.017,0.007-0.027,0.021-0.043,0.03  c-0.04,0.023-0.08,0.047-0.112,0.08c-0.021,0.021-0.033,0.049-0.05,0.074c-0.019,0.029-0.041,0.055-0.054,0.086  c-0.016,0.039-0.019,0.08-0.024,0.121c-0.003,0.022-0.013,0.042-0.013,0.064v0.01v0.001v2.635v0.001v0.01  c0,0.022,0.01,0.042,0.013,0.064c0.006,0.041,0.009,0.082,0.024,0.121c0.013,0.031,0.035,0.057,0.054,0.086  c0.017,0.024,0.028,0.052,0.05,0.074c0.004,0.005,0.006,0.012,0.011,0.017c0.034,0.031,0.075,0.051,0.114,0.072  c0.012,0.006,0.019,0.017,0.03,0.021l0.007,0.003c0.002,0.001,0.003,0.002,0.004,0.002l0.002,0.001  c0.004,0.001,0.008,0.003,0.012,0.005l2.762,1.236l0.863,2.092l-1.094,2.807v0.001l-0.002,0.006v0.001l-0.003,0.006  c-0.007,0.019-0.005,0.037-0.01,0.057c-0.011,0.041-0.024,0.082-0.024,0.125v0.078l0.001,0.006c0.001,0.129,0.052,0.258,0.153,0.354  l1.914,1.837c0.015,0.014,0.033,0.02,0.049,0.031c0.016,0.013,0.03,0.021,0.047,0.031c0.022,0.014,0.043,0.031,0.066,0.041  c0.005,0.002,0.011,0.002,0.016,0.004c0.053,0.019,0.105,0.032,0.162,0.032c0.002,0,0.004-0.001,0.006-0.001l0,0  c0.004,0,0.009-0.002,0.014-0.002c0.064-0.003,0.126-0.014,0.182-0.037l2.808-1.094l2.089,0.861l1.239,2.807  c0.002,0.004,0.004,0.008,0.005,0.012l0.004,0.007c0.002,0.004,0.006,0.006,0.008,0.01c0.035,0.075,0.092,0.135,0.157,0.184  c0.017,0.013,0.032,0.023,0.051,0.034c0.017,0.009,0.029,0.023,0.047,0.031c0.061,0.025,0.126,0.039,0.192,0.039l0,0  c0.002,0,0.002,0,0.002,0h2.656c0,0,0,0,0.001,0H70.4c0.064,0,0.128-0.013,0.187-0.038c0.02-0.008,0.034-0.022,0.053-0.032  c0.019-0.011,0.034-0.021,0.051-0.034c0.065-0.049,0.121-0.108,0.157-0.184c0.002-0.004,0.006-0.006,0.008-0.01l0.004-0.009  c0.002-0.002,0.003-0.005,0.004-0.008l1.239-2.807L74.23,91.1l2.844,1.094c0.006,0.003,0.011,0.004,0.018,0.007l0.002,0.001  c0.014,0.005,0.027,0.004,0.041,0.008c0.045,0.013,0.09,0.026,0.135,0.026c0.014,0,0.023-0.007,0.036-0.007  c0.053-0.004,0.105-0.011,0.155-0.031c0.002,0,0.003-0.001,0.004-0.001c0.025-0.011,0.041-0.026,0.062-0.04  c0.015-0.009,0.027-0.017,0.041-0.027c0.017-0.012,0.038-0.02,0.052-0.033c0.001-0.001,0.001-0.003,0.003-0.004l0,0l1.875-1.836  c0,0,0.001-0.002,0.002-0.002c0.046-0.046,0.084-0.101,0.109-0.162c0.025-0.061,0.038-0.125,0.039-0.191v-0.002V89.82v-0.002  c0-0.041-0.014-0.08-0.023-0.12c-0.006-0.02-0.003-0.04-0.011-0.06l-0.004-0.01c-0.001-0.001-0.001-0.002-0.001-0.002l-1.094-2.809  l0.862-2.091l2.805-1.238c0.004-0.002,0.007-0.003,0.011-0.005c0.001,0,0.002-0.001,0.004-0.002l0.005-0.002  c0.013-0.006,0.021-0.016,0.032-0.022c0.043-0.023,0.086-0.046,0.126-0.082c0.037-0.042,0.063-0.089,0.085-0.136  c0.005-0.009,0.012-0.016,0.016-0.024c0.002-0.003,0.003-0.007,0.004-0.01c0.008-0.02,0.007-0.042,0.012-0.062  c0.01-0.039,0.023-0.077,0.023-0.118v-0.001c0-0.001,0-0.001,0-0.001v-0.008l0,0v-2.641l0,0v-0.008c0-0.022-0.01-0.041-0.013-0.062  c-0.005-0.042-0.009-0.085-0.024-0.124c-0.014-0.032-0.035-0.058-0.055-0.085c-0.016-0.025-0.028-0.053-0.05-0.075  c-0.033-0.034-0.074-0.058-0.116-0.081c-0.015-0.009-0.024-0.022-0.04-0.029l-0.005-0.002c-0.002-0.001-0.003-0.002-0.004-0.002  l-2.815-1.243l-0.864-2.093l1.095-2.881c0.026-0.061,0.042-0.125,0.042-0.193c0-0.006-0.004-0.01-0.004-0.016  c0-0.022-0.008-0.043-0.012-0.065c-0.007-0.043-0.012-0.087-0.029-0.126c-0.009-0.019-0.025-0.033-0.035-0.051  c-0.013-0.021-0.025-0.041-0.042-0.061c-0.009-0.012-0.013-0.025-0.022-0.035l-0.004-0.004c-0.001-0.001-0.001-0.002-0.002-0.003  l-0.002-0.001l-1.863-1.902c-0.001-0.001-0.002-0.002-0.003-0.003l-0.001-0.001c-0.005-0.005-0.012-0.007-0.017-0.012  c-0.043-0.04-0.091-0.074-0.144-0.098c-0.025-0.011-0.053-0.012-0.079-0.018c-0.036-0.01-0.071-0.021-0.108-0.022  c-0.043-0.001-0.086,0.011-0.127,0.021c-0.021,0.005-0.042,0.003-0.062,0.011l-2.863,1.102L72.1,71.347l-1.24-2.736v-0.001  l-0.006-0.011c-0.008-0.02-0.024-0.032-0.035-0.05c-0.022-0.037-0.045-0.074-0.076-0.104c-0.018-0.017-0.039-0.026-0.06-0.04  c-0.032-0.023-0.064-0.048-0.103-0.062c-0.024-0.01-0.051-0.01-0.076-0.016c-0.035-0.008-0.068-0.021-0.105-0.021h-2.656  c-0.037,0-0.069,0.014-0.104,0.021c-0.026,0.005-0.053,0.006-0.078,0.016c-0.039,0.015-0.07,0.039-0.104,0.062  c-0.02,0.014-0.041,0.023-0.059,0.04c-0.031,0.03-0.054,0.068-0.076,0.106c-0.012,0.017-0.027,0.029-0.035,0.048l-0.006,0.011v0.001  l-1.241,2.737l-2.092,0.863l-2.814-1.096h-0.001l-0.006-0.003c-0.021-0.009-0.044-0.007-0.066-0.012  c-0.04-0.01-0.08-0.021-0.121-0.021c-0.036,0.001-0.07,0.013-0.105,0.021c-0.027,0.007-0.056,0.008-0.082,0.019  c-0.041,0.018-0.076,0.046-0.111,0.073c-0.016,0.013-0.034,0.019-0.049,0.033l-1.906,1.906c-0.001,0.001-0.002,0.002-0.002,0.002  l-0.002,0.002c0,0-0.001,0-0.002,0.001v0.001l-0.002,0.002c-0.007,0.007-0.01,0.017-0.016,0.023  c-0.012,0.014-0.02,0.029-0.029,0.044c-0.021,0.028-0.045,0.054-0.059,0.086c-0.016,0.033-0.019,0.071-0.025,0.108  c-0.006,0.027-0.016,0.055-0.016,0.083c0,0.005-0.003,0.008-0.003,0.013c0,0.053,0.015,0.102,0.03,0.15  c0.002,0.009,0.001,0.017,0.004,0.024l0.002,0.004c0.002,0.005,0.003,0.01,0.005,0.015l0.165,0.429l-0.218-0.233l0.033-2.219  l2.128-2.201c0.017-0.018,0.023-0.039,0.037-0.059c0.023-0.031,0.05-0.062,0.064-0.098c0.002-0.003,0.002-0.005,0.004-0.008  c0.011-0.027,0.011-0.058,0.017-0.087c0.007-0.031,0.018-0.062,0.019-0.094v-0.004v-0.001c0-0.001,0-0.002,0-0.002  c-0.001-0.023-0.01-0.045-0.014-0.067c-0.006-0.044-0.01-0.089-0.028-0.13l-1.011-2.487c-0.01-0.025-0.029-0.044-0.043-0.066  c-0.02-0.03-0.034-0.062-0.059-0.088c-0.025-0.026-0.057-0.044-0.086-0.063c-0.023-0.017-0.043-0.035-0.069-0.047  c-0.042-0.02-0.087-0.026-0.132-0.033c-0.018-0.003-0.032-0.012-0.051-0.013l-0.013-0.001c-0.003,0-0.005,0-0.008,0l-3.024-0.146  l-1.598-1.632l-0.037-3.002c0-0.024-0.011-0.045-0.015-0.068c-0.006-0.039-0.009-0.079-0.024-0.116  c-0.013-0.03-0.033-0.054-0.051-0.08s-0.031-0.056-0.055-0.079c-0.031-0.032-0.071-0.055-0.111-0.077  c-0.016-0.009-0.026-0.023-0.044-0.031l-0.007-0.003c0,0,0,0-0.001,0l-2.488-1.089l0,0l-0.004-0.002  c-0.021-0.009-0.042-0.008-0.063-0.014c-0.041-0.012-0.081-0.026-0.123-0.026c-0.047-0.002-0.09,0.01-0.135,0.021  c-0.015,0.003-0.03,0.002-0.045,0.007l1.654-0.673l2.851,1.097c0.003,0.001,0.005,0.002,0.007,0.003L56,60.209  c0.014,0.005,0.026,0.004,0.039,0.008c0.047,0.014,0.094,0.029,0.141,0.029c0.039,0,0.076-0.016,0.113-0.025  c0.047-0.012,0.091-0.029,0.134-0.055c0.019-0.01,0.034-0.02,0.052-0.033c0.016-0.013,0.035-0.019,0.051-0.033l1.866-1.828h0.001  l0.008-0.008c0.002-0.002,0.003-0.005,0.005-0.007c0.001-0.001,0.001-0.001,0.001-0.001c0.003-0.004,0.004-0.008,0.008-0.012  c0.01-0.01,0.014-0.023,0.023-0.034c0.025-0.033,0.053-0.064,0.069-0.103c0.013-0.03,0.016-0.062,0.022-0.094  c0.008-0.031,0.019-0.061,0.02-0.093c0.002-0.042-0.01-0.084-0.02-0.126c-0.004-0.02-0.002-0.04-0.01-0.061l-0.003-0.01  c-0.001-0.001-0.001-0.002-0.001-0.002l-1.06-2.887l0.897-2.061l2.762-1.235c0.006-0.003,0.013-0.005,0.02-0.009l0,0l0,0l0,0  c0.001,0,0.002-0.001,0.002-0.001l0.009-0.004c0.013-0.006,0.021-0.017,0.033-0.023c0.04-0.022,0.079-0.043,0.118-0.077  c0.003-0.004,0.005-0.009,0.008-0.013c0.009-0.009,0.013-0.021,0.02-0.03c0.024-0.031,0.048-0.063,0.065-0.098  c0.003-0.006,0.008-0.01,0.011-0.016c0.003-0.007,0.004-0.014,0.008-0.02c0.001-0.004,0.001-0.009,0.002-0.014  c0.021-0.052,0.036-0.104,0.036-0.161c0-0.007-0.004-0.014-0.005-0.021l0.039-2.665v-0.002v-0.005c0-0.02-0.008-0.036-0.01-0.055  c-0.005-0.046-0.01-0.091-0.025-0.134c-0.012-0.029-0.031-0.052-0.049-0.078c-0.018-0.028-0.031-0.059-0.055-0.084  c-0.004-0.004-0.009-0.008-0.014-0.012c0-0.001-0.001-0.003-0.002-0.004c-0.011-0.01-0.025-0.014-0.036-0.023  c-0.021-0.017-0.042-0.031-0.065-0.045c-0.014-0.008-0.022-0.021-0.037-0.027l-0.004-0.002c-0.002,0-0.002-0.001-0.004-0.001  l-2.74-1.243l-0.865-2.128l1.133-2.812c0-0.003,0.002-0.005,0.002-0.008l0.001-0.001c0.005-0.014,0.003-0.028,0.008-0.042  c0.003-0.012,0.005-0.024,0.007-0.036c0.008-0.035,0.02-0.069,0.02-0.104l0.002-0.007v-0.003c-0.001-0.023-0.01-0.044-0.014-0.067  c-0.002-0.012-0.004-0.023-0.007-0.035c-0.006-0.024-0.005-0.05-0.015-0.074c-0.008-0.021-0.022-0.036-0.033-0.054  c-0.008-0.015-0.018-0.027-0.027-0.041c-0.015-0.022-0.023-0.049-0.043-0.069l-1.875-1.953c-0.034-0.034-0.074-0.056-0.115-0.079  c-0.016-0.009-0.027-0.023-0.044-0.03c-0.054-0.024-0.11-0.035-0.167-0.039c-0.008-0.001-0.014-0.004-0.02-0.004  c-0.066-0.003-0.134,0.009-0.197,0.032l-1.996,0.769l1.188-2.692l2.093-0.897l2.857,1.099c0.059,0.022,0.12,0.033,0.18,0.033  c0.087,0,0.17-0.031,0.248-0.076c0.018-0.01,0.033-0.02,0.051-0.033c0.016-0.012,0.036-0.019,0.051-0.033l1.914-1.875l0,0  c0.004-0.003,0.008-0.004,0.011-0.007c0.023-0.026,0.036-0.058,0.054-0.087c0.015-0.023,0.034-0.042,0.045-0.066  c0.002-0.004,0.002-0.008,0.004-0.012c0.014-0.033,0.015-0.065,0.021-0.099c0.005-0.026,0.015-0.05,0.016-0.077  c0-0.002,0.001-0.004,0.001-0.004v-0.005c0-0.025-0.01-0.048-0.014-0.072c-0.005-0.032-0.007-0.064-0.018-0.095  c-0.002-0.006-0.001-0.011-0.003-0.016l-0.001-0.001v-0.001l-1.099-2.82l0.866-2.13l2.773-1.241c0.001,0,0.002-0.001,0.004-0.002  l0.007-0.003c0.017-0.007,0.027-0.021,0.043-0.03c0.003-0.002,0.005-0.004,0.009-0.006c0.035-0.02,0.072-0.036,0.102-0.063  c0.029-0.032,0.047-0.07,0.066-0.106c0.013-0.022,0.029-0.041,0.039-0.064c0.016-0.039,0.019-0.08,0.024-0.121  c0.003-0.022,0.013-0.042,0.013-0.064v-0.01v-0.001v-2.674v-0.001v-0.01c0-0.022-0.01-0.042-0.013-0.064  c-0.006-0.041-0.009-0.082-0.024-0.121c-0.014-0.031-0.035-0.057-0.054-0.086c-0.017-0.025-0.028-0.053-0.05-0.074  c-0.032-0.033-0.072-0.057-0.112-0.08c-0.016-0.009-0.026-0.023-0.043-0.03l-0.007-0.003c-0.002-0.001-0.003-0.002-0.004-0.002  l-2.773-1.241l-0.865-2.13l1.096-2.775c0-0.001,0-0.002,0.001-0.003v-0.001v-0.001l0.001-0.001c0.002-0.006,0.001-0.011,0.003-0.016  c0.02-0.055,0.032-0.11,0.032-0.169c0-0.003-0.001-0.005-0.001-0.005c0-0.025-0.01-0.047-0.014-0.07  c-0.006-0.041-0.01-0.082-0.026-0.12c-0.018-0.04-0.046-0.073-0.073-0.108c-0.013-0.016-0.018-0.034-0.032-0.049l-1.914-1.914  c-0.019-0.019-0.043-0.027-0.063-0.042c-0.03-0.022-0.06-0.048-0.095-0.062c-0.032-0.015-0.067-0.017-0.102-0.023  c-0.028-0.006-0.056-0.017-0.086-0.017c-0.041-0.001-0.08,0.011-0.121,0.02c-0.021,0.006-0.045,0.004-0.066,0.012l-2.857,1.099  l-2.094-0.897l-1.244-2.781l0,0l-0.004-0.009c-0.01-0.021-0.027-0.035-0.039-0.054c-0.021-0.035-0.042-0.072-0.071-0.101  c-0.024-0.023-0.054-0.037-0.081-0.055c-0.026-0.017-0.049-0.037-0.078-0.05c-0.042-0.016-0.086-0.021-0.131-0.025  c-0.02-0.003-0.037-0.012-0.057-0.012h-0.008c-0.001,0-0.002,0-0.002,0h-2.637h-0.001h-0.009c-0.02,0-0.037,0.009-0.056,0.012  c-0.045,0.005-0.09,0.01-0.131,0.025c-0.028,0.012-0.05,0.032-0.076,0.048c-0.029,0.019-0.06,0.032-0.084,0.057  c-0.029,0.028-0.048,0.063-0.07,0.099c-0.012,0.02-0.03,0.033-0.04,0.056l-0.004,0.009l0,0l-1.244,2.781l-2.095,0.897l-2.857-1.099  c-0.021-0.008-0.043-0.006-0.065-0.011c-0.041-0.01-0.081-0.021-0.123-0.021c-0.031,0-0.06,0.011-0.09,0.018  c-0.033,0.006-0.065,0.009-0.096,0.021c-0.041,0.018-0.075,0.046-0.11,0.073c-0.015,0.013-0.034,0.018-0.048,0.032l-0.006,0.006  c0,0-0.001,0.001-0.002,0.002l-1.906,1.906c-0.015,0.015-0.02,0.033-0.032,0.049c-0.01,0.012-0.018,0.025-0.026,0.038  c-0.018,0.026-0.039,0.05-0.051,0.078l0,0.004c-0.024,0.058-0.04,0.119-0.04,0.184c0,0.051,0.016,0.101,0.032,0.149  c0.004,0.012,0.002,0.023,0.006,0.035l0.001,0.003l0.001,0.003l0.302,0.764l-0.745-0.799v-2.257l2.116-2.189h0l0.008-0.009  c0.017-0.017,0.023-0.039,0.037-0.057c0.023-0.033,0.049-0.063,0.064-0.1c0.001-0.004,0.003-0.006,0.005-0.01  c0.011-0.027,0.01-0.056,0.016-0.084c0-0.001,0-0.002,0-0.002c0.006-0.031,0.017-0.061,0.017-0.092l0.001-0.011  c0-0.026-0.011-0.052-0.016-0.079c-0.002-0.012-0.004-0.023-0.007-0.035c-0.005-0.021-0.003-0.043-0.011-0.063l-0.977-2.461  c-0.009-0.021-0.025-0.036-0.036-0.056c-0.021-0.036-0.039-0.072-0.067-0.103c-0.021-0.021-0.047-0.035-0.071-0.053  c-0.028-0.021-0.053-0.044-0.085-0.058c-0.035-0.016-0.073-0.021-0.11-0.028c-0.024-0.005-0.046-0.017-0.071-0.018l-3.085-0.147  L37.498,9.34l-0.037-3.068V6.271V6.26c0-0.023-0.011-0.043-0.014-0.066c-0.006-0.04-0.01-0.081-0.025-0.118  c-0.012-0.03-0.034-0.055-0.052-0.081c-0.017-0.026-0.031-0.055-0.053-0.078c-0.034-0.034-0.075-0.059-0.118-0.082  c-0.014-0.008-0.023-0.02-0.038-0.026l-0.005-0.002c-0.001-0.001-0.002-0.001-0.003-0.002l-2.409-1.049c0,0-0.001-0.001-0.001-0.001  l-0.003-0.001c-0.021-0.01-0.044-0.009-0.066-0.015c-0.04-0.011-0.079-0.025-0.12-0.026c-0.046-0.001-0.09,0.011-0.135,0.021  c-0.018,0.005-0.037,0.004-0.055,0.011c-0.054,0.02-0.102,0.052-0.146,0.09c-0.006,0.005-0.013,0.006-0.019,0.012l-0.001,0.002  c-0.001,0-0.002,0.002-0.003,0.002l-2.234,2.088h-2.296l-2.192-2.119c0,0-0.001-0.001-0.002-0.002l-0.004-0.004  c-0.013-0.012-0.029-0.017-0.043-0.027c-0.038-0.029-0.075-0.059-0.119-0.076c-0.024-0.01-0.051-0.01-0.077-0.016  c-0.037-0.008-0.073-0.02-0.111-0.02c-0.04,0-0.078,0.013-0.116,0.021c-0.023,0.006-0.047,0.004-0.07,0.014l-0.007,0.003h0  l-2.492,1.013c-0.029,0.012-0.049,0.033-0.075,0.05c-0.029,0.019-0.062,0.032-0.086,0.057c-0.021,0.021-0.033,0.046-0.05,0.069  c-0.021,0.029-0.045,0.056-0.06,0.089c-0.017,0.04-0.022,0.083-0.028,0.126c-0.003,0.021-0.013,0.039-0.014,0.061v0.005v0.001  l-0.073,2.997l-1.626,1.626h-3.027c-0.001,0-0.003,0-0.004,0h-0.003c-0.011,0-0.021,0.006-0.031,0.006  c-0.055,0.004-0.108,0.012-0.158,0.032c-0.023,0.01-0.041,0.027-0.062,0.04c-0.034,0.02-0.069,0.037-0.097,0.065  c-0.033,0.032-0.055,0.072-0.079,0.112c-0.009,0.016-0.023,0.027-0.03,0.044l-0.002,0.004c0,0,0,0.002-0.001,0.003l-1.091,2.493  l0,0.002c-0.026,0.061-0.04,0.125-0.042,0.19c0,0.015,0.006,0.028,0.007,0.043c-0.001,0.014-0.006,0.025-0.006,0.039l-0.001,0.004  c0,0.024,0.011,0.045,0.014,0.068c0.006,0.04,0.009,0.08,0.024,0.118c0.017,0.042,0.044,0.076,0.071,0.11  c0.012,0.017,0.018,0.036,0.032,0.051l0.006,0.006l0,0l2.116,2.189l-0.033,2.211l-2.161,2.197c0,0,0,0-0.001,0l-0.002,0.003  c-0.01,0.01-0.013,0.023-0.022,0.034c-0.033,0.039-0.064,0.08-0.083,0.128c-0.012,0.029-0.013,0.061-0.019,0.092  c-0.007,0.031-0.018,0.062-0.019,0.094l0,0.003v0.076c0,0,0,0,0,0.001v0.001c0,0.012,0.006,0.021,0.007,0.032  c0.003,0.054,0.01,0.108,0.032,0.161l1.001,2.387l0.012,0.03l0.001,0.001l0.001,0.004c0.002,0.004,0.007,0.006,0.009,0.011  c0.009,0.021,0.023,0.036,0.035,0.055c0.017,0.027,0.03,0.058,0.052,0.081c0.005,0.006,0.011,0.009,0.016,0.014  c0.001,0.002,0.001,0.004,0.003,0.005c0.011,0.011,0.026,0.015,0.038,0.024c0.003,0.003,0.007,0.005,0.011,0.008  c0.009,0.007,0.014,0.021,0.023,0.027c0.007,0.004,0.017,0.003,0.024,0.008c0.014,0.008,0.025,0.02,0.04,0.026  c0.007,0.003,0.014,0.005,0.021,0.007c0.015,0.007,0.032,0.007,0.048,0.012c0.014,0.004,0.029,0.006,0.044,0.01  c0.025,0.005,0.048,0.018,0.075,0.019l0.009,0.001c0.001,0,0.001,0,0.002,0H19.231z M20.866,19.201l0.001-0.002l0.005-0.005  c0.012-0.013,0.016-0.028,0.026-0.041c0.03-0.037,0.06-0.074,0.078-0.119c0.014-0.034,0.017-0.069,0.023-0.105  c0.004-0.026,0.016-0.05,0.017-0.077l0.039-2.617c0-0.002-0.001-0.003-0.001-0.003l0.001-0.005v-0.078  c0-0.02-0.009-0.035-0.011-0.054c-0.012-0.106-0.049-0.211-0.129-0.294l-2.033-2.103l0.828-1.894h2.916  c0.065,0,0.13-0.014,0.191-0.039c0.062-0.025,0.117-0.062,0.163-0.107l1.914-1.914c0.013-0.013,0.018-0.029,0.029-0.044  c0.029-0.036,0.058-0.071,0.077-0.114c0.015-0.035,0.018-0.071,0.024-0.107c0.005-0.025,0.017-0.049,0.017-0.076l0.07-2.875  l1.894-0.77l2.104,2.033l0,0l0.006,0.006c0.018,0.018,0.041,0.024,0.06,0.039c0.032,0.023,0.062,0.049,0.099,0.063  c0.061,0.024,0.124,0.038,0.188,0.038h2.695c0.063,0,0.127-0.014,0.187-0.037c0.03-0.013,0.055-0.034,0.082-0.052  c0.024-0.016,0.051-0.025,0.073-0.046l2.143-2.002l1.824,0.794L36.5,9.553c0,0.024,0.011,0.045,0.015,0.068  c0.006,0.039,0.009,0.079,0.024,0.116c0.017,0.04,0.044,0.073,0.07,0.108c0.013,0.016,0.019,0.035,0.033,0.051l1.875,1.914  c0.017,0.018,0.038,0.024,0.057,0.038c0.031,0.024,0.061,0.05,0.098,0.066c0.036,0.016,0.073,0.021,0.11,0.027  c0.023,0.005,0.044,0.017,0.069,0.018l2.959,0.141l0.738,1.859l-2.034,2.069c0,0,0,0-0.001,0l-0.002,0.003  c-0.01,0.01-0.013,0.023-0.022,0.034c-0.033,0.039-0.064,0.08-0.083,0.128c-0.018,0.044-0.022,0.09-0.027,0.137  c-0.002,0.018-0.011,0.033-0.011,0.052v0.039v2.656c0,0.025,0.011,0.048,0.015,0.072c0.005,0.037,0.008,0.074,0.022,0.11  c0.015,0.037,0.039,0.067,0.062,0.1c0.013,0.019,0.02,0.041,0.036,0.059l1.967,2.107l-0.801,1.899l-2.915,0.035  c-0.022,0-0.041,0.01-0.062,0.014c-0.008,0.001-0.017,0.003-0.025,0.004c-0.03,0.006-0.061,0.007-0.089,0.018  c-0.003,0.002-0.006,0.002-0.008,0.004c-0.002,0-0.004,0.001-0.006,0.002c-0.033,0.014-0.059,0.038-0.088,0.059  c-0.02,0.015-0.043,0.021-0.061,0.039l-1.914,1.837c-0.001,0.001-0.001,0.002-0.002,0.003c-0.038,0.037-0.066,0.083-0.091,0.131  c-0.003,0.006-0.008,0.011-0.012,0.017c-0.002,0.005-0.006,0.009-0.008,0.014c-0.007,0.017-0.006,0.036-0.012,0.053  c-0.009,0.03-0.017,0.062-0.02,0.093c-0.001,0.012-0.008,0.021-0.008,0.033l0,0.007v0.001l-0.105,2.979l-1.889,0.708l-2.074-2.039  c0,0,0,0-0.001,0l-0.002-0.003c-0.01-0.011-0.024-0.014-0.035-0.022c-0.039-0.033-0.079-0.063-0.126-0.083  c-0.05-0.021-0.103-0.027-0.155-0.031c-0.012-0.001-0.022-0.007-0.034-0.007h-0.003c-0.001,0-0.002,0-0.003,0h-2.689  c-0.026,0-0.048,0.011-0.073,0.015c-0.036,0.005-0.072,0.009-0.107,0.021c-0.036,0.015-0.066,0.037-0.097,0.06  c-0.02,0.013-0.043,0.02-0.061,0.036l-2.148,1.972l-1.861-0.768l-0.035-2.873c0-0.012-0.006-0.021-0.007-0.033  c0.001-0.012,0.006-0.023,0.006-0.037l0-0.002c0-0.019-0.009-0.034-0.011-0.053c-0.005-0.046-0.009-0.092-0.027-0.136  s-0.048-0.082-0.077-0.119c-0.011-0.014-0.015-0.029-0.027-0.042l-0.003-0.004c0,0,0,0-0.001,0l-1.871-1.91  c0,0-0.001-0.001-0.002-0.002c-0.023-0.022-0.054-0.037-0.081-0.056c-0.025-0.017-0.046-0.038-0.074-0.05  c-0.002-0.001-0.003-0.003-0.005-0.004c-0.041-0.017-0.084-0.021-0.127-0.026c-0.019-0.003-0.036-0.013-0.056-0.013l-2.915-0.07  l-0.769-1.892L20.866,19.201z M44.311,17.396l2.744,1.055c0.059,0.022,0.12,0.033,0.18,0.033c0.066,0,0.133-0.013,0.197-0.04  l2.461-1.055c0.017-0.007,0.028-0.021,0.043-0.03c0.02-0.011,0.035-0.023,0.053-0.037c0.062-0.046,0.112-0.102,0.146-0.169  c0.004-0.008,0.013-0.011,0.017-0.02l1.196-2.673h2.008l1.195,2.673c0.004,0.009,0.014,0.012,0.018,0.02  c0.034,0.067,0.084,0.123,0.146,0.169c0.018,0.014,0.033,0.026,0.053,0.037c0.016,0.009,0.026,0.023,0.043,0.03l2.461,1.055  c0.064,0.027,0.131,0.04,0.197,0.04c0.06,0,0.121-0.011,0.18-0.033l2.744-1.055l1.451,1.451l-1.047,2.653l0,0l-0.004,0.011  c-0.008,0.021-0.006,0.041-0.012,0.062c-0.01,0.042-0.021,0.082-0.021,0.125c0,0.038,0.012,0.072,0.02,0.108  c0.006,0.025,0.005,0.052,0.016,0.077l1.016,2.5c0.002,0.006,0.008,0.008,0.01,0.013c0.033,0.074,0.087,0.136,0.152,0.187  c0.02,0.015,0.035,0.026,0.055,0.038c0.016,0.009,0.025,0.023,0.042,0.03l2.673,1.196v2.047l-2.656,1.189  c-0.002,0-0.003,0.001-0.004,0.001c-0.002,0.001-0.004,0.002-0.006,0.003l-0.007,0.003c-0.015,0.007-0.024,0.019-0.038,0.026  c-0.016,0.009-0.029,0.02-0.043,0.029c-0.021,0.016-0.047,0.025-0.065,0.044c-0.003,0.003-0.005,0.008-0.009,0.011  c-0.02,0.021-0.03,0.045-0.046,0.068c-0.024,0.033-0.05,0.064-0.063,0.104l-0.007,0.016l-1.001,2.387  c-0.031,0.075-0.038,0.152-0.032,0.229c-0.001,0.012-0.005,0.023-0.005,0.036l-0.002,0.007v0.003  c0.001,0.038,0.014,0.074,0.022,0.11c0.005,0.023,0.003,0.046,0.012,0.068l0.005,0.013v0.001l1.047,2.686l-1.449,1.42l-2.734-1.052  c-0.001-0.001-0.002-0.001-0.004-0.002l-0.002-0.001c0,0-0.002,0-0.002-0.001l-0.004-0.001c-0.012-0.005-0.025-0.003-0.037-0.006  c-0.05-0.016-0.1-0.027-0.152-0.027c-0.049,0.002-0.096,0.016-0.141,0.03c-0.016,0.005-0.031,0.003-0.047,0.01L57.268,35.3  c-0.001,0.001-0.002,0.001-0.004,0.001l-2.453,1.052c-0.022,0.01-0.038,0.028-0.059,0.041c-0.023,0.015-0.049,0.025-0.069,0.044  c-0.005,0.004-0.011,0.005-0.015,0.009s-0.006,0.009-0.01,0.013c-0.026,0.025-0.043,0.057-0.062,0.088  c-0.002,0.003-0.005,0.006-0.007,0.009c-0.011,0.019-0.027,0.03-0.036,0.051l-0.002,0.003v0.001l-0.008,0.016l-1.186,2.616h-2.012  l-1.186-2.616l-0.007-0.016l0-0.001l-0.001-0.003c-0.005-0.012-0.016-0.02-0.022-0.03c-0.015-0.027-0.032-0.051-0.052-0.075  c-0.011-0.014-0.016-0.03-0.028-0.042h0c-0.003-0.005-0.004-0.01-0.008-0.014s-0.009-0.004-0.012-0.008l-0.057-0.057  c0-0.001-0.001-0.001-0.001-0.001c-0.016-0.015-0.036-0.022-0.052-0.034c-0.071-0.055-0.151-0.088-0.235-0.099  c-0.008-0.002-0.015-0.003-0.023-0.005l0,0l-2.219-0.939c-0.002-0.002-0.005-0.002-0.007-0.004h-0.001h0l-0.002-0.001  c-0.002-0.001-0.004-0.001-0.006-0.001c-0.022-0.01-0.045-0.01-0.068-0.016c-0.036-0.01-0.071-0.022-0.109-0.023  c-0.069-0.002-0.137,0.01-0.2,0.036c-0.002,0.001-0.005,0.002-0.007,0.003l-2.73,1.051l-1.449-1.42l1.047-2.686v-0.001l0.005-0.013  c0.009-0.022,0.006-0.045,0.012-0.068c0.009-0.036,0.021-0.072,0.022-0.11l0-0.003v-0.076V31.97v-0.001  c0-0.012-0.006-0.02-0.006-0.031c-0.003-0.054-0.01-0.109-0.033-0.162l-1.001-2.387l-0.012-0.028  c-0.016-0.042-0.046-0.079-0.074-0.116c-0.01-0.013-0.016-0.028-0.027-0.04c-0.005-0.006-0.007-0.013-0.012-0.019  c-0.047-0.047-0.105-0.081-0.168-0.104l-2.651-1.187v-2.047l2.673-1.196c0.017-0.007,0.027-0.021,0.042-0.03  c0.02-0.012,0.036-0.023,0.054-0.038c0.066-0.051,0.119-0.112,0.152-0.187c0.002-0.005,0.008-0.007,0.011-0.013l1.016-2.5  c0.01-0.025,0.009-0.052,0.015-0.077c0.008-0.036,0.02-0.07,0.021-0.108c0-0.043-0.012-0.083-0.022-0.125  c-0.005-0.021-0.003-0.041-0.011-0.062l-0.004-0.011h0l-1.047-2.653L44.311,17.396z M56.244,40.172l1.422,1.48l-1.091,2.708  c-0.009,0.021-0.007,0.042-0.012,0.063c-0.011,0.041-0.023,0.081-0.022,0.124c0,0.04,0.012,0.077,0.021,0.115  c0.007,0.024,0.005,0.049,0.015,0.072l1.016,2.5c0.002,0.006,0.009,0.009,0.011,0.015c0.034,0.073,0.087,0.134,0.152,0.185  c0.018,0.015,0.033,0.026,0.052,0.038c0.016,0.009,0.025,0.021,0.041,0.029l2.632,1.193l-0.029,2.041l-2.667,1.123l0,0  c-0.041,0.017-0.073,0.045-0.107,0.072c-0.016,0.012-0.035,0.019-0.049,0.032c-0.002,0.002-0.004,0.004-0.006,0.006  c-0.021,0.021-0.033,0.048-0.049,0.073c-0.02,0.027-0.043,0.053-0.057,0.085l-0.002,0.003c0,0,0,0.001,0,0.002l-1.047,2.48  l-0.004,0.008l0,0l-0.002,0.005c0,0.001,0,0.001,0,0.002c-0.015,0.036-0.018,0.073-0.024,0.112  c-0.004,0.021-0.013,0.042-0.013,0.064v0.004c-0.001,0.002-0.002,0.004-0.002,0.007c0,0-0.002,0.007-0.002,0.01  c0,0.044,0.014,0.089,0.027,0.134c0.004,0.012,0.002,0.022,0.006,0.033l0.003,0.01c0.001,0.001,0.001,0.002,0.001,0.002  c0,0.002,0.002,0.004,0.002,0.007l1.016,2.765L56.06,59.16l-2.747-1.057c-0.023-0.009-0.047-0.007-0.07-0.012  c-0.033-0.008-0.064-0.02-0.099-0.021c-0.004,0-0.009,0.001-0.013,0.001c-0.039,0-0.076,0.012-0.113,0.021  c-0.021,0.005-0.041,0.002-0.061,0.01l-0.026,0.01c-0.001,0.001-0.001,0.001-0.001,0.001l-2.473,0.927  c-0.003,0.001-0.005,0.004-0.008,0.005c-0.036,0.014-0.065,0.037-0.097,0.06c-0.02,0.014-0.042,0.021-0.061,0.038  c-0.002,0.003-0.004,0.006-0.007,0.008c-0.025,0.023-0.041,0.055-0.06,0.084c-0.015,0.022-0.036,0.042-0.047,0.066l0,0.001  l-0.005,0.011c0,0,0,0.001,0,0.001l-1.189,2.624h-2.047l-1.146-2.604l-0.006-0.015c-0.001-0.004-0.003-0.007-0.005-0.011  l-0.001-0.002c-0.002-0.006-0.008-0.01-0.011-0.016c-0.014-0.028-0.034-0.054-0.054-0.08c-0.011-0.016-0.018-0.033-0.032-0.048  c-0.005-0.005-0.006-0.013-0.012-0.018c-0.034-0.032-0.076-0.054-0.118-0.074c-0.01-0.006-0.017-0.016-0.028-0.021l-2.461-1.094  c-0.028-0.012-0.057-0.012-0.086-0.02c-0.035-0.008-0.068-0.021-0.104-0.022c-0.044-0.001-0.085,0.011-0.127,0.021  c-0.022,0.005-0.044,0.003-0.065,0.011l-2.74,1.054l-1.418-1.448l1.088-2.771c0.025-0.06,0.038-0.123,0.04-0.187  c0-0.001,0-0.001,0-0.001l0.001-0.008c0-0.004-0.002-0.007-0.002-0.007c0-0.017-0.006-0.03-0.008-0.044  c-0.005-0.051-0.012-0.101-0.033-0.148l-1.011-2.489c0,0-0.001-0.002-0.002-0.003c-0.012-0.029-0.034-0.051-0.05-0.077  c-0.018-0.027-0.031-0.057-0.054-0.08c-0.001-0.001-0.002-0.004-0.003-0.005c-0.016-0.017-0.038-0.024-0.056-0.038  c-0.015-0.011-0.03-0.021-0.046-0.031c-0.018-0.011-0.032-0.027-0.052-0.036l-2.663-1.156l0.029-2.068l2.699-1.087  c0.021-0.009,0.034-0.024,0.053-0.035c0.02-0.011,0.037-0.022,0.056-0.036c0.071-0.055,0.131-0.118,0.165-0.198c0,0,0,0,0,0  l1.055-2.5c0-0.001,0-0.003,0-0.003c0.003-0.008,0.002-0.016,0.005-0.022c0.004-0.013,0.004-0.024,0.007-0.036  c0.011-0.041,0.024-0.081,0.025-0.124c0-0.04-0.01-0.078-0.019-0.117c-0.005-0.022-0.003-0.045-0.011-0.067l-0.005-0.012v-0.002  l-1.015-2.692l1.456-1.456l2.704,1.054c0.06,0.023,0.121,0.034,0.182,0.034c0.059,0,0.118-0.01,0.176-0.032l2.5-0.938  c0.022-0.009,0.038-0.025,0.058-0.036c0.021-0.012,0.039-0.021,0.058-0.036c0.07-0.052,0.129-0.114,0.164-0.191l0.002-0.002  l1.192-2.7l2.077,0.062l1.124,2.705c0.004,0.01,0.015,0.015,0.02,0.024c0.033,0.067,0.082,0.125,0.144,0.173  c0.016,0.012,0.028,0.025,0.045,0.035c0.011,0.007,0.018,0.018,0.029,0.023l0.156,0.078c0.004,0.002,0.009,0.001,0.014,0.003  c0.007,0.003,0.013,0.009,0.02,0.012c0.001,0,0.001,0.001,0.002,0.001l2.305,0.938c0.062,0.025,0.126,0.037,0.188,0.037  c0.06,0,0.121-0.011,0.18-0.033L56.244,40.172z M53.652,61.672l0.035,2.881c0,0.024,0.011,0.045,0.015,0.068  c0.006,0.039,0.009,0.079,0.024,0.116c0.018,0.04,0.044,0.073,0.07,0.108c0.013,0.016,0.019,0.035,0.033,0.051l1.875,1.914  c0.018,0.018,0.039,0.024,0.058,0.039c0.031,0.023,0.061,0.049,0.097,0.065c0.035,0.016,0.072,0.021,0.11,0.027  c0.023,0.005,0.044,0.017,0.069,0.018l2.922,0.141l0.771,1.897l-2.031,2.031c-0.046,0.046-0.082,0.102-0.107,0.162  c-0.025,0.062-0.039,0.127-0.039,0.191v0.07l-0.039,2.617c0,0.022,0.01,0.042,0.012,0.064c0.005,0.041,0.008,0.083,0.023,0.123  c0.015,0.039,0.04,0.07,0.064,0.104c0.013,0.02,0.019,0.041,0.035,0.058l2.009,2.158l-0.235,0.551l-0.567,1.302l-2.962,0.07  c-0.025,0-0.047,0.012-0.071,0.016c-0.034,0.006-0.069,0.009-0.103,0.021c-0.005,0.002-0.01,0.004-0.014,0.006  c-0.03,0.013-0.054,0.035-0.08,0.054c-0.002,0.001-0.002,0.001-0.004,0.002c-0.021,0.015-0.044,0.022-0.062,0.04l-1.914,1.837  c-0.002,0.001-0.002,0.002-0.003,0.003c-0.038,0.037-0.066,0.084-0.091,0.132c-0.006,0.011-0.016,0.019-0.02,0.029  c-0.008,0.017-0.007,0.036-0.012,0.053c-0.012,0.04-0.024,0.079-0.026,0.12c0,0.004-0.003,0.008-0.003,0.008l-0.07,2.947  l-1.887,0.708l-2.111-2.04l0,0l-0.006-0.006c-0.014-0.014-0.033-0.02-0.048-0.031c-0.036-0.027-0.071-0.055-0.113-0.072  c-0.033-0.013-0.068-0.014-0.103-0.02c-0.028-0.006-0.054-0.018-0.084-0.018h-2.695c-0.026,0-0.048,0.011-0.073,0.015  c-0.036,0.005-0.072,0.009-0.107,0.021c-0.036,0.015-0.066,0.037-0.097,0.06c-0.02,0.013-0.043,0.02-0.061,0.036l-2.146,1.971  l-1.824-0.765l-0.035-2.875c0-0.012-0.006-0.022-0.007-0.034c0.006-0.078-0.001-0.155-0.031-0.229  c-0.025-0.061-0.062-0.116-0.108-0.162l-1.913-1.914c-0.022-0.022-0.053-0.035-0.08-0.054c-0.025-0.017-0.046-0.038-0.074-0.05  c-0.003-0.002-0.006-0.003-0.009-0.004c-0.035-0.015-0.071-0.017-0.107-0.023c-0.024-0.004-0.046-0.016-0.071-0.016l-2.915-0.07  l-0.77-1.895l2.03-2.101h0l0.008-0.009c0.014-0.015,0.02-0.033,0.032-0.05c0.026-0.034,0.053-0.068,0.07-0.109  c0.014-0.032,0.016-0.066,0.022-0.101c0.005-0.027,0.017-0.052,0.017-0.08l0.039-2.617c0-0.002-0.001-0.003-0.001-0.003l0.001-0.005  v-0.078c0-0.022-0.01-0.041-0.013-0.062c-0.005-0.041-0.01-0.083-0.026-0.123c-0.002-0.005-0.006-0.009-0.009-0.014  c-0.022-0.051-0.047-0.1-0.087-0.142l-1.97-2.11l0.769-1.893h2.944c0.065,0,0.13-0.014,0.191-0.039  c0.062-0.025,0.117-0.062,0.163-0.107l1.875-1.875c0.013-0.014,0.019-0.03,0.03-0.045c0.028-0.034,0.055-0.068,0.073-0.11  c0.013-0.029,0.016-0.062,0.023-0.093c0.006-0.027,0.019-0.052,0.02-0.081l0.141-2.926l1.862-0.769l2.065,2.031c0,0,0,0,0.001,0  l0.002,0.003c0.012,0.011,0.026,0.016,0.039,0.025c0.006,0.005,0.013,0.008,0.019,0.013c0.017,0.012,0.031,0.023,0.049,0.033  c0.019,0.011,0.034,0.025,0.054,0.034c0.061,0.024,0.125,0.038,0.189,0.038h0.039h2.656c0.007,0,0.013-0.004,0.02-0.004  c0.005,0,0.009,0.003,0.014,0.003c0.001,0,0.003,0.001,0.005,0.001l0,0c0,0,0,0,0,0c0.063,0,0.126-0.014,0.187-0.037  c0.019-0.008,0.033-0.021,0.051-0.031c0.009-0.005,0.021-0.004,0.029-0.01c0.009-0.005,0.013-0.017,0.021-0.023  c0.017-0.012,0.037-0.019,0.053-0.033l2.103-1.963L53.652,61.672z M61.068,72.162l2.703,1.054c0.06,0.023,0.121,0.034,0.182,0.034  c0.064,0,0.129-0.012,0.19-0.038l2.462-1.016c0.018-0.007,0.029-0.021,0.045-0.03c0.021-0.012,0.037-0.023,0.056-0.037  c0.062-0.047,0.114-0.104,0.149-0.172c0.003-0.007,0.011-0.01,0.014-0.017l1.195-2.636h2.012l1.195,2.636  c0.002,0.006,0.009,0.009,0.012,0.015c0.035,0.068,0.088,0.126,0.151,0.174c0.019,0.014,0.036,0.025,0.057,0.037  c0.017,0.01,0.029,0.023,0.048,0.031l2.5,1.016c0.061,0.025,0.125,0.037,0.188,0.037c0.06,0,0.121-0.011,0.18-0.033l2.74-1.054  l1.421,1.45L77.51,76.4c-0.01,0.023-0.007,0.047-0.012,0.069c-0.009,0.038-0.021,0.076-0.02,0.116  c0.001,0.037,0.013,0.072,0.021,0.109c0.006,0.023,0.004,0.049,0.014,0.073l1.016,2.461c0.002,0.005,0.008,0.007,0.011,0.013  c0.033,0.073,0.087,0.135,0.153,0.186c0.018,0.014,0.033,0.027,0.054,0.038c0.016,0.009,0.026,0.022,0.043,0.03l2.71,1.196v2.006  l-2.693,1.188c-0.004,0.002-0.008,0.004-0.012,0.006l-0.005,0.002c-0.011,0.005-0.017,0.014-0.026,0.02  c-0.045,0.023-0.09,0.049-0.126,0.086c-0.001,0.001-0.002,0.003-0.003,0.004c-0.016,0.016-0.023,0.034-0.035,0.051  c-0.03,0.037-0.059,0.074-0.075,0.119l-1.011,2.448c-0.01,0.023-0.008,0.048-0.014,0.072c-0.01,0.037-0.021,0.073-0.021,0.112  c-0.001,0.042,0.011,0.08,0.021,0.12c0.005,0.022,0.003,0.046,0.012,0.067l1.055,2.707l-1.419,1.448l-2.74-1.054  c-0.029-0.012-0.06-0.01-0.09-0.016c-0.031-0.006-0.061-0.016-0.093-0.016c-0.042,0.001-0.08,0.013-0.12,0.023  c-0.021,0.005-0.043,0.003-0.064,0.012l-2.49,1.012c-0.002,0-0.004,0.001-0.006,0.002l-0.004,0.002  c-0.014,0.005-0.021,0.016-0.033,0.021c-0.045,0.023-0.09,0.047-0.126,0.082c-0.003,0.004-0.007,0.004-0.01,0.007  c-0.026,0.026-0.04,0.061-0.06,0.092c-0.014,0.021-0.031,0.036-0.042,0.059l-1.196,2.71h-2.004l-1.197-2.71  c-0.012-0.026-0.033-0.046-0.049-0.069c-0.018-0.027-0.029-0.059-0.053-0.081c-0.002-0.003-0.006-0.003-0.008-0.005  c-0.037-0.036-0.08-0.061-0.125-0.084c-0.012-0.006-0.02-0.016-0.031-0.021L66.6,91.114c-0.002-0.001-0.005-0.003-0.008-0.003  l-2.436-1.006c-0.002,0-0.003-0.001-0.004-0.002l-0.009-0.003c-0.015-0.007-0.03-0.005-0.046-0.009  c-0.046-0.015-0.092-0.027-0.142-0.027c-0.034,0-0.067,0.011-0.101,0.018c-0.028,0.006-0.057,0.004-0.084,0.015l-2.703,1.054  l-1.453-1.453l1.054-2.703c0.009-0.021,0.007-0.045,0.012-0.067c0.01-0.04,0.021-0.078,0.021-0.12c0-0.039-0.012-0.075-0.021-0.112  c-0.006-0.024-0.004-0.049-0.014-0.072l-0.002-0.003l-0.001-0.004l-1.013-2.454l-0.001-0.001c-0.014-0.032-0.036-0.057-0.056-0.086  c-0.016-0.022-0.027-0.048-0.047-0.068c-0.003-0.003-0.004-0.007-0.007-0.01h-0.001c-0.035-0.035-0.078-0.06-0.122-0.082  c-0.009-0.006-0.016-0.014-0.025-0.019l-0.005-0.003c-0.005-0.002-0.01-0.004-0.014-0.006l-2.654-1.188v-2.008l2.673-1.196  c0.016-0.007,0.025-0.021,0.04-0.028c0.02-0.012,0.035-0.024,0.053-0.038c0.064-0.048,0.115-0.106,0.148-0.177  c0.004-0.007,0.012-0.01,0.016-0.018l0.547-1.289l0,0c0.006-0.017,0.006-0.035,0.01-0.053c0.007-0.021,0.01-0.041,0.014-0.062  c0.002-0.012,0.007-0.024,0.008-0.037l0.131-0.307l0.344-0.787c0.002-0.004,0-0.008,0.002-0.013s0.002-0.01,0.004-0.015  c0.004-0.011,0.004-0.021,0.007-0.033c0.01-0.034,0.019-0.066,0.021-0.102c0.003-0.032-0.001-0.062-0.005-0.095  c-0.004-0.031-0.007-0.062-0.017-0.093c-0.004-0.012-0.004-0.024-0.009-0.036c-0.01-0.028-0.029-0.05-0.045-0.075  c-0.008-0.012-0.01-0.026-0.018-0.038L60.566,76.1l-0.952-2.483L61.068,72.162z M51.32,59.877c-0.004,0.003-0.01,0.004-0.014,0.008  v0.001c-0.002,0.001-0.003,0.002-0.004,0.003l-0.459,0.429l0.16-0.343l0.451-0.184C51.405,59.812,51.361,59.842,51.32,59.877z"
     id="path8" /><path
     fill="#000000"
     d="M63.538,81.735c0.001,0.011-0.003,0.021-0.001,0.032l0.195,1.328c0.003,0.021,0.014,0.04,0.02,0.061  c0.006,0.018,0.004,0.035,0.01,0.053l0.469,1.172c0.006,0.012,0.018,0.017,0.023,0.028c0.016,0.034,0.027,0.069,0.053,0.101  l0.82,1.016c0.011,0.014,0.027,0.02,0.039,0.031c0.016,0.016,0.025,0.035,0.043,0.049l1.055,0.82  c0.009,0.008,0.021,0.004,0.031,0.011c0.027,0.019,0.051,0.042,0.082,0.056L67.588,87c0.02,0.008,0.039,0.006,0.059,0.012  c0.021,0.006,0.039,0.02,0.062,0.022l1.328,0.195c0.023,0.003,0.048,0.005,0.071,0.005h0.001l0,0l0,0c0.001,0,0.001,0,0.001,0  c0.024,0,0.051-0.002,0.076-0.006l1.25-0.195c0.02-0.003,0.035-0.015,0.054-0.02c0.02-0.006,0.039-0.004,0.057-0.012l1.25-0.508  c0.033-0.014,0.059-0.037,0.087-0.057c0.01-0.008,0.022-0.004,0.032-0.012l1.055-0.82c0.021-0.016,0.032-0.039,0.05-0.058  c0.013-0.013,0.029-0.019,0.04-0.032l0.781-1.016c0.018-0.023,0.023-0.051,0.037-0.075c0.006-0.013,0.02-0.018,0.025-0.03  l0.508-1.172c0.009-0.021,0.008-0.041,0.014-0.062c0.008-0.026,0.021-0.05,0.023-0.078l0.156-1.328  c0.002-0.009-0.002-0.017-0.002-0.025c0.001-0.012,0.007-0.021,0.007-0.033s-0.006-0.021-0.007-0.033  c0-0.009,0.004-0.017,0.002-0.025l-0.156-1.328c-0.002-0.023-0.015-0.043-0.021-0.064c-0.005-0.021-0.003-0.044-0.013-0.065  l-0.508-1.25c-0.009-0.022-0.025-0.037-0.037-0.058c-0.012-0.02-0.016-0.041-0.029-0.059l-0.781-1.016  c-0.015-0.02-0.035-0.029-0.053-0.045c-0.016-0.017-0.026-0.037-0.046-0.052l-1.055-0.781c-0.016-0.012-0.034-0.014-0.05-0.023  c-0.018-0.01-0.029-0.025-0.048-0.033l-1.25-0.547c-0.025-0.011-0.052-0.011-0.077-0.017c-0.025-0.008-0.049-0.021-0.076-0.023  l-1.25-0.117c-0.016-0.001-0.03,0.006-0.046,0.006s-0.029-0.007-0.045-0.006l-1.328,0.117c-0.029,0.003-0.054,0.017-0.081,0.024  c-0.027,0.007-0.055,0.006-0.08,0.018l-1.211,0.547c-0.018,0.008-0.029,0.022-0.046,0.032c-0.015,0.01-0.032,0.012-0.047,0.022  L65.218,77.7c-0.017,0.013-0.026,0.031-0.041,0.045c-0.016,0.016-0.036,0.024-0.05,0.042l-0.82,1.016  c-0.018,0.021-0.023,0.047-0.037,0.07s-0.033,0.042-0.043,0.068l-0.469,1.25c-0.006,0.018-0.004,0.035-0.008,0.053  c-0.005,0.018-0.016,0.032-0.018,0.051l-0.195,1.328c-0.002,0.011,0.002,0.02,0.001,0.03c-0.001,0.015-0.008,0.027-0.008,0.042  C63.53,81.709,63.537,81.722,63.538,81.735z M66.814,77.762l1.092-0.423l1.202-0.177l1.126,0.176l1.134,0.426l0.935,0.691  l0.704,0.986l0.458,1.059l0.141,1.195l-0.141,1.195l-0.455,1.05l-0.703,0.915l-0.951,0.739l-1.129,0.459l-1.118,0.175l-1.194-0.176  l-1.089-0.457l-0.956-0.743l-0.738-0.913l-0.418-1.048l-0.176-1.196l0.176-1.196l0.422-1.058l0.736-0.981L66.814,77.762z"
     id="path10" /><path
     fill="#000000"
     d="M46.82,26.969c0.001,0.014-0.004,0.027-0.001,0.041l0.195,1.211c0.003,0.021,0.015,0.039,0.021,0.06  c0.005,0.017,0.003,0.032,0.009,0.049l0.508,1.25c0.005,0.013,0.018,0.018,0.024,0.029c0.013,0.026,0.02,0.056,0.038,0.08  l0.781,1.055c0.012,0.016,0.03,0.022,0.043,0.036c0.021,0.021,0.036,0.049,0.061,0.067l1.055,0.781  c0.01,0.007,0.021,0.004,0.032,0.011c0.023,0.015,0.041,0.035,0.067,0.047l1.172,0.508c0.023,0.01,0.048,0.009,0.072,0.015  c0.023,0.007,0.043,0.02,0.068,0.022l1.328,0.156c0.02,0.003,0.039,0.004,0.058,0.004h0.001l0,0l0,0h0.001  c0.02,0,0.039-0.001,0.06-0.004l1.289-0.156c0.021-0.003,0.039-0.015,0.059-0.02c0.023-0.006,0.047-0.004,0.068-0.014l1.25-0.508  c0.033-0.013,0.056-0.037,0.084-0.055c0.01-0.007,0.023-0.004,0.033-0.012l1.016-0.781c0.021-0.017,0.033-0.039,0.051-0.059  c0.012-0.012,0.028-0.018,0.039-0.031l0.82-1.055c0.021-0.027,0.029-0.059,0.043-0.088c0.007-0.012,0.021-0.018,0.025-0.03  l0.508-1.25c0.007-0.017,0.005-0.032,0.01-0.049c0.006-0.021,0.018-0.038,0.021-0.06l0.196-1.211  c0.004-0.026-0.004-0.051-0.004-0.077c0-0.016,0.004-0.03,0.003-0.046c0.001-0.012,0.007-0.023,0.007-0.035  c0-0.014-0.007-0.024-0.008-0.038c-0.001-0.013,0.004-0.025,0.002-0.039l-0.195-1.25c-0.003-0.021-0.015-0.036-0.02-0.055  c-0.006-0.019-0.004-0.038-0.012-0.057l-0.508-1.25c-0.009-0.023-0.027-0.04-0.039-0.061c-0.014-0.021-0.019-0.046-0.035-0.065  l-0.82-1.016c-0.012-0.016-0.029-0.022-0.043-0.036c-0.012-0.012-0.018-0.027-0.031-0.038l-1.016-0.82  c-0.021-0.017-0.045-0.021-0.066-0.035c-0.021-0.012-0.037-0.029-0.061-0.039l-1.25-0.508c-0.021-0.01-0.045-0.008-0.066-0.014  c-0.021-0.005-0.039-0.017-0.061-0.02l-1.289-0.156c-0.02-0.002-0.036,0.004-0.055,0.004c-0.021,0-0.042-0.008-0.064-0.004  l-1.328,0.156c-0.023,0.003-0.042,0.016-0.065,0.021c-0.025,0.006-0.051,0.005-0.075,0.016l-1.172,0.508  c-0.021,0.009-0.034,0.025-0.053,0.037c-0.018,0.011-0.038,0.014-0.055,0.027l-1.055,0.82c-0.017,0.014-0.026,0.032-0.041,0.048  c-0.015,0.015-0.035,0.024-0.048,0.042l-0.781,1.016c-0.014,0.018-0.018,0.039-0.029,0.059c-0.012,0.021-0.029,0.035-0.038,0.058  l-0.508,1.25c-0.007,0.019-0.005,0.038-0.011,0.057s-0.017,0.034-0.02,0.055l-0.195,1.25c-0.003,0.021,0.003,0.04,0.003,0.062  l-0.003,0.021c-0.002,0.012,0.003,0.023,0.002,0.035c-0.001,0.013-0.007,0.024-0.007,0.037  C46.812,26.943,46.819,26.955,46.82,26.969z M50.108,22.949l1.048-0.454l1.193-0.141l1.165,0.142l1.119,0.455l0.915,0.738  l0.742,0.919l0.458,1.127l0.175,1.19l-0.174,1.078l-0.461,1.137l-0.737,0.946l-0.913,0.703l-1.124,0.456l-1.165,0.142l-1.193-0.141  l-1.055-0.457l-0.946-0.701l-0.7-0.945l-0.463-1.14l-0.174-1.078l0.175-1.19l0.46-1.134l0.701-0.91L50.108,22.949z"
     id="path12" /><path
     fill="#000000"
     d="M21.593,18.77l0.547,2.188c0.003,0.012,0.015,0.017,0.018,0.027c0.01,0.032,0.014,0.065,0.031,0.096  l1.094,1.953c0.007,0.013,0.021,0.018,0.029,0.029c0.017,0.025,0.027,0.054,0.049,0.076l1.602,1.641  c0.015,0.016,0.036,0.022,0.053,0.035c0.017,0.014,0.029,0.032,0.048,0.044l1.953,1.172c0.013,0.008,0.027,0.005,0.041,0.011  c0.024,0.013,0.045,0.031,0.072,0.039l2.188,0.664c0.048,0.015,0.097,0.021,0.145,0.021h2.227c0,0,0,0,0.001,0  c0.041,0,0.083-0.005,0.124-0.016l2.266-0.586c0.028-0.008,0.049-0.025,0.075-0.036c0.014-0.007,0.03-0.004,0.044-0.012l1.953-1.094  c0.022-0.013,0.036-0.032,0.056-0.048c0.019-0.015,0.041-0.021,0.058-0.039l1.602-1.641c0.017-0.018,0.024-0.039,0.038-0.059  c0.008-0.011,0.021-0.015,0.028-0.026l1.172-1.875c0.02-0.032,0.026-0.067,0.039-0.102c0.004-0.012,0.016-0.017,0.019-0.028  l0.625-2.227c0.006-0.022,0.002-0.045,0.005-0.068c0.003-0.022,0.014-0.043,0.014-0.066v-2.188c0-0.011-0.005-0.02-0.006-0.03  c0-0.004-0.001-0.009-0.001-0.013c0.001-0.012,0.007-0.023,0.007-0.035c0-0.023-0.01-0.043-0.013-0.064s0.002-0.043-0.004-0.064  l-0.586-2.188c-0.005-0.02-0.019-0.034-0.026-0.053c-0.008-0.02-0.008-0.04-0.019-0.059l-1.094-1.992  c-0.011-0.02-0.029-0.032-0.042-0.051c-0.014-0.019-0.021-0.041-0.038-0.059l-1.562-1.602c-0.017-0.017-0.039-0.024-0.057-0.038  c-0.017-0.014-0.029-0.032-0.048-0.043l-1.992-1.172c-0.019-0.011-0.041-0.013-0.061-0.021c-0.021-0.01-0.038-0.025-0.061-0.031  l-2.148-0.586c-0.019-0.005-0.037-0.001-0.056-0.004c-0.02-0.003-0.038-0.013-0.059-0.014l-2.266-0.078  c-0.021,0-0.041,0.01-0.062,0.013c-0.028,0.002-0.056-0.003-0.085,0.004l-2.188,0.586c-0.021,0.006-0.036,0.02-0.055,0.027  c-0.019,0.007-0.039,0.008-0.057,0.018l-1.992,1.094c-0.022,0.013-0.036,0.032-0.055,0.047c-0.017,0.013-0.038,0.019-0.053,0.034  l-1.641,1.602c-0.017,0.017-0.024,0.037-0.038,0.056c-0.015,0.019-0.035,0.032-0.047,0.055l-1.127,1.982l-0.001,0.002l0,0  l-0.004,0.008c-0.01,0.018-0.01,0.036-0.018,0.055s-0.022,0.033-0.027,0.053l0,0l-0.001,0.002L22.2,14.176l-0.602,2.067  c-0.007,0.023-0.002,0.046-0.006,0.069s-0.014,0.045-0.014,0.07v0.039v2.227c0,0.021,0.01,0.04,0.012,0.061  S21.588,18.749,21.593,18.77z M37.114,22.633l-1.516,1.553l-1.833,1.025l-2.143,0.555h-2.088l-2.058-0.625l-1.844-1.105l-1.512-1.55  l-1.028-1.835l-0.516-2.062v-2.095l0.589-2.061l1.066-1.802l1.542-1.506l1.88-1.032l2.068-0.554h2.124l2.021,0.625l1.882,1.106  l1.471,1.508l1.032,1.879l0.553,2.064v2.054l-0.587,2.092L37.114,22.633z"
     id="path14" /></svg>