<?xml version="1.0" encoding="UTF-8" standalone="no"?>
<svg
   xmlns:dc="http://purl.org/dc/elements/1.1/"
   xmlns:cc="http://creativecommons.org/ns#"
   xmlns:rdf="http://www.w3.org/1999/02/22-rdf-syntax-ns#"
   xmlns:svg="http://www.w3.org/2000/svg"
   xmlns="http://www.w3.org/2000/svg"
   xmlns:sodipodi="http://sodipodi.sourceforge.net/DTD/sodipodi-0.dtd"
   xmlns:inkscape="http://www.inkscape.org/namespaces/inkscape"
   version="1.0"
   x="0px"
   y="0px"
   viewBox="0 0 100 125"
   enable-background="new 0 0 100 100"
   xml:space="preserve"
   id="svg2"
   inkscape:version="0.91 r13725"
   sodipodi:docname="barra.svg"><metadata
     id="metadata14"><rdf:RDF><cc:Work
         rdf:about=""><dc:format>image/svg+xml</dc:format><dc:type
           rdf:resource="http://purl.org/dc/dcmitype/StillImage" /></cc:Work></rdf:RDF></metadata><defs
     id="defs12" /><sodipodi:namedview
     pagecolor="#ffffff"
     bordercolor="#666666"
     borderopacity="1"
     objecttolerance="10"
     gridtolerance="10"
     guidetolerance="10"
     inkscape:pageopacity="0"
     inkscape:pageshadow="2"
     inkscape:window-width="718"
     inkscape:window-height="480"
     id="namedview10"
     showgrid="false"
     inkscape:zoom="1.888"
     inkscape:cx="50"
     inkscape:cy="62.5"
     inkscape:window-x="0"
     inkscape:window-y="0"
     inkscape:window-maximized="0"
     inkscape:current-layer="svg2" /><path
     d="M90,22.982c-21.106-8.742-43.763-8.096-63.333,0.006V50h-3.334c-2.441,0-4.7,0.703-6.666,1.848v-8.515H10v19.999h6.667  c0-3.682,2.984-6.666,6.666-6.666h3.334l-0.004,13.685c2.207,0.916,4.434,1.703,6.67,2.412v10.57H40v-8.75  c12.324,2.813,24.827,2.689,36.667-0.016v8.766h6.666V72.762c2.253-0.717,4.479-1.512,6.664-2.416L90,22.982z M33.333,27.579  c2.197-0.767,4.424-1.41,6.667-1.969v42.125c-2.243-0.559-4.473-1.203-6.67-1.973L33.333,27.579z M58.281,70  c-3.909,0-7.783-0.334-11.614-0.93V24.273c3.86-0.601,7.77-0.939,11.715-0.939c3.913,0,7.787,0.335,11.618,0.933v44.794  C66.136,69.662,62.227,70,58.281,70z M83.33,65.756c-2.197,0.768-4.421,1.41-6.663,1.969V25.601c2.242,0.56,4.469,1.203,6.666,1.971  L83.33,65.756z"
     id="path4" /></svg>