<?xml version="1.0" encoding="UTF-8" standalone="no"?>
<svg
   xmlns:dc="http://purl.org/dc/elements/1.1/"
   xmlns:cc="http://creativecommons.org/ns#"
   xmlns:rdf="http://www.w3.org/1999/02/22-rdf-syntax-ns#"
   xmlns:svg="http://www.w3.org/2000/svg"
   xmlns="http://www.w3.org/2000/svg"
   xmlns:sodipodi="http://sodipodi.sourceforge.net/DTD/sodipodi-0.dtd"
   xmlns:inkscape="http://www.inkscape.org/namespaces/inkscape"
   version="1.1"
   x="0px"
   y="0px"
   viewBox="0 0 64 80"
   style="enable-background:new 0 0 64 64;"
   xml:space="preserve"
   id="svg2"
   inkscape:version="0.91 r13725"
   sodipodi:docname="barra-PA.svg"><metadata
     id="metadata28"><rdf:RDF><cc:Work
         rdf:about=""><dc:format>image/svg+xml</dc:format><dc:type
           rdf:resource="http://purl.org/dc/dcmitype/StillImage" /></cc:Work></rdf:RDF></metadata><defs
     id="defs26" /><sodipodi:namedview
     pagecolor="#ffffff"
     bordercolor="#666666"
     borderopacity="1"
     objecttolerance="10"
     gridtolerance="10"
     guidetolerance="10"
     inkscape:pageopacity="0"
     inkscape:pageshadow="2"
     inkscape:window-width="718"
     inkscape:window-height="480"
     id="namedview24"
     showgrid="false"
     inkscape:zoom="2.95"
     inkscape:cx="32"
     inkscape:cy="40"
     inkscape:window-x="0"
     inkscape:window-y="0"
     inkscape:window-maximized="0"
     inkscape:current-layer="svg2" /><path
     d="M9.445,58.168C9.167,58.354,9,58.666,9,59v2c0,0.553,0.448,1,1,1h10c0.552,0,1-0.447,1-1v-2  c0-0.334-0.167-0.646-0.445-0.832L18,56.465V50h2c0.552,0,1-0.447,1-1v-2c0-1.654-1.346-3-3-3h-6c-1.654,0-3,1.346-3,3v2  c0,0.553,0.448,1,1,1h2v6.465L9.445,58.168z M11,47c0-0.552,0.449-1,1-1h6c0.551,0,1,0.448,1,1v1h-2h-4h-2V47z M16,50v7  c0,0.334,0.167,0.646,0.445,0.832L19,59.535V60h-8v-0.465l2.555-1.703C13.833,57.646,14,57.334,14,57v-7H16z"
     id="path4" /><path
     d="M26.445,58.168C26.167,58.354,26,58.666,26,59v2c0,0.553,0.448,1,1,1h10c0.552,0,1-0.447,1-1v-2  c0-0.334-0.167-0.646-0.445-0.832L35,56.465V50h2c0.552,0,1-0.447,1-1v-2c0-1.654-1.346-3-3-3h-6c-1.654,0-3,1.346-3,3v2  c0,0.553,0.448,1,1,1h2v6.465L26.445,58.168z M28,47c0-0.552,0.449-1,1-1h6c0.551,0,1,0.448,1,1v1h-2h-4h-2V47z M33,50v7  c0,0.334,0.167,0.646,0.445,0.832L36,59.535V60h-8v-0.465l2.555-1.703C30.833,57.646,31,57.334,31,57v-7H33z"
     id="path6" /><path
     d="M43.445,58.168C43.167,58.354,43,58.666,43,59v2c0,0.553,0.448,1,1,1h10c0.552,0,1-0.447,1-1v-2  c0-0.334-0.167-0.646-0.445-0.832L52,56.465V50h2c0.552,0,1-0.447,1-1v-2c0-1.654-1.346-3-3-3h-6c-1.654,0-3,1.346-3,3v2  c0,0.553,0.448,1,1,1h2v6.465L43.445,58.168z M45,47c0-0.552,0.449-1,1-1h6c0.551,0,1,0.448,1,1v1h-2h-4h-2V47z M50,50v7  c0,0.334,0.167,0.646,0.445,0.832L53,59.535V60h-8v-0.465l2.555-1.703C47.833,57.646,48,57.334,48,57v-7H50z"
     id="path8" /><polygon
     points="2,40 5,40 5,62 7,62 7,40 57,40 57,62 59,62 59,40 62,40 62,38 2,38 "
     id="polygon10" /><path
     d="M61,18H3c-0.552,0-1,0.447-1,1v16c0,0.553,0.448,1,1,1h21h4h8h8h5h8h4c0.552,0,1-0.447,1-1V19C62,18.447,61.552,18,61,18z   M8,29v-1h2v1c0,0.552-0.449,1-1,1S8,29.552,8,29z M16,29v-1h2v1c0,0.552-0.449,1-1,1S16,29.552,16,29z M25,34v-4h2v4H25z M37,34  v-2.697l1.832-2.748C38.941,28.391,39,28.197,39,28h2c0,0.197,0.059,0.391,0.168,0.555L43,31.303V34H37z M41,26h-2v-2h2V26z M50,34  v-2.697l1.832-2.748C51.941,28.391,52,28.197,52,28h2c0,0.197,0.059,0.391,0.168,0.555L56,31.303V34H50z M54,26h-2v-2h2V26z M60,34  h-2v-3c0-0.197-0.059-0.391-0.168-0.555L56,27.697V23c0-0.553-0.448-1-1-1h-4c-0.552,0-1,0.447-1,1v4.697l-1.832,2.748  C48.059,30.609,48,30.803,48,31v3h-3v-3c0-0.197-0.059-0.391-0.168-0.555L43,27.697V23c0-0.553-0.448-1-1-1h-4c-0.552,0-1,0.447-1,1  v4.697l-1.832,2.748C35.059,30.609,35,30.803,35,31v3h-6v-5c0-0.553-0.448-1-1-1h-4c-0.552,0-1,0.447-1,1v5h-5v-2.184  c1.161-0.414,2-1.514,2-2.816v-2c0-0.553-0.448-1-1-1h-4c-0.552,0-1,0.447-1,1v2c0,1.302,0.839,2.402,2,2.816V34h-6v-2.184  c1.161-0.414,2-1.514,2-2.816v-2c0-0.553-0.448-1-1-1H7c-0.552,0-1,0.447-1,1v2c0,1.302,0.839,2.402,2,2.816V34H4V20h56V34z"
     id="path12" /><path
     d="M11,16c1.654,0,3-1.346,3-3v-1h3c0.404,0,0.769-0.243,0.924-0.617s0.069-0.804-0.217-1.09L12,4.586V2h-2v2.586l-5.707,5.707  c-0.286,0.286-0.372,0.716-0.217,1.09S4.596,12,5,12h3v1C8,14.654,9.346,16,11,16z M12,13c0,0.552-0.449,1-1,1s-1-0.448-1-1v-1h2V13  z M11,6.414L14.586,10H13H9H7.414L11,6.414z"
     id="path14" /><path
     d="M54,2h-2v2.586l-5.707,5.707c-0.286,0.286-0.372,0.716-0.217,1.09S46.596,12,47,12h3v1c0,1.654,1.346,3,3,3s3-1.346,3-3v-1  h3c0.404,0,0.769-0.243,0.924-0.617s0.069-0.804-0.217-1.09L54,4.586V2z M54,13c0,0.552-0.449,1-1,1s-1-0.448-1-1v-1h2V13z M55,10  h-4h-1.586L53,6.414L56.586,10H55z"
     id="path16" /><path
     d="M32,16c1.654,0,3-1.346,3-3v-1h3c0.404,0,0.769-0.243,0.924-0.617s0.069-0.804-0.217-1.09L33,4.586V2h-2v2.586l-5.707,5.707  c-0.286,0.286-0.372,0.716-0.217,1.09S25.596,12,26,12h3v1C29,14.654,30.346,16,32,16z M33,13c0,0.552-0.449,1-1,1s-1-0.448-1-1v-1  h2V13z M32,6.414L35.586,10H34h-4h-1.586L32,6.414z"
     id="path18" /></svg>