<?xml version="1.0" encoding="UTF-8" standalone="no"?>
<svg
   xmlns:dc="http://purl.org/dc/elements/1.1/"
   xmlns:cc="http://creativecommons.org/ns#"
   xmlns:rdf="http://www.w3.org/1999/02/22-rdf-syntax-ns#"
   xmlns:svg="http://www.w3.org/2000/svg"
   xmlns="http://www.w3.org/2000/svg"
   xmlns:sodipodi="http://sodipodi.sourceforge.net/DTD/sodipodi-0.dtd"
   xmlns:inkscape="http://www.inkscape.org/namespaces/inkscape"
   data-name="Layer 1"
   viewBox="0 0 100 125"
   x="0px"
   y="0px"
   id="svg2"
   version="1.1"
   inkscape:version="0.91 r13725"
   sodipodi:docname="noun_edit_1271910.svg">
  <metadata
     id="metadata26">
    <rdf:RDF>
      <cc:Work
         rdf:about="">
        <dc:format>image/svg+xml</dc:format>
        <dc:type
           rdf:resource="http://purl.org/dc/dcmitype/StillImage" />
      </cc:Work>
    </rdf:RDF>
  </metadata>
  <defs
     id="defs24" />
  <sodipodi:namedview
     pagecolor="#ffffff"
     bordercolor="#666666"
     borderopacity="1"
     objecttolerance="10"
     gridtolerance="10"
     guidetolerance="10"
     inkscape:pageopacity="0"
     inkscape:pageshadow="2"
     inkscape:window-width="718"
     inkscape:window-height="480"
     id="namedview22"
     showgrid="false"
     inkscape:zoom="1.888"
     inkscape:cx="50"
     inkscape:cy="62.5"
     inkscape:window-x="0"
     inkscape:window-y="0"
     inkscape:window-maximized="0"
     inkscape:current-layer="svg2" />
  <title
     id="title4">07</title>
  <path
     d="M73.73,20.35,41.55,52.53A2,2,0,0,0,41,53.66l-2.28,16a2,2,0,0,0,2,2.28l.25,0,16.25-2a2,2,0,0,0,1.17-.57L90.53,37.15a11.88,11.88,0,1,0-16.8-16.8ZM56,66,43,67.62l1.82-12.74L72.63,27.1,83.78,38.25ZM87.7,34.32l-1.1,1.1L75.46,24.28l1.1-1.1A7.88,7.88,0,0,1,87.7,34.32Z"
     id="path6" />
  <path
     d="M6,10.5a2,2,0,0,0,2,2H72a2,2,0,1,0,0-4H8A2,2,0,0,0,6,10.5Z"
     id="path8" />
  <path
     d="M8,32.25H52a2,2,0,0,0,0-4H8a2,2,0,1,0,0,4Z"
     id="path10" />
  <path
     d="M8,52H32a2,2,0,0,0,0-4H8a2,2,0,0,0,0,4Z"
     id="path12" />
  <path
     d="M8,71.75H32a2,2,0,0,0,0-4H8a2,2,0,1,0,0,4Z"
     id="path14" />
  <path
     d="M8,91.5H72a2,2,0,0,0,0-4H8a2,2,0,1,0,0,4Z"
     id="path16" />
</svg>
