<?xml version="1.0" encoding="UTF-8" standalone="no"?>
<svg
   xmlns:dc="http://purl.org/dc/elements/1.1/"
   xmlns:cc="http://creativecommons.org/ns#"
   xmlns:rdf="http://www.w3.org/1999/02/22-rdf-syntax-ns#"
   xmlns:svg="http://www.w3.org/2000/svg"
   xmlns="http://www.w3.org/2000/svg"
   xmlns:sodipodi="http://sodipodi.sourceforge.net/DTD/sodipodi-0.dtd"
   xmlns:inkscape="http://www.inkscape.org/namespaces/inkscape"
   version="1.1"
   x="0px"
   y="0px"
   viewBox="0 0 24 30"
   style="enable-background:new 0 0 24 24;"
   xml:space="preserve"
   id="svg2"
   inkscape:version="0.91 r13725"
   sodipodi:docname="lista.svg"><metadata
     id="metadata26"><rdf:RDF><cc:Work
         rdf:about=""><dc:format>image/svg+xml</dc:format><dc:type
           rdf:resource="http://purl.org/dc/dcmitype/StillImage" /></cc:Work></rdf:RDF></metadata><defs
     id="defs24" /><sodipodi:namedview
     pagecolor="#ffffff"
     bordercolor="#666666"
     borderopacity="1"
     objecttolerance="10"
     gridtolerance="10"
     guidetolerance="10"
     inkscape:pageopacity="0"
     inkscape:pageshadow="2"
     inkscape:window-width="718"
     inkscape:window-height="480"
     id="namedview22"
     showgrid="false"
     inkscape:zoom="7.8666667"
     inkscape:cx="12"
     inkscape:cy="-0.25423729"
     inkscape:window-x="0"
     inkscape:window-y="0"
     inkscape:window-maximized="0"
     inkscape:current-layer="svg2" /><g
     id="g4"><path
       d="M8.654,5.766h11.914c0.184,0,0.332-0.15,0.332-0.334c0-0.184-0.148-0.333-0.332-0.333H8.654   c-0.184,0-0.333,0.15-0.333,0.333C8.321,5.616,8.471,5.766,8.654,5.766z"
       id="path6" /><path
       d="M20.568,11.667H8.654c-0.184,0-0.333,0.15-0.333,0.334c0,0.184,0.15,0.333,0.333,0.333h11.914   c0.184,0,0.332-0.149,0.332-0.333C20.9,11.816,20.751,11.667,20.568,11.667z"
       id="path8" /><path
       d="M20.568,18.236H8.654c-0.184,0-0.333,0.149-0.333,0.333c0,0.184,0.15,0.334,0.333,0.334h11.914   c0.184,0,0.332-0.15,0.332-0.334C20.9,18.385,20.751,18.236,20.568,18.236z"
       id="path10" /><path
       d="M4.707,3.824C3.821,3.824,3.1,4.545,3.1,5.431c0,0.887,0.721,1.609,1.606,1.609c0.886,0,1.607-0.722,1.607-1.609   C6.313,4.545,5.593,3.824,4.707,3.824z M5.647,5.431c0,0.52-0.422,0.942-0.94,0.942c-0.518,0-0.939-0.422-0.939-0.942   c0-0.519,0.421-0.94,0.939-0.94C5.225,4.491,5.647,4.913,5.647,5.431z"
       id="path12" /><path
       d="M4.707,10.394c-0.886,0-1.606,0.721-1.606,1.607c0,0.885,0.721,1.605,1.606,1.605c0.886,0,1.607-0.72,1.607-1.605   C6.313,11.115,5.593,10.394,4.707,10.394z M5.647,12.001c0,0.517-0.422,0.938-0.94,0.938c-0.518,0-0.939-0.421-0.939-0.938   c0-0.519,0.421-0.94,0.939-0.94C5.225,11.061,5.647,11.482,5.647,12.001z"
       id="path14" /><path
       d="M4.707,16.962c-0.886,0-1.606,0.721-1.606,1.606c0,0.887,0.721,1.608,1.606,1.608c0.886,0,1.607-0.721,1.607-1.608   C6.313,17.683,5.593,16.962,4.707,16.962z M5.647,18.568c0,0.52-0.422,0.942-0.94,0.942c-0.518,0-0.939-0.422-0.939-0.942   c0-0.519,0.421-0.94,0.939-0.94C5.225,17.628,5.647,18.05,5.647,18.568z"
       id="path16" /></g></svg>