<?xml version="1.0" encoding="UTF-8" standalone="no"?>
<svg
   xmlns:dc="http://purl.org/dc/elements/1.1/"
   xmlns:cc="http://creativecommons.org/ns#"
   xmlns:rdf="http://www.w3.org/1999/02/22-rdf-syntax-ns#"
   xmlns:svg="http://www.w3.org/2000/svg"
   xmlns="http://www.w3.org/2000/svg"
   xmlns:sodipodi="http://sodipodi.sourceforge.net/DTD/sodipodi-0.dtd"
   xmlns:inkscape="http://www.inkscape.org/namespaces/inkscape"
   version="1.1"
   x="0px"
   y="0px"
   viewBox="0 0 100 125"
   style="enable-background:new 0 0 100 100;"
   xml:space="preserve"
   id="svg2"
   inkscape:version="0.91 r13725"
   sodipodi:docname="otro.svg"><metadata
     id="metadata314"><rdf:RDF><cc:Work
         rdf:about=""><dc:format>image/svg+xml</dc:format><dc:type
           rdf:resource="http://purl.org/dc/dcmitype/StillImage" /></cc:Work></rdf:RDF></metadata><defs
     id="defs312" /><sodipodi:namedview
     pagecolor="#ffffff"
     bordercolor="#666666"
     borderopacity="1"
     objecttolerance="10"
     gridtolerance="10"
     guidetolerance="10"
     inkscape:pageopacity="0"
     inkscape:pageshadow="2"
     inkscape:window-width="718"
     inkscape:window-height="480"
     id="namedview310"
     showgrid="false"
     inkscape:zoom="1.888"
     inkscape:cx="50"
     inkscape:cy="62.5"
     inkscape:window-x="0"
     inkscape:window-y="0"
     inkscape:window-maximized="0"
     inkscape:current-layer="svg2" /><style
     type="text/css"
     id="style4">
	.st0{display:none;}
	.st1{display:inline;}
</style><g
     class="st0"
     id="g6"><path
       class="st1"
       d="M489.7-101.5c0-0.4-0.1-0.8-0.4-1.1c-1.5-2.3-3.2-4.4-4.9-6.6c2-3.6,3.2-7.7,3.3-12.7   c0.2-8.5-3-16.3-11.3-19.3c-3.5-1.3-4.3,4.3-1.1,5.5c7.9,3,8.4,13.4,5.2,21.9c-0.3-0.3-0.6-0.7-0.8-1c0-0.1,0-0.1,0-0.2   c0,0,0-0.1,0-0.1c-0.1-1.5-1.2-3.1-3.3-2.6c-7.6,1.5-15.8,0.1-23.5,1c-0.8,0.1-1.2,0.6-1.3,1.2c-11.1,11.4-23.8,21.4-35.2,32.5   c-1.4,0.7-2.4,2.7-0.6,4.3c4.7,4.3,8.1,10.1,12.1,15.1c4,5,7.8,10.3,11.7,15.5c0.2,0.2,0.4,0.4,0.6,0.6c0.7,0.6,1.6,1,2.6,0.4   c14.5-8.1,26.6-19.7,40.6-28.5c1.5-1,1.4-2.7,0.5-3.8c0.9-2.4,1.7-4.9,2.5-7.3c1.2-3.6,2.1-8.3,4.1-11.5   C491.4-99.6,490.8-100.8,489.7-101.5z M482.1-88.4c-1,3.1-2,6.1-2.8,9.2c-11.1,10.5-25,18-37.4,26.8c-3.6-4.6-7.2-9.1-10.7-13.7   c-3.5-4.5-7.6-9.1-10.6-14.1c10.7-11,22.1-23,34.8-31.6c0.2-0.2,0.4-0.3,0.6-0.5c6.7,0.1,13.7-1.3,20.3-0.3   c0.1,0.1,0.2,0.1,0.3,0.2c0,0,0,0,0,0c0.7,0.9,1.3,1.9,2,2.8c-0.9,1.5-1.8,2.9-2.9,4.1c-0.5-0.4-1.1-0.8-1.6-1   c-1.1-0.5-2.2-0.7-3.4-0.8c-2.2-0.3-4.7,0-6.3,1.7c-3.3,3.5-1.8,8.9,1.5,11.7c3.6,3.1,9.9,3.7,13.3-0.1c2.3-2.5,2.5-6.4,0.7-9   c0.6-0.7,1.2-1.5,1.8-2.2c1.2,1.7,2.5,3.5,3.9,5.1C485.4-96.2,483.2-92.1,482.1-88.4z M475.5-98.3c0.2-0.2,0.4-0.4,0.6-0.6   c-0.1,0.6-0.6,1.2-1.4,1.7c-1.8,1.1-4.5,0.6-6.1-0.6c-1.4-1.1-2.1-3.1-0.7-4.5c0.8-0.7,2.1-0.9,3.1-0.7c0.2,0,0.7,0.2,1.2,0.3   c-0.1,0-0.1,0.1-0.2,0.1C469-101,472.6-95.5,475.5-98.3z"
       id="path8" /><path
       class="st1"
       d="M1633.9-195.5c9.9-15.6,11.5-41.4,1-57.1c-10.9-16.2-29.3-18-47-15.6c-0.1,0-0.2,0-0.3-0.1   c-1.6-0.2-2.5,0.7-2.8,1.7c0,0.1,0,0.1,0,0.2c0,0.1,0,0.1,0,0.2c0,0.1,0,0.3,0,0.4c0,0,0,0.1,0,0.1c0,0.1,0,0.2,0,0.3   c0.1,0.8,0.6,1.5,1.3,1.8c0.6,0.4,1.4,0.5,2.4,0.2c0.1,0,0.3-0.1,0.4-0.1c13.6-1.5,21,14.1,21.4,25.3c0.3,6.8-1.3,13.3-5,19.1   c-10.1,15.8-30.8,17.6-43.5,4c-2.5-2.6-7.1,0.2-5.3,3.2c-0.1,0.3-0.1,0.7,0,1.1C1563.4-173.6,1613.4-163.1,1633.9-195.5z    M1564.5-205c15.2,9.3,36.1,4.7,45.9-11.7c10.6-17.7,4.8-40.1-12.2-48.4c16.9-1.1,33.1,9,37,26.8c2.8,12.9,0.3,30.2-7.3,41   C1610.2-171.9,1575.7-180,1564.5-205z"
       id="path10" /><path
       class="st1"
       d="M1924.8-262.6c-0.2-1-0.9-1.9-2-2.3c-21.6-7-44.2-6.8-64.1,5.6c-14.7,9.2-27.7,27.8-15,44.1   c0.1,0.1,0.1,0.1,0.2,0.2c0.1,0.1,0.1,0.1,0.2,0.2c2.2,2,5.5,0.2,4.4-2.6c4-3.9,8.4-7.3,13.1-10.2c-14.1,13.4-24.7,32-28.7,49.5   c-0.4,1.9,2.7,3.7,3.5,1.6c3.2-8.9,6.7-17.7,11.5-25.8c13.8,7.4,28.2,8.1,40.8-2.9c15.8-13.8,11.8-50,34.4-53.4   C1925.1-259.1,1925.5-261,1924.8-262.6z M1900-242.5c-2.7,7.8-3.7,16.2-7.9,23.4c-7.9,13.4-26.8,22.9-41.2,12   c1.2-1.7,2.4-3.4,3.7-5c8.6-10.5,19.3-17.9,30.1-26c1.2-0.9,1-2.2,0.3-3.1c-0.5-0.8-1.3-1.4-2.4-1.2c-14.1,3-26.1,11-35.7,21.5   c-9-19.3,13.2-34.6,29.5-39.9c12.1-3.9,25.1-4.3,37.4-1.1C1906.9-257.8,1902.9-250.9,1900-242.5z"
       id="path12" /><g
       class="st1"
       id="g14"><path
         d="M1178.9-130.9c-4.2,10.8-6.9,22.1-10,33.3c-0.5-0.1-1-0.1-1.5-0.3c-4.8-1.7-5.9,7.2-0.6,7.4    c-1.3,4.3-2.8,8.6-4.4,12.8c-2.1,5.1,6.4,7.9,6.8,2.9c0.5-5.2,1.5-10.5,2.9-15.7c2.5,0.3,5,0.8,7.1,0.9c2.1,0.1,4.2,0.2,6.3,0.2    c0.5,4.8,1.2,9.6,2.6,14.2c1.2,4.1,7.1,3.4,7.1-0.9c0-17.5-6.5-36.8-10.5-53.8C1184.2-132.5,1179.9-133.7,1178.9-130.9z     M1178.8-97.5c-1.4,0-3,0.1-4.7,0.2c2.1-6.8,4.6-13.5,7-20.2c1.3,6.2,2.5,12.4,3.4,18.7c0.1,0.4,0.1,0.8,0.2,1.2    C1182.7-97.6,1180.7-97.5,1178.8-97.5z"
         id="path16" /><path
         d="M1249.2-100.9c-5.2-6.9-13.3-10-21.1-9.3c-0.4-2.4-0.8-4.8-1.2-7.3c6.4-1.3,12.8-2.6,19-4.7    c4.5-1.5,2-8-2.3-7.2c-6,1.1-11.8,2.8-17.7,4.5c-0.2-1.9-0.5-3.8-0.7-5.7c-0.5-5.3-8.4-4.6-7.1,0.9c0.5,2.2,0.9,4.4,1.4,6.6    c-5.4,1.6-10.8,3-16.3,3.8c-4.6,0.6-2.1,8.9,2.3,7.3c4.9-1.8,10.1-3.1,15.3-4.3c0.4,2.4,0.8,4.9,1.2,7.3c-2.9,1-5.6,2.6-8,4.7    c-9.2,8-9.6,23.5,3.2,28.1c5.9,2.2,12.1,0.4,16.9-3.4c5.8-4.7,6.7-10.3,8.1-16.6c5.1,6.8,5.2,17.6-3.1,24.1    c-3.4,2.6,0.3,8.7,3.9,6.2C1254.3-73.7,1257.9-89.4,1249.2-100.9z M1220.2-82.4c-11.9-2.7-4.6-15.3,2.9-18.8    c0.9,6.1,1.8,12.2,2.9,18.3C1224.2-82.2,1222.3-82,1220.2-82.4z M1232.2-87.4c-0.8-5-1.8-10-2.7-15c2.4,0,4.7,0.5,6.7,1.4    c0,0.1,0,0.2,0,0.3C1237.2-96.3,1235.4-91.2,1232.2-87.4z"
         id="path18" /></g><g
       class="st1"
       id="g20"><path
         d="M1127.2-248.6c-0.1-1.9-1.8-3.5-3.7-3.6c-26.9-0.7-53.9-0.5-80.9-0.4c-1.2-0.6-2.7-0.4-3.6,0.5    c-2.1,1.2-2.3,4.4-0.8,6.2c0.2,13.5-0.4,27-0.9,40.5c-0.1,1.9,1.8,3.4,3.6,3.5c28.1,0.7,56.4,0.7,84.5,0.5c2.1,0,3.8-1.9,3.7-4    C1128.1-219.8,1127.6-234.2,1127.2-248.6z M1043.9-208.9c-0.1-11.8-0.3-23.7,0.2-35.5c25.4,0,50.8,0.1,76.2-0.5    c0.4,11.9,0.7,23.7,0.9,35.6C1095.4-209.5,1069.6-209.4,1043.9-208.9z"
         id="path22" /><path
         d="M1064.1-240.4c-4.2-0.7-7.8-0.1-12,0.1c-0.1,0-0.1,0-0.2,0c-3.5-1-4.3,3.5-2.7,5.4    c-0.5,6.4-0.9,12.9-1.1,19.3c0,1.5,1.4,3.3,2.9,3.6c3.4,0.6,6.5,0.6,10,0.1c0.1,0,0.3-0.1,0.4-0.1c1.7,0.5,3.5-0.1,3.9-2.3    c1.2-7.5,1.8-15,1.4-22.6C1066.7-238.4,1065.6-240.1,1064.1-240.4z"
         id="path24" /><path
         d="M1088.7-240.4c-4.2-0.7-7.8-0.1-12,0.1c-0.1,0-0.1,0-0.2,0c-3.5-1-4.3,3.5-2.7,5.4    c-0.5,6.4-0.9,12.9-1.1,19.3c0,1.5,1.4,3.3,2.9,3.6c3.4,0.6,6.5,0.6,10,0.1c0.1,0,0.3-0.1,0.4-0.1c1.7,0.5,3.5-0.1,3.9-2.3    c1.2-7.5,1.8-15,1.4-22.6C1091.3-238.4,1090.2-240.1,1088.7-240.4z"
         id="path26" /><path
         d="M1113.3-240.4c-4.2-0.7-7.8-0.1-12,0.1c-0.1,0-0.1,0-0.2,0c-3.5-1-4.3,3.5-2.7,5.4    c-0.5,6.4-0.9,12.9-1.1,19.3c0,1.5,1.4,3.3,2.9,3.6c3.4,0.6,6.5,0.6,10,0.1c0.1,0,0.3-0.1,0.4-0.1c1.7,0.5,3.5-0.1,3.9-2.3    c1.2-7.5,1.8-15,1.4-22.6C1115.9-238.4,1114.8-240.1,1113.3-240.4z"
         id="path28" /></g><g
       class="st1"
       id="g30"><path
         d="M1244.9-248.6c-0.1-1.9-1.8-3.5-3.7-3.6c-26.9-0.7-53.9-0.5-80.9-0.4c-1.2-0.6-2.7-0.4-3.6,0.5    c-2.1,1.2-2.3,4.4-0.8,6.2c0.2,13.5-0.4,27-0.9,40.5c-0.1,1.9,1.8,3.4,3.6,3.5c28.1,0.7,56.4,0.7,84.5,0.5c2.1,0,3.8-1.9,3.7-4    C1245.8-219.8,1245.3-234.2,1244.9-248.6z M1161.6-208.9c-0.1-11.8-0.3-23.7,0.2-35.5c25.4,0,50.8,0.1,76.2-0.5    c0.4,11.9,0.7,23.7,0.9,35.6C1213.2-209.5,1187.4-209.4,1161.6-208.9z"
         id="path32" /><path
         d="M1181.8-240.4c-4.2-0.7-7.8-0.1-12,0.1c-0.1,0-0.1,0-0.2,0c-3.5-1-4.3,3.5-2.7,5.4    c-0.5,6.4-0.9,12.9-1.1,19.3c0,1.5,1.4,3.3,2.9,3.6c3.4,0.6,6.5,0.6,10,0.1c0.1,0,0.3-0.1,0.4-0.1c1.7,0.5,3.5-0.1,3.9-2.3    c1.2-7.5,1.8-15,1.4-22.6C1184.4-238.4,1183.3-240.1,1181.8-240.4z"
         id="path34" /><path
         d="M1206.4-240.4c-4.2-0.7-7.8-0.1-12,0.1c-0.1,0-0.1,0-0.2,0c-3.5-1-4.3,3.5-2.7,5.4    c-0.5,6.4-0.9,12.9-1.1,19.3c0,1.5,1.4,3.3,2.9,3.6c3.4,0.6,6.5,0.6,10,0.1c0.1,0,0.3-0.1,0.4-0.1c1.7,0.5,3.5-0.1,3.9-2.3    c1.2-7.5,1.8-15,1.4-22.6C1209-238.4,1207.9-240.1,1206.4-240.4z"
         id="path36" /></g><g
       class="st1"
       id="g38"><path
         d="M1357.7-248.6c-0.1-1.9-1.8-3.5-3.7-3.6c-26.9-0.7-53.9-0.5-80.9-0.4c-1.2-0.6-2.7-0.4-3.6,0.5    c-2.1,1.2-2.3,4.4-0.8,6.2c0.2,13.5-0.4,27-0.9,40.5c-0.1,1.9,1.8,3.4,3.6,3.5c28.1,0.7,56.4,0.7,84.5,0.5c2.1,0,3.8-1.9,3.7-4    C1358.7-219.8,1358.2-234.2,1357.7-248.6z M1274.5-208.9c-0.1-11.8-0.3-23.7,0.2-35.5c25.4,0,50.8,0.1,76.2-0.5    c0.4,11.9,0.7,23.7,0.9,35.6C1326-209.5,1300.2-209.4,1274.5-208.9z"
         id="path40" /><path
         d="M1294.7-240.4c-4.2-0.7-7.8-0.1-12,0.1c-0.1,0-0.1,0-0.2,0c-3.5-1-4.3,3.5-2.7,5.4    c-0.5,6.4-0.9,12.9-1.1,19.3c0,1.5,1.4,3.3,2.9,3.6c3.4,0.6,6.5,0.6,10,0.1c0.1,0,0.3-0.1,0.4-0.1c1.7,0.5,3.5-0.1,3.9-2.3    c1.2-7.5,1.8-15,1.4-22.6C1297.3-238.4,1296.1-240.1,1294.7-240.4z"
         id="path42" /></g><path
       class="st1"
       d="M1466.7-248.6c-0.1-1.9-1.8-3.5-3.7-3.6c-26.9-0.7-53.9-0.5-80.9-0.4   c-1.2-0.6-2.7-0.4-3.6,0.5c-2.1,1.2-2.3,4.4-0.8,6.2c0.2,13.5-0.4,27-0.9,40.5c-0.1,1.9,1.8,3.4,3.6,3.5   c28.1,0.7,56.4,0.7,84.5,0.5c2.1,0,3.8-1.9,3.7-4C1467.7-219.8,1467.1-234.2,1466.7-248.6z M1383.4-208.9   c-0.1-11.8-0.3-23.7,0.2-35.5c25.4,0,50.8,0.1,76.2-0.5c0.4,11.9,0.7,23.7,0.9,35.6C1435-209.5,1409.2-209.4,1383.4-208.9z"
       id="path44" /><path
       class="st1"
       d="M1536.7-234.5c-6.9-0.9-13.8-1.6-20.7-2.2c4.7-11.5,6.9-23.5,11.3-35c1.3-3.4-4.2-5.1-4.4-1.8   c0,0.2-0.1,0.4-0.1,0.5c0,0-0.1,0-0.1,0.1c-15.1,14.6-28,32.4-39.4,50c-0.9,1.4-0.1,3,1.5,3.2c6.9,0.9,13.8,1.6,20.7,2.2   c-4.7,11.5-6.9,23.5-11.3,35c-1.3,3.4,4.2,5.1,4.4,1.8c0-0.2,0.1-0.4,0.1-0.5c0,0,0.1,0,0.1-0.1c15.1-14.6,28-32.4,39.4-50   C1539.1-232.6,1538.3-234.3,1536.7-234.5z M1499.7-187.8c2.2-10.5,6.9-20.7,10.7-30.4c0.6-1.5-0.7-3-2-3.2   c-0.3-0.3-0.7-0.5-1.2-0.5c-6.3-0.6-12.5-1-18.8-1.3c10.9-14.5,22.5-28.6,33.5-43.1c-2.2,10.5-6.9,20.7-10.7,30.4   c-0.6,1.5,0.7,3,2,3.2c0.3,0.3,0.7,0.5,1.2,0.5c6.3,0.6,12.5,1,18.8,1.3C1522.2-216.4,1510.7-202.3,1499.7-187.8z"
       id="path46" /><path
       class="st1"
       d="M696.1-116c-8.2-16.2-27.1-19.7-43.7-18.6c-17.6,1.2-35.9,3.1-42.7,21.8   c-6.8,18.7-4.1,38.6,3.2,56.6c0.1,0.3,0.3,0.5,0.4,0.7c0.3,1,1.2,1.8,2.4,1.5c7.1-1.7,15.1-1.3,22.4-2.3c0.8-0.1,1.4-0.5,1.8-1.1   c1.1,0.4,2.4-0.2,2.3-1.8c-0.4-10.3-6.7-34.4,6.7-38.4c9.4-2.8,15.6,6.6,16.3,14.8c0.7,7.6-2.3,15.1-4.9,22.1   c-0.3,0.9-0.2,1.7,0.2,2.4c0.1,0.8,0.5,1.5,1.5,1.7c8.2,1.5,16.8,1.8,25.1,2.9c0.7,0.1,1.3,0,1.8-0.3c1.5,0.9,3.8,0.6,4.5-1.6   C699.5-73.2,705-98.3,696.1-116z M638-61.6c-7.1,0.9-14.5,3.2-21.6,3.6c-1.4-3.3-2.5-6.8-3.4-10.3c7.9-1,16.1-0.7,24.1-1.3   C637.3-66.7,637.7-64,638-61.6C638-61.6,638-61.6,638-61.6z M653.6-103.6c-16.8-1.7-18.4,15.1-17.2,29.6   c-8.1,0.4-16.4,1.7-24.5,1.7c-2.3-11.2-2-23.1,1-34.1c5.5-20.2,23.5-21.9,41.6-22.7c17.1-0.8,35,4.6,38.8,23.4   c2.1,10,1.4,20.7-0.7,31.1c-3.7-0.2-7.5-0.4-11.2-0.4c-3.7,0-7.9,0.5-11.6,0.1C671.7-88.1,669.4-102,653.6-103.6z M688.8-59   c-0.1,0-0.2-0.1-0.3-0.1c-7-1.1-14.8-2.1-22-1.8c1.1-3.1,2.1-6.6,2.8-10.3c7.1-1,15.3,0.4,22.5,1.3C690.9-66.2,689.9-62.5,688.8-59   z"
       id="path48" /><g
       class="st1"
       id="g50"><path
         d="M806.5-87.4c-8.1,9.8-17.6,18-26.7,26.8c-7.6-6.5-14.8-13.5-22.1-20.2c-1.3,1.8-2.6,3.5-3.8,5.3    c6.8,7.6,14.5,14.5,22.4,20.8c0.7,0.5,1.4,0.8,2.1,0.8c0.8,0.4,1.6,0.5,2.5,0c11.8-7.6,21.5-18.4,31-28.5    C815-85.7,809.5-90.9,806.5-87.4z"
         id="path52" /><path
         d="M740.4-79.9c1-1.8,2.1-3.5,3.3-5.1c0.5-0.7,1-1.3,1.5-2c-6.2-0.5-12.8,0.3-18.9,0.5    c-3.5,0.1-2.9,5.2,0.4,5.4C731.1-80.8,735.8-80.1,740.4-79.9z"
         id="path54" /><path
         d="M810.9-136.7c-8.7,14.3-17.9,28.4-26.3,42.9c-2.4-2.5-5.5-4.5-7.9-6.5c-3.4-2.7-6.9-5.2-10.6-7.5    c-1.7-1.1-3.3,0.1-3.6,1.7c-13.8,17.1-25.4,37.3-35.6,56.7c-1.5,2.9,2.9,5.6,4.7,2.7c11.4-18.1,23.8-35.7,34.8-54    c2.3,2.1,4.7,4.1,7.1,6.1c2.9,2.4,5.6,5.9,8.9,7.8c1,1.4,3,2.2,4.1,0.6c10.8-15.3,20.4-31.4,30.6-47.1    C819.5-137,813.3-140.6,810.9-136.7z"
         id="path56" /></g><g
       class="st1"
       id="g58"><path
         d="M913.7-123.8c-0.1-0.2-0.3-0.4-0.5-0.5c-0.1-0.1-0.2-0.1-0.3-0.2c-0.5-0.4-1-0.9-1.5-1.3    c-0.5-0.4-1-0.6-1.5-0.6c-7.4-4.6-15.5-7.5-23.6-8.4c0,0.1,0,0.2,0,0.3c-1.3-0.1-2.7,0.6-2.7,2.4c-0.5,14.7,0.3,29.4,0,44.1    c-15.1-0.5-30.3,1-45.3,0c-2.5-0.2-2.8,3.1-1.5,4.5c1.1,9.1,5.6,17.6,14.7,24.3c20.3,15.1,46.6,14.6,63.1-5.3    C929.1-81.7,930.7-108,913.7-123.8z M908.4-67.4c-13.9,15.4-33.8,15.5-50.9,4.9c-8.5-5.2-12.9-12.5-14.4-20.3    c13.8-0.5,27.9,0.8,41.7,0.2c0.2,0,0.3-0.1,0.4-0.1c1.5,0.5,3.4-0.2,3.4-2.3c0-0.2,0-0.3,0-0.5c0-0.1,0-0.2,0-0.3    c-0.5-14.4,0.3-28.8,0-43.2c6.1,1.1,12.3,3.2,18.3,6.1c0.1,0.5,0.4,0.9,0.8,1.4C924.3-106.5,922.9-83.5,908.4-67.4z"
         id="path60" /><path
         d="M836.8-93.2C836.9-93.2,836.9-93.2,836.8-93.2c0.5,0.9,1.3,1.7,2.6,1.7c12.7,0.3,26.2,1.4,38.8-0.1    c1.5-0.2,2.1-1.1,2.2-2.1c0.1-0.3,0.2-0.5,0.2-0.8c0.4-12.7,0.2-25.5-0.2-38.2c-0.1-2.4-2.7-3.1-4.1-2    c-11.1,1.2-21.6,6.6-29.3,17.2c-4.8,6.7-8.1,14-9.6,21.3c-0.7,0.7-0.9,1.9-0.5,2.9C836.9-93.3,836.8-93.3,836.8-93.2z     M853.7-116.9c6.4-7.6,13.8-11.4,21.7-12.6c-0.3,10.8-0.4,21.6-0.1,32.3c-10.3-0.9-21.1-0.4-31.6,0    C845.3-104.1,848.7-111,853.7-116.9z"
         id="path62" /></g><g
       class="st1"
       id="g64"><path
         d="M1031.7-140.3c0-0.7-0.3-1.2-0.6-1.7c-0.4-1.3-1.6-2.3-3.4-2c-2.4,0.4-5.6-0.1-8.1-0.1    c-2.4,0-4.8-0.1-7.1,0.2c-0.7,0.1-1.1,0.4-1.3,0.7c-1.2,0.2-2.3,1-2.3,2.7c-0.2,27.3-0.9,54.6-0.2,81.9c0.1,2.2,1.8,3.1,3.4,3    c5.1,0,10.3,0.5,15.4,0.4c0.8,0,1.4-0.3,1.9-0.7c1-0.1,1.9-0.7,2-2.1C1033.4-84.9,1033-113.3,1031.7-140.3z M1014.8-61.5    c0.5-25.6,0-51.1-0.2-76.7c2,0.2,4.1,0.1,6.1,0.1c1.5,0,3.2-0.2,4.9-0.2c-1.1,25.1-1.6,51.5,0.1,76.6    C1022-61.8,1018.4-61.6,1014.8-61.5z"
         id="path66" /><path
         d="M997.6-116.3c-0.4-1.3-1.6-2.3-3.4-2c-2.4,0.4-5.6-0.1-8.1-0.1c-2.4,0-4.8-0.1-7.1,0.2    c-0.7,0.1-1.1,0.4-1.3,0.7c-1.2,0.2-2.3,1-2.3,2.7c-0.1,17.4-0.4,34.8-0.4,52.2c-1.3,1.5-0.5,4.5,1.6,5c6.3,1.3,13,1,19.4,0.8    c2.8-0.1,3.7-2.5,3.1-4.6c0.1,0,0.1,0,0.2,0c0.3-17.9-0.2-35.9-1-53.4C998.2-115.4,997.9-115.9,997.6-116.3z M991.1-64.2    c-3.2-0.1-6.5,0-9.7,0.2c0-16.2-0.3-32.4-0.4-48.6c2,0.2,4.1,0.1,6.1,0.1c1.5,0,3.2-0.2,4.9-0.2C991.3-96.9,990.9-80.5,991.1-64.2    z"
         id="path68" /><path
         d="M964.6-89c0-0.7-0.3-1.2-0.6-1.7c-0.4-1.3-1.6-2.3-3.4-2c-2.4,0.4-5.6-0.1-8.1-0.1    c-2.4,0-4.8-0.1-7.1,0.2c-0.7,0.1-1.1,0.4-1.3,0.7c-1.2,0.2-2.3,1-2.3,2.7c-0.1,9.2-0.2,18.3-0.3,27.5c-0.7,1.6,0.2,4.1,2,4.4    c6.4,1.1,13.5,0.5,20,0.5c3.2,0,3.7-3.7,2-5.6C965.3-71.3,965-80.2,964.6-89z M957.7-63.4c-3.3-0.1-6.7-0.1-10,0.1    c-0.1-7.9-0.2-15.7-0.2-23.6c2,0.2,4.1,0.1,6.1,0.1c1.5,0,3.2-0.2,4.9-0.2C958.1-79.3,957.8-71.4,957.7-63.4z"
         id="path70" /></g><path
       class="st1"
       d="M1137.5-134.7c0-0.5-0.1-0.9-0.3-1.2c-0.2-2.1-3.2-3.7-4.6-1.3c-6.5,11.2-13.9,21.8-18.7,33.9   c-4.3-3.5-8-7.8-11.9-11.7c-0.8-1.5-2.9-2.4-4-0.8c-2.7,3.7-5.9,7-8.5,10.8c-2.2,3.1-4.2,6.3-6.1,9.6c-2.4-0.8-4.8-1.9-7.1-2.7   c-2.9-0.9-5.8-1.8-8.8-2.2c-1.5-0.2-2.2,0.7-2.3,1.8c-0.2,0.2-0.5,0.4-0.7,0.8c-5.5,10.4-11.4,20.7-17.8,30.7   c-0.8,1.2-0.2,2.4,0.7,3.1c0.4,0.8,1.1,1.4,2.2,1.4c27.8,0.6,55.7,0.4,83.5,0.3c0.6,0,1.1-0.2,1.4-0.5c1.3,0.1,2.6-0.6,2.7-2.4   C1138.3-88.2,1138-111.5,1137.5-134.7z M1053.1-67.7c5.4-8.7,10.7-17.5,15.6-26.5c2.1,0.7,4.3,1.1,6.4,1.7c2.7,0.7,6.2,1.2,8.8,2.4   c0.9,0.4,1.7,0.4,2.3,0c0.5-0.2,1-0.6,1.4-1.2c3.5-6.3,7.4-13.2,12.2-18.7c4,4.6,8.7,8.2,13.4,12.2c0.4,0.5,1,0.9,1.6,1   c1.7,0.4,3-1.1,2.7-2.8c4.8-9,9.1-18.4,14.5-27.1c-0.3,19.6-0.5,39.3,0.4,58.8C1105.8-68,1079.4-68.2,1053.1-67.7z"
       id="path72" /><path
       class="st1"
       d="M1354-139.2c-11.2,11.6-23,22.7-34.7,33.8c-10.8-10.8-21.7-22.2-34.1-30.9   c-5.6-4-11.7,4-8.1,9.1c8.5,12.1,19.8,22.7,30.2,33.3c-9.7,9.3-19.2,18.8-28.2,28.8c-5.9,6.6,4,16,10.6,10.1   c9.8-8.8,19.2-18.3,28.4-27.8c9.7,10,19.9,19.9,31,28c5.8,4.3,12.4-4.3,8.6-9.6c-8-11-18-20.9-27.9-30.5   c11.2-11.8,22.3-23.6,34-34.9C1369.6-135.3,1359.9-145.2,1354-139.2z"
       id="path74" /><path
       class="st1"
       d="M1482-66.9c-15.1-21.8-30-44.6-42.5-68.1c-0.6-1.9-1.7-3.5-3.1-4.7c-0.1-0.1-0.1-0.1-0.2-0.2   c-2.8-2.2-6.5-2.5-9,1.1c-16.8,24.4-33.6,49.4-52.4,72.3c-0.8,0.7-1.3,1.6-1.6,2.6c-1.9,5.2,4.1,11.2,8.7,8.7   c30.1,2.8,61.4,2.1,91.6,1.4c3.1-0.1,5-1.6,6.1-3.6C1482.8-59,1484.7-62.9,1482-66.9z M1393.5-69.2c13.6-17.2,27.2-34.2,40-52   c10,17.2,20,34.4,30.5,51.3C1440.7-70.4,1416.9-70.7,1393.5-69.2z"
       id="path76" /><path
       class="st1"
       d="M1567.8-123.2c-0.1-1-0.5-2.1-1.3-3c-1.1-1.3-2.3-2.6-3.5-3.7c-2.4-2.6-5.4-4.7-8.8-6.2   c-16.8-8.9-38.8-5.5-52.8,8.4c-18.1,18-17.2,48.3,2.4,65c18.4,15.7,48.1,11.9,61.1-8.7C1573.6-85.2,1576-108,1567.8-123.2z    M1546.1-75c-12.5,10.1-30.6,6-38.4-7.7c-7.4-12.9-2.6-29.3,9.2-37.8c9.1-6.6,19.3-7.1,29.2-4.6c0.1,0.1,0.2,0.2,0.3,0.3   C1563.6-116.7,1559.3-85.7,1546.1-75z"
       id="path78" /><path
       class="st1"
       d="M1668.7-127.8c2.5-4.7-0.2-11.9-7.3-12.6c-22-2.1-44.2,1.1-66.2,1.9c-4.3,0.2-5.9,3.5-5.5,6.7   c-1.1,1-1.9,2.6-1.9,4.7c-0.1,20.9-4,43.1-1.4,63.7c0.1,1,0.5,1.9,0.9,2.8c0.6,2.4,2.2,4.5,4.6,5c10.6,2.4,22,1.8,32.8,1.9   c12,0.1,24.6,1.3,36.5-0.2c3.5-0.4,5.8-3.1,6.7-6.1c0.8-1.2,1.4-2.5,1.5-4.3C1670.8-84.5,1671.6-107.4,1668.7-127.8z M1626.6-69.7   c-8.2,0.1-16.4-0.3-24.6,0.3c1-18.4-1.6-37.6-1.8-55.9c17.9,0.9,35.9,3,53.9,2.2c-1.8,17.3-1.4,35.8-0.5,53   C1644.6-70.5,1635.6-69.8,1626.6-69.7z"
       id="path80" /><path
       class="st1"
       d="M265.5-186.7c-6.5-6.8-13.3-13.3-19.9-20c-6.4-6.4-14.1-12.5-20-19.4   c12.5-14.2,26.6-27.2,39.8-40.7c2.2-2.2-1.6-6.1-3.9-3.8c-13.6,13.3-26.7,27.5-41,40c-0.4,0.4-0.7,0.8-0.8,1.3   c-1.8,1-2.7,3.5-0.5,5.2c7.7,6.1,14.1,14.2,21,21.2c7,7.1,14,14.2,21.1,21.1C264.5-178.6,268.5-183.6,265.5-186.7z"
       id="path82" /><path
       class="st1"
       d="M288.2-202.7c6.8-6.5,13.3-13.3,20-19.9c6.4-6.4,12.5-14.1,19.4-20   c14.2,12.5,27.2,26.6,40.7,39.8c2.2,2.2,6.1-1.6,3.8-3.9c-13.3-13.6-27.5-26.7-40-41c-0.4-0.4-0.8-0.7-1.3-0.8   c-1-1.8-3.5-2.7-5.2-0.5c-6.1,7.7-14.2,14.1-21.2,21c-7.1,7-14.2,14-21.1,21.1C280.1-203.7,285-199.7,288.2-202.7z"
       id="path84" /><path
       class="st1"
       d="M483.9-249.4c-6.8,6.5-13.3,13.3-20,19.9c-6.4,6.4-12.5,14.1-19.4,20   c-14.2-12.5-27.2-26.6-40.7-39.8c-2.2-2.2-6.1,1.6-3.8,3.9c13.3,13.6,27.5,26.7,40,41c0.4,0.4,0.8,0.7,1.3,0.8   c1,1.8,3.5,2.7,5.2,0.5c6.1-7.7,14.2-14.1,21.2-21c7.1-7,14.2-14,21.1-21.1C492-248.3,487-252.4,483.9-249.4z"
       id="path86" /><path
       class="st1"
       d="M517.8-265.4c6.5,6.8,13.3,13.3,19.9,20c6.4,6.4,14.1,12.5,20,19.4   c-12.5,14.2-26.6,27.2-39.8,40.7c-2.2,2.2,1.6,6.1,3.9,3.8c13.6-13.3,26.7-27.5,41-40c0.4-0.4,0.7-0.8,0.8-1.3   c1.8-1,2.7-3.5,0.5-5.2c-7.7-6.1-14.1-14.2-21-21.2c-7-7.1-14-14.2-21.1-21.1C518.9-273.4,514.8-268.5,517.8-265.4z"
       id="path88" /><path
       class="st1"
       d="M671.5-241.9c0.2-3.4-3.5-4.7-5.2-3.2c-10.4-0.2-21.1,0.5-31.6-0.1c0.3-7.5-0.6-15.3,0.6-22.7   c0.1-0.8,0-1.4-0.2-1.9c-0.3-1-1.3-1.9-2.4-1.8c-1.8-0.4-3.8,0.5-3.5,2.9c0,0,0,0.1,0,0.1c-6,6.4-12.8,12.3-19.1,18.4   c-7.8,7.5-15.1,15.7-23.4,22.7c-2.6,2.1-0.6,5.7,1.7,6c14.1,12.1,25.5,27.5,39.8,39.5c1.3,2.7,7.2,2.4,5.8-2.1   c-1.2-3.7-0.5-8.6-0.5-12.5c0-2.7,0.1-5.3,0.2-8c11.2-0.4,22.5,0.4,33.8,0.1c1.5,0,2.3-0.9,2.6-1.9c0.5-0.4,0.9-1,0.9-2   C670.6-219.4,670.7-231,671.5-241.9z M630.1-210.9c-3.2-0.2-3.4,3.9-1.6,5.6c0.1,2.9,0.2,5.7,0.2,8.6c0,2.3,0.2,4.9,0.1,7.4   c-11.3-12.5-24.8-23-35.9-35.7c6.2-7.1,13.2-13.6,19.7-20.3c5.8-5.9,11.2-12.2,17.1-18.1c0.3,5.9-0.2,12,0.1,17.8   c0,0.1,0.1,0.2,0.1,0.3c-2.9,0.8-2.2,6.5,1.3,6.2c11.3-1.1,22.9-0.2,34.3-0.3c0.6,9.4,0.7,19.2,0.4,28.6   C654.1-211.2,642-210.3,630.1-210.9z"
       id="path90" /><path
       class="st1"
       d="M734.3-269c-3.4-0.2-4.7,3.5-3.2,5.2c-0.2,10.4,0.5,21.1-0.1,31.6c-7.5-0.3-15.3,0.6-22.7-0.6   c-0.8-0.1-1.4,0-1.9,0.2c-1,0.3-1.9,1.3-1.8,2.4c-0.4,1.8,0.5,3.8,2.9,3.5c0,0,0.1,0,0.1,0c6.4,6,12.3,12.8,18.4,19.1   c7.5,7.8,15.7,15.1,22.7,23.4c2.1,2.6,5.7,0.6,6-1.7c12.1-14.1,27.5-25.5,39.5-39.8c2.7-1.3,2.4-7.2-2.1-5.8   c-3.7,1.2-8.6,0.5-12.5,0.5c-2.7,0-5.3-0.1-8-0.2c-0.4-11.2,0.4-22.5,0.1-33.8c0-1.5-0.9-2.3-1.9-2.6c-0.4-0.5-1-0.9-2-0.9   C756.8-268.1,745.2-268.3,734.3-269z M765.3-227.6c-0.2,3.2,3.9,3.4,5.6,1.6c2.9-0.1,5.7-0.2,8.6-0.2c2.3,0,4.9-0.2,7.4-0.1   c-12.5,11.3-23,24.8-35.7,35.9c-7.1-6.2-13.6-13.2-20.3-19.7c-5.9-5.8-12.2-11.2-18.1-17.1c5.9-0.3,12,0.2,17.8-0.1   c0.1,0,0.2-0.1,0.3-0.1c0.8,2.9,6.5,2.2,6.2-1.3c-1.1-11.3-0.2-22.9-0.3-34.3c9.4-0.6,19.2-0.7,28.6-0.4   C765-251.6,765.9-239.6,765.3-227.6z"
       id="path92" /><path
       class="st1"
       d="M875.4-183c3.4,0.2,4.7-3.5,3.2-5.2c0.2-10.4-0.5-21.1,0.1-31.6c7.5,0.3,15.3-0.6,22.7,0.6   c0.8,0.1,1.4,0,1.9-0.2c1-0.3,1.9-1.3,1.8-2.4c0.4-1.8-0.5-3.8-2.9-3.5c0,0-0.1,0-0.1,0c-6.4-6-12.3-12.8-18.4-19.1   c-7.5-7.8-15.7-15.1-22.7-23.4c-2.1-2.6-5.7-0.6-6,1.7c-12.1,14.1-27.5,25.5-39.5,39.8c-2.7,1.3-2.4,7.2,2.1,5.8   c3.7-1.2,8.6-0.5,12.5-0.5c2.7,0,5.3,0.1,8,0.2c0.4,11.2-0.4,22.5-0.1,33.8c0,1.5,0.9,2.3,1.9,2.6c0.4,0.5,1,0.9,2,0.9   C852.9-184,864.6-183.8,875.4-183z M844.5-224.5c0.2-3.2-3.9-3.4-5.6-1.6c-2.9,0.1-5.7,0.2-8.6,0.2c-2.3,0-4.9,0.2-7.4,0.1   c12.5-11.3,23-24.8,35.7-35.9c7.1,6.2,13.6,13.2,20.3,19.7c5.9,5.8,12.2,11.2,18.1,17.1c-5.9,0.3-12-0.2-17.8,0.1   c-0.1,0-0.2,0.1-0.3,0.1c-0.8-2.9-6.5-2.2-6.2,1.3c1.1,11.3,0.2,22.9,0.3,34.3c-9.4,0.6-19.2,0.7-28.6,0.4   C844.7-200.4,843.8-212.5,844.5-224.5z"
       id="path94" /><path
       class="st1"
       d="M923.6-210.2c-0.2,3.4,3.5,4.7,5.2,3.2c10.4,0.2,21.1-0.5,31.6,0.1   c-0.3,7.5,0.6,15.3-0.6,22.7c-0.1,0.8,0,1.4,0.2,1.9c0.3,1,1.3,1.9,2.4,1.8c1.8,0.4,3.8-0.5,3.5-2.9c0,0,0-0.1,0-0.1   c6-6.4,12.8-12.3,19.1-18.4c7.8-7.5,15.1-15.7,23.4-22.7c2.6-2.1,0.6-5.7-1.7-6c-14.1-12.1-25.5-27.5-39.8-39.5   c-1.3-2.7-7.2-2.4-5.8,2.1c1.2,3.7,0.5,8.6,0.5,12.5c0,2.7-0.1,5.3-0.2,8c-11.2,0.4-22.5-0.4-33.8-0.1c-1.5,0-2.3,0.9-2.6,1.9   c-0.5,0.4-0.9,1-0.9,2C924.5-232.7,924.4-221.1,923.6-210.2z M965-241.2c3.2,0.2,3.4-3.9,1.6-5.6c-0.1-2.9-0.2-5.7-0.2-8.6   c0-2.3-0.2-4.9-0.1-7.4c11.3,12.5,24.8,23,35.9,35.7c-6.2,7.1-13.2,13.6-19.7,20.3c-5.8,5.9-11.2,12.2-17.1,18.1   c-0.3-5.9,0.2-12-0.1-17.8c0-0.1-0.1-0.2-0.1-0.3c2.9-0.8,2.2-6.5-1.3-6.2c-11.3,1.1-22.9,0.2-34.3,0.3c-0.6-9.4-0.7-19.2-0.4-28.6   C941-240.9,953.1-241.8,965-241.2z"
       id="path96" /><g
       class="st1"
       id="g98"><path
         d="M590.2-61.6c-14.2-23.4-28-47.2-43.3-69.9c0,0-0.1-0.1-0.1-0.1c-0.8-1.7-3-2.7-4.4-0.9    c-16.7,23-33.1,46.9-46.4,72.1c-1,1.8,0.9,3.5,2.5,3.1c0.1,0,0.3,0.1,0.4,0.1c13.2,1.6,27,0.8,40.3,0.8c14.9-0.1,30,0.5,44.9-0.3    c1.2-0.1,2-0.8,2.2-1.6C588.4-56.5,591.8-59,590.2-61.6z M584-61.9c-14.2-0.8-28.4-0.2-42.6-0.3c-12.9-0.1-26.2-0.8-39.1,0.4    c13.9-21.8,27.6-43.6,42.8-64.6c12.3,21.9,25.9,43.2,39.1,64.5C584-61.9,584-61.9,584-61.9z"
         id="path100" /><path
         d="M544.4-75.2c-0.9-0.2-1.9-0.3-2.8-0.4c-1,0-2.1,0.4-3,0.3c-1.1-0.1-1.7,0.6-1.9,1.5    c-0.9,1.5,0.2,4.1,2.3,4.1c1.7,0,3.3-0.5,5-0.5C547-70.2,547.1-74.4,544.4-75.2z"
         id="path102" /><path
         d="M541.3-107.4c-0.1,0.1-0.3,0.1-0.4,0.2c-0.7-0.1-1.5,0.2-1.7,1.2c-1.4,6-1.6,12.6-1.7,18.7    c0,3.2,1.2,6.6,5.1,6.5c3.6-0.2,5.1-3.9,4.9-7c-0.3-5.9-0.7-11.5-0.2-17.5c0.1-1.4-1.6-3-3-2.8C543.1-108,542.5-107.9,541.3-107.4    z"
         id="path104" /></g><g
       class="st1"
       id="g106"><path
         d="M1725.2-237.3c-0.1-0.9-0.6-1.5-1.3-2c-0.5-1-1.5-1.7-2.9-1.7c-3.9,0-7.8-0.1-11.8-0.2    c-0.3-13.2-2.4-27.8-16.8-26.3c-11.4,1.2-14.8,14-15.4,26.3c-4.5,0.2-8.9,0.5-13.3,1.1c-0.2,0-0.4,0.1-0.6,0.2    c-1,0.2-1.8,0.9-1.9,2.3c-0.5,15.5-1.7,31.2-0.6,46.7c0.1,1.2,0.7,2,1.4,2.4c0.3,0.4,0.7,0.8,1.2,1c19.1,7.9,40.8,6.9,60.3,1.1    c2.5-0.7,2.9-3.3,1.9-5.1C1727.3-206.4,1726.1-222.5,1725.2-237.3z M1690.6-259.4c8.7-5.3,12,6.7,13.3,18.1    c-6.5-0.1-13-0.2-19.5-0.1C1684.8-247.4,1685.6-256.3,1690.6-259.4z M1719.9-192.7c-18.1,5-34.9,4.3-53.2,0.9    c1-14.3,0-28.8-0.5-43c17.7,2,36.3,0.9,54.1,0.7C1719.3-220.6,1718.4-206.1,1719.9-192.7z"
         id="path108" /><path
         d="M1697.3-221.9c-2.4-2.5-6.7-2.2-8.5,0.8c-0.1,0.1-0.1,0.2-0.2,0.3c0,0,0,0,0,0c0,0,0,0,0,0    c-0.4,0.7-0.6,1.6-0.6,2.5c0,0.5,0.1,1,0.2,1.5c0,0.1,0.1,0.1,0.1,0.2c0.1,0.4,0.3,0.7,0.4,1c0,0.1,0.1,0.2,0.2,0.2    c0.2,0.3,0.4,0.6,0.6,0.9c0,0,0.1,0.1,0.1,0.1c0.4,0.4,0.8,0.7,1.2,1c0,0.1,0,0.2,0,0.3c-0.3,0.5-0.5,1-0.7,1.4    c-0.4,1.2-0.8,2.5-1.1,3.7c-0.4,1.6,1,3.1,2.6,3.2c1.5,0.1,3.1,0.3,4.6,0.4c1.7,0.1,3-1.9,2.3-3.4c-0.8-1.8-1.5-3.7-2.4-5.6    C1698.9-215,1699.8-219.3,1697.3-221.9z"
         id="path110" /></g><g
       class="st1"
       id="g112"><path
         d="M1813.2-237.3c-0.1-0.9-0.6-1.5-1.3-2c-0.5-1-1.5-1.7-2.9-1.7c-3.9,0-7.8-0.1-11.7-0.2    c0.1-14.4,0.5-35.7-16.9-34c-9.5,1-13.4,9.9-14.8,20c2.5-0.4,4.9-0.3,7.4,0.2c0.7-4.9,2.1-9.9,5.6-12.1    c10.7-6.5,13.3,13.2,13.9,25.7c-13.7-0.3-27.5-0.5-40.8,1.2c-0.2,0-0.4,0.1-0.6,0.2c-1,0.2-1.8,0.9-1.9,2.3    c-0.5,15.5-1.7,31.2-0.6,46.7c0.1,1.2,0.7,2,1.4,2.4c0.3,0.4,0.7,0.8,1.2,1c19.1,7.9,40.8,6.9,60.3,1.1c2.5-0.7,2.9-3.3,1.9-5.1    C1815.3-206.4,1814.1-222.5,1813.2-237.3z M1807.9-192.7c-18.1,5-34.9,4.3-53.2,0.9c1-14.3,0-28.8-0.5-43    c17.7,2,36.3,0.9,54.1,0.7C1807.3-220.6,1806.4-206.1,1807.9-192.7z"
         id="path114" /><path
         d="M1785.3-221.9c-2.4-2.5-6.7-2.2-8.5,0.8c-0.1,0.1-0.1,0.2-0.2,0.3c0,0,0,0,0,0c0,0,0,0,0,0    c-0.4,0.7-0.6,1.6-0.6,2.5c0,0.5,0.1,1,0.2,1.5c0,0.1,0.1,0.1,0.1,0.2c0.1,0.4,0.3,0.7,0.4,1c0,0.1,0.1,0.2,0.2,0.2    c0.2,0.3,0.4,0.6,0.6,0.9c0,0,0.1,0.1,0.1,0.1c0.4,0.4,0.8,0.7,1.2,1c0,0.1,0,0.2,0,0.3c-0.3,0.5-0.5,1-0.7,1.4    c-0.4,1.2-0.8,2.5-1.1,3.7c-0.4,1.6,1,3.1,2.6,3.2c1.5,0.1,3.1,0.3,4.6,0.4c1.7,0.1,3-1.9,2.3-3.4c-0.8-1.8-1.5-3.7-2.4-5.6    C1786.9-215,1787.8-219.3,1785.3-221.9z"
         id="path116" /></g><g
       class="st1"
       id="g118"><path
         d="M1996.8-261.1c-0.7-1.1-2.1-1.4-3.2-1c-20.6-22.6-56.1,4.9-43.5,30.5c-7.3,12.9-15.7,25.1-22.8,38.2    c-0.4,0.8-0.3,1.5,0,2.2c-0.2,0.8,0.1,1.7,0.6,2.5c0.4,3.5,0.9,7.1,0.9,10.6c0,1,0.5,1.7,1.2,2c0.8,1.3,2.3,2.1,3.8,0.5    c0.5-0.5,1.7-0.5,2.5-0.6c1.1-0.2,2.2-0.5,3.3-0.7c2-0.5,4.1-0.8,6-1.5c0.1,0,0.1-0.1,0.2-0.1c0.7,0.1,1.3-0.2,1.8-0.9    c2.6-3.7,3.7-6.9,2.5-10.7c0.4-0.1,0.9-0.3,1.5-0.5c0.8-0.3,3.5-3.2,4.2-3.1c0.9,0.1,1.8-0.7,1.9-1.6c0.2-1.8,0.3-3.5,0.5-5.3    c2-0.4,2.9-1.7,3.9-4c2.1-4.7,3.8-7.9,7-11.2c7.6,2,15.9,0.8,22.4-4.8C2003.2-230.7,2004.9-248.4,1996.8-261.1z M1991.9-231.6    c-4.7,8-13.2,11-21.2,9.3c-1-0.7-2.3-0.8-3.4,0.2c-2.3,2.2-4.7,4.4-6.5,7.1c-0.9,1.4-3.9,9.8-5,9.9c-0.9,0-1.9,0.7-2,1.7    c-0.1,1.8-0.2,3.7-0.3,5.5c-2.4,0.9-3.2,3.9-6.6,3.9c-1.6,0-2.3,1.8-1.4,3.1c-0.5,2.4-1,4.8-1.4,7.3c-0.1,0.1-0.3,0.2-0.4,0.2    c-1.9,0.2-3.7,0.7-5.5,1.2c-0.9,0.3-1.8,0.6-2.7,0.9c-0.4,0.2-1.5,0.8-2.4,1.1c-0.2-1.3-0.4-2.7-0.5-4c-0.1-0.8-0.2-1.6-0.3-2.4    c-0.1-0.5-0.6-2-0.4-2.5c0.4-0.8,0.3-1.6-0.1-2.4c6.7-13.4,14.3-28,23.8-39.4c1-1.2,0.7-2.5-0.1-3.4c-3.9-8.4-1.9-18.6,5.2-25.1    c9.7-8.8,22.7-6.3,31.8,1.8c0,0,0.1,0.1,0.1,0.1C1996.2-249,1996.7-239.8,1991.9-231.6z"
         id="path120" /><path
         d="M1988.4-256.4c-0.7-0.3-1.4-1.4-2-2c-0.9-0.7-2-1.3-3.1-1.7c-2.2-0.7-4.4-0.6-6.5,0.3    c-4.6,2-6.1,7.3-4,11.8c2,4.1,6.7,6.4,11.1,5.2c5.1-1.4,7.6-6.5,5.9-11.4C1989.8-255.1,1989.3-256,1988.4-256.4z M1976.6-250    c-1-2.4,0.5-4.9,3-5.5c1.9-0.5,3.8,0.4,5.1,1.7c0.1,0.6,0.3,1.1,0.7,1.5C1985.7-247.5,1978.6-245,1976.6-250z"
         id="path122" /></g><g
       class="st1"
       id="g124"><path
         d="M314.2-132.1c-13.1-0.5-26.3,0-39.5,0c-10.8,0-21.9-0.8-32.6,0.6c0.1-0.9,0-1.9,0.1-2.8    c0.1-1.6,0.3-3.1-0.5-4.5c-0.2-0.9-0.8-1.6-1.7-1.8c-2.9-0.6-5.8-0.7-8.8-0.7c-3,0.1-6-0.3-8.9,0.2c-2.9,0.5-2.4,5.1,0.3,5.6    c2.9,0.6,6,0.1,8.9,0.2c1.9,0,3.8-0.1,5.6-0.3c0,0.3,0,0.6,0.1,0.9c0,0.9,0,1.8,0.1,2.8c-0.5,0.5-0.8,1.2-0.4,2.1    c6.6,17,10.9,35,16.1,52.5c0.2,0.6,0.5,1,0.8,1.4c0.3,0.6,0.8,1.1,1.4,1.2c15.9,2.5,34,1.2,50.1,0.9c3.9-0.1,3.6-6-0.3-6.1    c-15.1-0.3-31.7-1.3-46.8,0.5c-0.2-0.7-0.4-1.4-0.6-2c16.2-7.3,33.2-12.4,50.7-15.5c0.5,0,1-0.1,1.4-0.3c1.6-0.4,2.1-1.8,1.8-3.1    c2.8-9.1,3.7-18.3,5.4-27.6c0.2-0.4,0.3-0.9,0.2-1.3C317.3-131.2,315.6-132.3,314.2-132.1z M306.6-103.1    c-17.7,3.2-34.4,8.9-50.4,17c-4.3-13.8-9.6-27.4-14-41.1c10.8,1.5,22.1,0.6,32.9,0.6c12.4,0,24.9,0.4,37.3,0    C311.1-118.7,308.7-110.8,306.6-103.1z"
         id="path126" /><path
         d="M265.2-68.8c-2.1-3.6-8.3-3.6-11.2-0.9c-3.4,3.1-2,7.9,1.4,10.2c3.6,2.5,8.8,1.5,10.6-2.7    c0.8-1.9,0.4-4.1-0.7-5.7C265.4-68.3,265.3-68.6,265.2-68.8z M260.9-63.7c-1.1,1.1-3.1,0.7-4-0.6c-1.2-1.5,0.7-3,2.1-3.2    c0,0,0,0,0,0c0.3,0.5,0.7,0.9,1.3,1.1C261.7-66,261.9-64.7,260.9-63.7z"
         id="path128" /><path
         d="M305.9-68.8c-2.1-3.6-8.3-3.6-11.2-0.9c-3.4,3.1-2,7.9,1.4,10.2c3.6,2.5,8.8,1.5,10.6-2.7    c0.8-1.9,0.4-4.1-0.7-5.7C306.1-68.3,306-68.6,305.9-68.8z M301.6-63.7c-1.1,1.1-3.1,0.7-4-0.6c-1.2-1.5,0.7-3,2.1-3.2    c0,0,0,0,0,0c0.3,0.5,0.7,0.9,1.3,1.1C302.4-66,302.6-64.7,301.6-63.7z"
         id="path130" /></g><g
       class="st1"
       id="g132"><path
         d="M410.6-111.1c-2.5-2.8-5.1-5.5-7.7-8.3c-0.1,0-0.1,0.1-0.1,0.1c-0.6-1.6-2.9-2.7-4.4-1    c-3.9,4.3-10,3.7-13.2-1.1c-2.6-3.9-1.8-9.3,0.6-13.1c0.3-0.4,0.3-0.9,0.2-1.2c0,0,0,0,0.1-0.1c0,0-0.1-0.1-0.1-0.1    c-0.2-0.5-0.6-0.9-1.2-1.1c-2.4-2.2-4.8-4.5-7.2-6.6c-1.2-1.1-2.7-0.4-3.1,0.7c-0.2,0.1-0.4,0.2-0.5,0.3    c-18.4,17-35.9,35.4-53.2,53.5c-0.2,0.2-0.4,0.5-0.4,0.7c-0.4,0.5-0.5,1.2,0.1,1.9c2.5,3.1,5.2,6.1,8,9.1c0,0,0.1-0.1,0.1-0.1    c0.9,0.7,2.4,0.9,3.1-0.4c2.9-5.2,9.2-2.6,11.9,1.2c2.1,2.9,4.7,9.9,1.6,12.9c-1.3,1.2-0.6,2.9,0.7,3.6c2.5,2.2,4.9,4.5,7.4,6.6    c0.1,0,0.1,0.1,0.2,0.1c0.7,0.9,2.2,1.3,3.3,0.4c9.3-8.3,18.1-17.3,26.8-26.2c8.7-8.9,18.3-17.2,26.4-26.6    c0.5-0.6,0.7-1.2,0.6-1.8C411.3-108.4,411.7-109.9,410.6-111.1z M379.5-82.8c-8.4,8.2-16.8,16.5-24.7,25.2    c-1.5-1.7-3.1-3.5-4.7-5.2c2.8-5.9-0.6-14.4-5-18.7c-4.3-4.2-10.8-5-14.9-1.2c-1.8-1.6-3.7-3.3-5.5-4.8    c17.5-16.8,35.3-33.7,51.7-51.5c1.5,1.6,2.9,3.2,4.4,4.8c-3.3,5.9-3.4,13,1.9,18.2c4.8,4.6,11.9,5.1,17.1,1.4c2,1.9,4,3.8,6,5.6    C396.6-101,388.3-91.4,379.5-82.8z"
         id="path134" /><path
         d="M390.4-103.6c-6.4-6.8-13-13.5-19.7-20.1c-1.1-1.1-2.5-0.7-3.2,0.2c-0.2,0-0.4,0.1-0.5,0.2    c-10.3,7.3-19.4,18.6-27.9,27.9c-0.6,0.7-0.6,1.5-0.3,2.1c0.1,0.2,0.3,0.5,0.6,0.7c7.4,6.2,12.8,15,20.7,20.6    c0.2,0.2,0.5,0.3,0.8,0.3c0.6,0.3,1.3,0.3,1.8-0.1c5.1-3.6,9.1-8.4,13.5-12.7c5-4.9,10.3-9.7,14.7-15.1c0.9-1.1,0.6-2.2-0.1-2.9    C390.9-102.8,390.8-103.2,390.4-103.6z M372.7-87.8c-3.8,3.9-7.8,7.4-11.2,11.6c-5.3-6.5-12.5-11.4-18.1-17.7    c8.7-7.8,18.6-16.2,25.6-25.4c5.9,5.9,11.8,11.9,17.9,17.6C381.8-97.5,377.3-92.5,372.7-87.8z"
         id="path136" /></g></g><g
     class="st0"
     id="g138"><g
       class="st1"
       id="g140"><path
         d="M822.7-864.3c-18.4-0.3-32.6,14-36.4,31.3c-5.3,24,8.9,42.4,22.3,60.6c1.5,2,3.5,1.9,4.8,0.8    c1.3,0.8,2.9,0.9,4.2-0.3c16.6-15.4,29.5-36.8,30.9-59.9C849.7-848.8,841.4-864,822.7-864.3z M834.9-807.3    c-5.2,11.6-13,21.4-22.2,30.1c-20.9-19.3-36.7-71.6,3.8-79.2C847.1-862.1,842.7-824.7,834.9-807.3z"
         id="path142" /><path
         d="M830.1-842.4c-0.2-0.7-0.8-1.3-1.7-1.7c-5.1-2.1-8.5-4.7-14.3-3.8c-3.9,0.6-7.3,2.6-9.8,5.6    c-5.2,6.4-3.7,16.2,3,21c6.9,4.9,18.5,4.4,24.5-1.7C837.2-828.7,836.9-838.2,830.1-842.4z M822.5-825.5c-4.1,1.3-9.8,1.2-13-2    c-3.6-3.7-2.4-9.2,1.4-12.3c3.2-2.6,10.6-3.7,13.3,0.4c0.7,1,1.4,1.5,2.2,1.7C832.3-833.9,827.4-827.1,822.5-825.5z"
         id="path144" /></g><path
       class="st1"
       d="M1062.8-840.3c0-0.8-0.3-1.5-0.8-1.9c-0.1-0.5-0.4-0.9-0.8-1.3c-5.2-5.2-10.3-10.5-15.5-15.7   c-0.1-0.1-0.2-0.2-0.4-0.3c0.1-1.2-0.6-2.5-1.6-3c-1.7-1.3-4.4-0.9-4.4,1.9c-3.8,3.1-7.1,6.9-10.4,10.3c-3.3,3.3-6.6,6.7-9.9,10   c-6.7-7.1-14.5-13.1-20.9-20.5c-0.6-2.4-3.8-3.2-5-1.5c-0.4,0.1-0.9,0.3-1.3,0.7c-2.5,2.4-4.9,4.9-7.4,7.3   c-2.5,2.5-4.9,5.5-7.7,7.7c-0.8,0.6-1.1,1.3-1.2,2.1c-0.3,0.4-0.5,0.9-0.5,1.6c0.5,21.3-0.1,42.6-0.2,63.9c0,2.4,2.2,3.4,4,2.9   c0.9,0.4,1.9,0.2,2.8-0.8c4.5-5.3,10.6-9.5,14.9-15c3.1,2.7,5.7,6,8.6,8.8c3.4,3.2,6.6,6.5,10,9.8c1.3,1.2,2.6,0.8,3.4-0.1   c1,0.7,2.4,0.9,3.4-0.4c6.3-7.5,14-14.2,21.1-21.1c4.7,4.4,8.6,9.7,13.8,13.5c0,0.2,0,0.3,0,0.5c0.1,3.7,5.6,3.9,5.7,0   C1063-800.8,1063.6-820.6,1062.8-840.3z M993.1-796.6c-4.4,3.4-8,8-12,12.1c-0.1-19.3-0.6-38.5-0.1-57.8c2.2-2.7,5-5.1,7.4-7.5   c1.6-1.6,3.1-3.1,4.7-4.7C994-835.3,992.7-815.9,993.1-796.6z M1016-779.7c-2.4-2.5-4.9-4.9-7.3-7.5c-3.3-3.5-7.6-6.6-10.3-10.6   c-0.1-0.1-0.1-0.2-0.2-0.2c0.3-18.5-0.9-37.2,0-55.7c5.9,5.7,11.1,12.1,17.1,17.8c-0.2,0.8,0.1,1.7,0.6,2.4   C1015.6-815.6,1016.4-797.6,1016-779.7z M1039.7-800.2c-3.3,3.3-6.6,6.6-9.9,10c-2.8,2.8-5.4,5.8-8.2,8.6   c-0.4-16.8,0.3-33.6,0.3-50.4c1.2-0.6,1.9-2.2,1.2-3.7c3.2-3.3,6.5-6.5,9.7-9.7c2.3-2.3,4.8-4.5,7.2-6.9   C1040.4-835,1038.6-817.5,1039.7-800.2z M1045-800.9c0.8-17-0.8-34.1-0.2-51.1c4,4,8,7.9,12,11.9c-0.7,16.9-0.3,33.9,0,50.8   C1053-793.3,1048.5-796.7,1045-800.9z"
       id="path146" /><path
       class="st1"
       d="M725.4-860c-1.2-0.2-2.1,0-2.8,0.5c-18.4-5.9-43.4,6.5-53.2,21.6c-14.6,22.5-4,52,19.7,62.7   c23.7,10.7,52.2-2.3,61.6-25.9C759.6-823.2,751.5-854.9,725.4-860z M711.1-779.6c-0.3-3.3,0.2-7,0.2-10.2c0-3.9,0.2-7.9,0-11.8   c-0.1-3.6-5.4-3.9-5.5-0.1c-0.1,3.9,0,7.9,0,11.8c0.1,3.4,0.4,7.1,0.1,10.5c-3.3-0.1-6.7-0.5-10.3-1.6   c-14.5-4.5-24.4-17.5-25.7-31.7c5.3,0.1,10.9,0.5,16-0.4c2.9-0.5,2.1-5.2-0.4-5.7c-4.9-0.9-10.4-0.5-15.6-0.4   c0.3-3.8,1.3-7.6,3-11.3c5.4-11.9,18.8-20.8,32.6-23.5c0,6.2-0.5,12.7,0.3,18.8c0.4,2.9,5.1,4.4,5.5,0.8c0.8-6.5,0.3-13.3,0.3-19.8   c0-0.2-0.1-0.4-0.1-0.6c3.5-0.2,7,0,10.3,0.8c0.5,0.6,1.2,1.1,2.1,1.3c16.4,4,23,16.4,22.6,29.9c-6.3,0.2-12.7-0.4-19,0   c-4.1,0.3-3.3,6,0.4,6.3c6,0.4,12-0.1,18,0C742.8-799.2,729.4-782.1,711.1-779.6z"
       id="path148" /><path
       class="st1"
       d="M948.3-854.5c-0.5-1.7-2.3-3.2-4.5-2.1c-26.6,13.5-52.2,26.8-76.1,44.8   c-0.1,0.1-0.2,0.2-0.3,0.3c-1.5,0.2-3,0.5-4.4,0.9c-1.7,0.4-1.1,3,0.3,3.4c11.6,3,25.7,1.6,37.8,1.3c0.9,10.4,0.4,22.3-0.7,32.2   c-0.5,4.8,6.9,5.6,6.4,0.9c0-0.4-0.1-0.8-0.1-1.2c0.1-0.1,0.1-0.1,0.2-0.2c14.1-25.3,26.6-52.2,42.4-76.5   C950.1-852.1,949.4-853.6,948.3-854.5z M905.9-782.7c-0.6-9-0.6-18.5,0.6-26.9c0-0.2,0-0.3,0-0.5c10.4-10.7,21.1-21.2,31.7-31.8   C928.2-821.8,916.6-802.3,905.9-782.7z"
       id="path150" /><path
       class="st1"
       d="M253.7-838.4c-4.3-8.4-13.3-13.8-22.7-13.3c-9.7,0.6-15.6,6.5-20.1,14.1   c-9.3-17.5-36-17.7-44.4,1.7c-13,30.3,27.6,39,43.4,53.7c0.2,0.2,0.4,0.3,0.7,0.4c-0.3,3,3.6,6,5.9,3.2   C229.9-794.3,267.3-811.7,253.7-838.4z M239.3-808.3c-7.4,7.9-16.8,13.4-24.5,21.1c-0.1-0.1-0.1-0.1-0.1-0.2   c-10.8-10.8-27-13.3-37.6-24c-8.8-8.9-7.7-23.8,3.3-30.5c10.5-6.4,22.3,0.2,28,9.5c0.3,0.5,0.7,0.8,1.2,1c1.5,2.3,5.7,3.1,6.3-0.6   c2.5-13.8,21.4-17,29.6-6.6C253.1-828.7,246.7-816.2,239.3-808.3z"
       id="path152" /><path
       class="st1"
       d="M355.4-828.9c-9.3-1.6-18.4,0.4-27.6,1.5c-2.2-10.7-7.3-21-8.3-32c0-0.3,0-0.6-0.1-0.9   c0-0.4-0.1-0.7-0.1-1.1c-0.2-3.9-6-3.3-5.4,0.1c-1.8,5.7-3.9,11.3-5.8,16.9c-1.7,5-3,10.7-5.8,15.1c-4.3,0.7-8.7,0.5-13,1.1   c-4.7,0.7-9.3,1.6-13.9,2.9c-2.6-0.5-4.7,4.2-0.8,5.5c4,1.4,8.1,4.9,11.8,7.2c3.2,2,6.4,4.1,9.5,6.1c-1.5,9.1-4.5,18-4.8,27.2   c-1.1,1-0.9,2.4,0,3.4c0,0.1,0,0.1,0,0.2c0.1,2,2.6,2.7,3.5,1c0.4-0.2,0.8-0.6,1-1.2c0.7-2,3.2-3.5,4.7-4.9   c1.8-1.7,3.6-3.5,5.4-5.2c3-3,6.4-5.9,9.1-9.2c4.1,2.9,7.9,7.3,11.5,10.6c3.5,3.3,7.1,6.5,10.9,9.6c0.6,3.7,7.5,1.9,4.9-2   c-2.6-4-3.1-10.3-4.4-14.9c-1.2-4.3-2.3-8.6-3.9-12.7c4.1-3.1,8-6.4,12.1-9.6c4-3.2,8.1-7.5,12.6-9.9   C361.3-825.6,358-830.4,355.4-828.9z M341.3-817.3c-3.8,3.1-7.7,6.2-11.5,9.4c-0.7,0.6-0.7,1.4-0.5,2.1c-0.2,0.3-0.3,0.7-0.2,1.2   c0.8,4.4,2,8.7,3.3,13c0.8,2.9,2.3,6.3,3.3,9.6c-2.1-2-4.3-4-6.5-6c-4-3.6-9.4-7.4-12.6-11.8c-1.6-2.1-3.6-1.4-4.5,0   c-3.4,2.6-6.3,6-9.3,9.1c-1.6,1.6-3.1,3.1-4.7,4.7c-0.4,0.4-0.9,1.1-1.4,1.7c1.2-7.2,1.9-14.6,4.4-21.4c0.4-1.2,0.1-2.3-0.6-3.1   c-0.2-0.6-0.6-1.2-1.3-1.6c-3.7-2.1-7.3-4.4-10.9-6.6c-2.3-1.4-5-2.7-7.5-4.3c7.6-1.9,16.2-4.1,23.4-2.9c2.5,0.4,3.4-1.5,3-3.2   c0.7-5.7,3.8-11.7,5.8-17c1.1-2.9,2.1-5.7,3.2-8.6c2.2,9.2,3.3,18.9,7.2,27.5c-0.5,1.7,0.7,4,2.7,3.9c0.6,0.2,1.3,0,1.7-0.4   c7.2-2.1,14.6-1.9,21.9-1.9C347.1-821.6,343.9-819.5,341.3-817.3z"
       id="path154" /><g
       class="st1"
       id="g156"><path
         d="M466.5-841.9c0.2-2-1.1-3.8-3.2-4c-10.2-0.6-19.1,1.3-28.9,2.5c-0.2-6.4-1.5-12.9-7.1-16.9    c-4.6-3.3-9.7-3.5-14.4-0.5c-0.8,0.5-1.3,1.5-1.2,2.5c2.1,14.9,5.3,37.3-7.3,48.7c-0.9-3.9-1.9-7.8-3-11.7c-0.4-1.4-2.4-3-3.9-2.3    c-5,2.1-10.4,4.7-15.9,5.2c-1.2,0.1-2,0.6-2.5,1.3c-1.5,0.4-2.7,1.8-2,4.1c3.4,10.9,3.1,24,4.4,35.3c0.2,1.7,1.5,3.1,3.3,3.2    c5.6,0.4,11.2,1,16.8,1.8c1.2,0.2,2.1-0.1,2.8-0.6c2,1.2,5,0.4,4.8-2.6c-0.1-2-0.4-3.9-0.5-5.9c0,0,0.1,0,0.1,0    c15.7,1.4,35.9,6.2,48.1-6.8C470.2-802.7,464.5-824.7,466.5-841.9z M402.2-780c-4.9-0.5-9.9-0.8-14.9-0.8    c-1.4-10-3.8-20.9-3.4-30.8c4.2-1.6,8.5-2.8,12.7-4.5c3.2,11.9,5.2,23.9,6,36.2C402.4-779.9,402.3-780,402.2-780z M456.7-796.6    c-8.9,17.3-33,9.3-48.4,8.1c-0.1,0-0.2,0-0.3,0c-0.5-4.4-1.2-8.8-2-13.1c0.1-0.1,0.2-0.2,0.3-0.3c6.6-8.2,11.3-16.2,12.5-26.9    c0.6-5.7,0.6-11.4,0.1-17.1c-0.2-1.9-4-18.2,6.9-8.9c2.8,2.4,3.8,8,4.1,12.6c-2.3,2.2,0,7.6,3.5,6.2c8.5-3.5,17.9-3.7,27.1-3.6    C460.2-825.4,463.4-809.6,456.7-796.6z"
         id="path158" /><path
         d="M394.2-807.9c-1.5-1.3-3.4-1.4-4.9,0c-0.1,0.1-0.1,0.1-0.2,0.2c-2.3,2.3,0,6.5,3,6.5    c3.3,0,4.6-4.4,2.2-6.5C394.3-807.8,394.3-807.8,394.2-807.9z"
         id="path160" /></g><g
       class="st1"
       id="g162"><path
         d="M567.3-822.2c-3.4-10.9-3.2-24.2-4.4-35.6c-0.2-1.8-1.5-3.2-3.3-3.3c-5.7-0.4-11.3-1-16.9-1.8    c-1.2-0.2-2.1,0.1-2.8,0.6c-2-1.2-5-0.4-4.8,2.7c0.1,2,0.4,4,0.5,6c0,0-0.1,0-0.1,0c-15.8-1.4-36.2-6.2-48.4,6.8    c-13.4,14.2-7.7,36.4-9.6,53.8c-0.2,2,1.1,3.9,3.2,4c10.3,0.6,19.2-1.4,29.2-2.5c0.2,6.5,1.5,13,7.2,17c4.6,3.3,9.7,3.5,14.5,0.5    c0.8-0.5,1.3-1.5,1.2-2.5c-2.1-15-5.4-37.6,7.4-49.1c0.9,3.9,1.9,7.8,3,11.7c0.4,1.5,2.4,3,4,2.4c5.1-2.1,10.5-4.8,16-5.3    c1.2-0.1,2-0.6,2.5-1.3C566.9-818.5,568-819.9,567.3-822.2z M538-833.3c-6.7,8.3-11.3,16.3-12.6,27.1c-0.6,5.7-0.6,11.5-0.1,17.2    c0.2,1.9,4,18.3-7,8.9c-2.9-2.5-3.8-8.1-4.2-12.7c2.4-2.2,0-7.6-3.5-6.2c-8.6,3.5-18,3.8-27.3,3.6c0.3-14.5-3-30.3,3.7-43.4    c9-17.4,33.3-9.4,48.8-8.1c0.1,0,0.2,0,0.3,0c0.5,4.4,1.3,8.8,2.1,13.2C538.2-833.6,538.1-833.5,538-833.3z M560.6-823.5    c-4.3,1.6-8.6,2.8-12.8,4.5c-3.2-12-5.2-24.1-6-36.5c0.1,0,0.2,0.1,0.4,0.1c5,0.6,10,0.8,15,0.8    C558.6-844.5,561-833.6,560.6-823.5z"
         id="path164" /><path
         d="M552.2-834.1c-3.3,0-4.6,4.5-2.2,6.6c0.1,0,0.1,0.1,0.2,0.1c1.5,1.3,3.5,1.4,4.9,0    c0.1-0.1,0.1-0.1,0.2-0.2C557.6-829.9,555.2-834.1,552.2-834.1z"
         id="path166" /></g><path
       class="st1"
       d="M248.5-744c-7.7-8.5-19.2-7.6-29.7-7.4c-12.8,0.3-28.1-1.4-40.6,1.5   c-8.9,2.1-10.8,7.3-11.8,15.8c-1.1,9.7-4,25,0.5,34.1c4.9,9.8,14.6,8.7,23.7,7.5c0.1,2.8,0.2,5.6,1.3,8.5c1.3,3.6,3.6,6.9,6.4,9.5   c5.8,5.2,14.1,7.3,21.7,5.2c0.4,0.2,0.8,0.4,1.2,0.5c3,1.1,3.6-3.3,1.5-4.7c-0.2-0.1-0.3-0.2-0.5-0.3c-0.3-0.4-0.7-0.7-1.2-0.8   c-2.1-1.5-3.9-3-5.1-5.5c-1.1-2.4-1.8-6.7-0.5-9.5c10.4-0.3,22.8,4.1,31.8-2.9c7.2-5.5,7.7-15.5,8.2-23.9   C256-726.1,255.4-736.4,248.5-744z M233.8-694.6c-5.8,0.9-13.9-1.6-20-1.2c-2.2,0.1-3,2-2.7,3.7c-0.5,2.1-1.2,4-1.2,6.2   c0,2.6,0.6,5.3,1.6,7.7c0.7,1.5,1.5,3,2.6,4.3c-4.2,0.2-8.3-0.8-12-3.4c-4.6-3.3-9.4-11.8-6.6-17.5c1.7-3.6-3.3-5.2-4.8-3.2   c-11.4,3.3-18.2-2.5-19.7-15.5c-0.6-5-0.4-19.2,1.6-23.4c5.3-11.4,31.9-7.1,41.4-7.3c8.5-0.2,21.9-2.2,28.7,4   c5.1,4.7,6,12.9,6,19.3C248.7-710.5,248.1-696.8,233.8-694.6z"
       id="path168" /><g
       class="st1"
       id="g170"><path
         d="M362.6-742.4c-6.1-6.8-15.2-6.1-23.6-5.9c-10.2,0.2-22.4-1.1-32.3,1.2c-7.1,1.7-8.6,5.8-9.4,12.6    c-0.9,7.7-3.2,19.8,0.4,27.1c3.9,7.8,11.6,6.9,18.8,6c0.1,2.3,0.2,4.4,1,6.7c1.1,2.9,2.8,5.5,5.1,7.5c4.6,4.2,11.2,5.8,17.2,4.2    c0.3,0.1,0.6,0.3,1,0.4c2.4,0.8,2.9-2.6,1.2-3.8c-0.1-0.1-0.2-0.2-0.4-0.2c-0.3-0.3-0.6-0.5-1-0.7c-1.7-1.2-3.1-2.4-4-4.4    c-0.9-1.9-1.4-5.3-0.4-7.5c8.3-0.2,18.1,3.3,25.3-2.3c5.7-4.4,6.1-12.4,6.5-19C368.6-728.2,368.1-736.4,362.6-742.4z M351-703.1    c-4.7,0.7-11.1-1.3-15.9-1c-1.7,0.1-2.4,1.6-2.1,2.9c-0.4,1.6-0.9,3.2-1,4.9c0,2.1,0.5,4.2,1.3,6.2c0.5,1.2,1.2,2.4,2.1,3.4    c-3.4,0.1-6.6-0.6-9.5-2.7c-3.6-2.6-7.4-9.4-5.3-13.9c1.4-2.8-2.6-4.2-3.8-2.6c-9.1,2.6-14.5-2-15.6-12.3    c-0.5-4-0.3-15.3,1.2-18.6c4.2-9.1,25.4-5.7,32.9-5.8c6.7-0.1,17.4-1.7,22.8,3.2c4.1,3.7,4.7,10.3,4.8,15.4    C362.8-715.8,362.4-704.9,351-703.1z"
         id="path172" /><path
         d="M319.5-683.1c-3.5,0.2-6.9,0.4-10.3,0.3c-2,0-2.3,2.1-1.6,3.5c-1.2,2.3-2.3,4.5-4.4,6.5    c-1.2,1.1-2.5,2-3.9,2.7c-0.2,0.1-0.4,0.2-0.6,0.3c0.6-1.3,0.9-2.7,1-4.1c0-0.8,0-1.6-0.2-2.4c-0.2-1-1.2-3.1-1.1-4.1    c0-1.3-1.3-2.3-2.5-2.2c-0.6-0.5-1.3-0.7-2.2-0.4c-6.5,2.1-11,1.6-12.5-6.1c-0.5-2.6,0.1-6,0.2-8.7c0.3-7,4.1-9.8,9.1-11.1    c0-0.2-0.1-0.5-0.1-0.7c0-0.4,0-0.8,0-1.2c-0.2-1.1-0.4-2.1-0.4-3.2c-2.1,0.3-4.1,0.8-5.9,1.6c-9.1,3.7-8.1,16.3-7.6,24.5    c0.7,11.2,9.6,12.7,18.9,9.8c0.1,0,0.2-0.1,0.3-0.1c1.7,1.4,0.2,6.5-0.6,7.9c-0.5,0.8-1.1,1.4-1.8,1.9c-1.4-0.4-2.1,0.4-2.3,1.4    c-0.5,0.3-1,0.5-1.5,0.8c-1.3,0.8-0.4,2.9,1,2.9c1.1,0,2.1-0.3,3-0.8c0.2-0.1,0.4-0.2,0.7-0.3c1-0.6,3.1-0.6,4.3-1    c0.9-0.3,1.9-0.7,2.8-1.1c2-0.9,3.7-2.2,5.3-3.6c2.3-2.1,4.4-5,5.2-8.2c3.4-0.1,6.8,0,10.3,0c1.4,0,2.1-1.1,2.2-2.4    c0-0.4,0.1-0.8,0.1-1.1c-1.5-1.1-3-2.3-4.3-3.6C319.7-684.7,319.6-683.9,319.5-683.1z"
         id="path174" /></g><path
       class="st1"
       d="M657.1-859.9c-8.7,13.5-21.4,22.3-35.7,8.8c-2.9-2.8-4-6.3-8.1-8   c-11.6-4.7-24.5,7.5-30.8,15.7c0,0,0,0.1-0.1,0.2c-0.4,0.2-0.7,0.7-0.6,1.4c4,23.9,11.5,49.3,21.5,71.4c1,2.3,4.5,1.8,3.7-1   c-2.9-9.6-5.9-19.3-8.9-28.9c3.1-4.2,7.1-11.9,11.6-14.2c5.9-3.1,8.6,2.5,13,5.4c5.8,3.9,11.4,4.3,17.7,0.8   c18.1-10.2,21.3-33.4,21.9-51.9C662.5-864,656.4-863.9,657.1-859.9z M646.3-820.7c-5.9,7.1-12,13.1-22.7,5.1   c-2.8-2.1-1.5-4.5-4.9-6.6c-8.9-5.4-17.5,7.8-22.6,15.5c-3.4-10.9-6.8-21.7-10.2-32.5c0.1-0.1,0.3-0.2,0.4-0.4   c4.3-5.6,11.8-14,19.6-14.8c11-1,10.9,6.1,15.2,11.4c2.9,3.6,5.6,5.8,10.4,6.3c10.1,0.9,21.1-7.3,26.4-16.5   C658.3-841.6,653.5-829.2,646.3-820.7z"
       id="path176" /><g
       class="st1"
       id="g178"><path
         d="M480.3-728.3c-3.2-8.5-17.2-5.8-25.5-5.4c-1.6-3.9,0.9-8.8-5.2-9.7c-3.7-0.6-8.1,0.6-11.8,1    c-5.1,0.5-10.1,1-15.2,1.5c-0.8,0.1-1.6,0.4-1.9,1.2c-1.1,2.6-1.9,5.3-3.1,7.9c-8-0.2-15.8,0.2-23.9,1.4c-0.9,0.1-1.6,1.1-1.8,1.9    c-1.8,12.5-2.6,25.3-1.1,37.9c0.7,5.9,1.5,9.9,7.4,12.1c9.9,3.7,24.6,0.8,34.8,0.1c14.9-1,29.7-1.8,44.6-1.5c1.2,0,2.5-1,2.6-2.2    c0.9-7.7,1.4-15.3,1.3-23.1C481.6-711.7,482.7-722,480.3-728.3z M475.9-697.6c-0.3,13.3-4.2,10.9-15.8,11.2    c-7.5,0.2-14.9,0.8-22.3,1.4c-11.4,0.9-36.6,7.3-41.4-5.5c-2.1-5.5-1.9-21.1-0.3-26.6c0.2-1.7,0.3-3.3,0.5-5    c3.2-3,6.8-4.5,10.8-4.4c4-0.7,8.7-0.2,12.7,0c1.9,0.1,2.5-1.5,2.1-3c1.2-4.8,2.1-6.6,7-7c3.8-0.3,7.6-0.6,11.4-1    c3.4-0.3,7.7-2.1,8.8,2c0.4,1.5,0.3,2.4,0.7,3.6c-0.7,1.9,0.4,4.6,2.9,4.6c8.6,0,18.9-2.3,22.1,7.2    C477.3-713.8,476.1-704,475.9-697.6z"
         id="path180" /><path
         d="M447.7-722.5c-0.4-0.2-0.7-0.2-1-0.2c-18.2-14.8-43.1,18-21.4,30.2c9.3,5.2,21.8,3.3,28.1-5.6    C459.3-706.3,456.9-717.9,447.7-722.5z M430.2-697.2c-9.1-3-9.1-13.2-3.3-19.4c5.4-5.7,12.6-5,19.2-2.3c0,0,0,0,0,0    C457.9-707.7,443.7-692.7,430.2-697.2z"
         id="path182" /><path
         d="M468-720.6c-1.3-1-3-1.2-4.2,0.1c0,0-0.1,0.1-0.1,0.1c-1.9,1.9-0.1,5.3,2.5,5.3    C468.9-715.1,470.1-718.8,468-720.6C468-720.5,468-720.6,468-720.6z"
         id="path184" /><path
         d="M434-716.4c-4.9,1.6-8.1,8.1-4.7,12.5c3.5,4.6,10.5,4.3,14.5,0.5c2.7-2.5,3-6.8,1.1-9.5    C444.1-716.5,437.1-717.4,434-716.4z M434.3-707.5c-0.9-1.2,0.6-2.4,1.5-2.9c0.8-0.4,1.8-0.6,2.7-0.6c0.1,0.3,0.3,0.7,0.5,0.9    C440.9-707.9,435.5-705.9,434.3-707.5z"
         id="path186" /></g><path
       class="st1"
       d="M660.5-734.1c-3.3-4.6-7.7-7.4-12.8-9.8c-6.5-3.1-16.4-4.7-20.7-10.8   c-2.7-3.9-7.1,0.4-4.9,3.3c0.4,20.3,5.7,40.3,6.2,60.6c0.1,2.5,2.6,3.4,4.4,2.9c0.1,0.1,0.1,0.3,0.2,0.4   c9.3,12.8-8.8,21.6-19.4,18.7c-8.5-2.3-12.1-11-4.9-17.3c4.8-4.2,11.6-4.3,17.2-1.6c2.6,1.2,3.5-2.1,1.6-3.5   c-7.1-5.4-17.7-4.5-23.8,2.2c-6.7,7.3-5,17.8,3.2,23c8.1,5.1,20.1,5.2,27.6-1c7-5.7,8.6-16,3.1-23.3c-0.9-1.1-2.1-1.4-3.1-1.1   c-2.1-11.3-2.7-22.8-3.6-34.3c5.4,0.3,10.8,0.1,16.2,0.9c3.4,0.5,6.5,1.5,9.2,3.8c2,1.8,6,7.3,3.1,9.9c-1.7,1.6-1.1,3.2,0.3,4.2   c-0.1,0.3-0.2,0.6-0.3,0.9c-0.8,2.4,2.4,4.9,3.9,2.3C668.6-713.2,666.8-725.4,660.5-734.1z M656.2-726.9   c-7.8-4.4-16.8-3.8-25.5-4.4c-0.2-0.3-0.4-0.5-0.7-0.7c-0.5-5.2-1-10.4-1.9-15.6c6.5,3.4,13.3,6.1,19.7,9.8   c5.9,3.4,9.6,8,11.4,13.4C658.5-725.4,657.4-726.2,656.2-726.9z"
       id="path188" /><path
       class="st1"
       d="M579.8-694c0.1-0.3,0.1-0.6,0.1-1c-3-18.2-4.9-36.3-8.7-54.4c-0.3-1.3-1.3-1.8-2.2-1.7   c1-1.5-0.3-4.2-2.4-3.5c-19,6.2-36.3,15.2-54.2,23.9c-1.9,0.9-1,3.6,0.6,4.4c2.6,13.6,7.4,26.9,9.4,40.6c0.1,0.4,0.2,0.7,0.3,0.9   c-0.1,0.7,0,1.4,0.5,1.9c7.3,7.9-10.1,19.8-17.2,12.5c-7.3-7.4,6.2-19.5,14.2-15.5c1.5,0.8,2.8-1.3,1.5-2.3   c-11.7-9.4-29.5,11.4-17.6,21.5c11.2,9.5,31.9-7.5,22.8-17.7c0.3-0.5,0.5-1.2,0.2-2c-2.7-8-4.4-16.3-6.1-24.6   c0.2-0.1,0.4-0.1,0.7-0.3c14.5-8.8,33.2-13,49.3-18.4c2.2,11.5,4,23.1,4.5,34.6c0,0.7,0.4,1.3,0.8,1.7c0.1,0.3,0.3,0.6,0.6,0.8   c9.5,6.8-3.1,19.9-11.5,19.1c-6-0.6-9.2-7-6.7-12.4c2.3-5,8.7-8.2,14.1-6.5c3.3,1.1,3.7-4.9,0.3-4.8c-8.1,0.4-15.8,2.1-18.5,10.9   c-2,6.8,1.4,14.6,8.4,16.7C576-665.7,590.9-684.4,579.8-694z M519.7-715.9c-0.9-4-1.8-7.9-2.9-11.8c15.7-9.6,33.1-16.2,50.3-22.4   c-0.3,0.5-0.4,1-0.3,1.7c1,4.6,2,9.3,2.9,14C553-729,536.7-720.1,519.7-715.9z"
       id="path190" /><g
       class="st1"
       id="g192"><path
         d="M1141.5-844.2c5.7-1.2,11.8-1.3,17.6-0.2c1.4-2.1,2.7-4.2,4-6.4c-1.1-0.3-2.2-0.5-3.3-0.7    c-32.2-5-60.4,20.5-57.7,52.6c0.3,3.9,6,3.4,5.2-0.7C1103-821.5,1121.1-840,1141.5-844.2z"
         id="path194" /><path
         d="M1189-829.1c-1.9-4.6-4.7-8.6-8.1-11.9c-0.9,2.7-1.7,5.3-2.7,8c6.5,9,11.1,27.4,4.3,36.1    c-2.7,3.5,1.8,7.6,5.1,4.8C1196.9-800,1193-819.4,1189-829.1z"
         id="path196" /><path
         d="M1168.2-844.1c-6.2,7.4-42.3,34.5-25.6,46.7c14.4,10.5,27.5-32.8,29.8-42.8    C1174.7-842.4,1170.5-846.7,1168.2-844.1z M1158.8-818.7c-1.5,2.9-10,22-14.5,13.3c-2.6-5.1,8.6-15.2,11.5-18.2    c3-3.1,5.9-6.2,8.9-9.2C1163-828,1161.1-823.3,1158.8-818.7z"
         id="path198" /></g><path
       class="st1"
       d="M950.1-699.3c0.1-1.3-0.4-2.7-1.8-3.6c-14.8-9-29.6-18.4-44.2-27.8c-2.9-1.9-5.1,1.6-3.9,4.1   c0,0.1-0.1,0.2-0.1,0.3c-2,19-1.1,38.8-0.6,57.9c0,0.8,0.3,1.4,0.6,1.9c-0.9,2.5,2,5.6,4.7,4.1c7.7-4.4,14.7-10.6,21.8-15.9   c7.2-5.4,14.7-10.4,22.2-15.5C950.8-695.2,950.9-697.5,950.1-699.3z M906.9-673.8c0.5-15.9,1-32.3-0.4-48.2   c11.5,7.5,23,15,34.4,22.7C929.5-691.5,917.1-683.2,906.9-673.8z"
       id="path200" /><path
       class="st1"
       d="M1362.9-699.3c0.1-1.3-0.4-2.7-1.8-3.6c-14.8-9-29.6-18.4-44.2-27.8c-2.9-1.9-5.1,1.6-3.9,4.1   c0,0.1-0.1,0.2-0.1,0.3c-0.7,7.1-1.1,14.3-1.2,21.5c-13.8-8.5-27.6-17.2-41.2-26c-2.9-1.9-5.1,1.6-3.9,4.1c0,0.1-0.1,0.2-0.1,0.3   c-2,19-1.1,38.8-0.6,57.9c0,0.8,0.3,1.4,0.6,1.9c-0.9,2.5,2,5.6,4.7,4.1c7.7-4.4,14.7-10.6,21.8-15.9c6.1-4.6,12.5-8.8,18.8-13.2   c0.1,7.7,0.4,15.5,0.6,23.1c0,0.8,0.3,1.4,0.6,1.9c-0.9,2.5,2,5.6,4.7,4.1c7.7-4.4,14.7-10.6,21.8-15.9   c7.2-5.4,14.7-10.4,22.2-15.5C1363.6-695.2,1363.8-697.5,1362.9-699.3z M1273.2-673.8c0.5-15.9,1-32.3-0.4-48.2   c11.5,7.5,23,15,34.4,22.7C1295.8-691.5,1283.4-683.2,1273.2-673.8z M1319.7-673.8c0.5-15.9,1-32.3-0.4-48.2   c11.5,7.5,23,15,34.4,22.7C1342.3-691.5,1329.9-683.2,1319.7-673.8z"
       id="path202" /><path
       class="st1"
       d="M1478.2-667c2-19,1.1-38.8,0.6-57.9c0-0.8-0.3-1.4-0.6-1.9c0.9-2.5-2-5.6-4.7-4.1   c-7.7,4.4-14.7,10.6-21.8,15.9c-6.1,4.6-12.5,8.8-18.8,13.2c-0.1-7.7-0.4-15.5-0.6-23.1c0-0.8-0.3-1.4-0.6-1.9   c0.9-2.5-2-5.6-4.7-4.1c-7.7,4.4-14.7,10.6-21.8,15.9c-7.2,5.4-14.7,10.4-22.2,15.5c-2.1,1.4-2.2,3.7-1.4,5.5   c-0.1,1.3,0.4,2.7,1.8,3.6c14.8,9,29.6,18.4,44.2,27.8c2.9,1.9,5.1-1.6,3.9-4.1c0-0.1,0.1-0.2,0.1-0.3c0.7-7.1,1.1-14.3,1.2-21.5   c13.8,8.5,27.6,17.2,41.2,26c2.9,1.9,5.1-1.6,3.9-4.1C1478.2-666.8,1478.2-666.9,1478.2-667z M1391-694.2   c11.4-7.7,23.8-15.9,34-25.4c-0.5,15.9-1,32.3,0.4,48.2C1413.8-678.9,1402.3-686.5,1391-694.2z M1437.4-694.2   c11.4-7.7,23.8-15.9,34-25.4c-0.5,15.9-1,32.3,0.4,48.2C1460.3-678.9,1448.8-686.5,1437.4-694.2z"
       id="path204" /><path
       class="st1"
       d="M1664.8-693.6c0-11.2,0.8-22.7-1-33.7c0-0.2-0.1-0.4-0.2-0.6c0.1-2.3-1.3-4.8-4.2-4.7   c-3.4,0-6.8,0.1-10.2,0.2c-3.2,0.1-6.5-0.1-9.5,0.9c-2.4,0.7-2.5,3.3-1.3,4.9c-0.5,7.3-0.8,14.7-1,22   c-13.9-8.5-27.8-17.3-41.5-26.2c-2.9-1.9-5.1,1.6-3.9,4.1c0,0.1-0.1,0.2-0.1,0.3c-2,19-1.1,38.8-0.6,57.9c0,0.8,0.3,1.4,0.6,1.9   c-0.9,2.5,2,5.6,4.7,4.1c7.7-4.4,14.7-10.6,21.8-15.9c6.1-4.6,12.4-8.8,18.7-13.2c-0.1,9.1,0.1,18.2,0.6,27.2c0,0,0,0.1,0,0.1   c-0.2,1.7,0.9,3.7,3.1,3.9c5.8,0.6,12.4,0.9,18.1,0.1c0.8-0.1,1.4-0.6,1.8-1.2c1.4,0.3,2.8-0.3,3.1-2.3   C1665.6-673.5,1664.9-683.7,1664.8-693.6z M1598.8-673.8c0.5-15.9,1-32.3-0.4-48.2c11.5,7.5,23,15,34.4,22.7   C1621.4-691.5,1609-683.2,1598.8-673.8z M1656.8-698.4c0,10.4-1,21.1,0.4,31.4c-3.8-0.5-7.8-0.4-11.8-0.2c1-19,0.5-38.5-0.7-57.5   c1.6,0.1,3.3,0.1,4.9,0.1c2.5,0.1,5,0.1,7.6,0.2C1656.4-715.8,1656.8-707,1656.8-698.4z"
       id="path206" /><path
       class="st1"
       d="M1569.9-666.1c2-19,1.1-38.8,0.6-57.9c0-0.8-0.3-1.4-0.6-1.9c0.9-2.5-2-5.6-4.7-4.1   c-7.7,4.4-14.7,10.6-21.8,15.9c-6.1,4.6-12.4,8.8-18.7,13.2c0.1-9.1-0.1-18.2-0.6-27.2c0,0,0-0.1,0-0.1c0.2-1.7-0.9-3.7-3.1-3.9   c-5.8-0.6-12.4-0.9-18.1-0.1c-0.8,0.1-1.4,0.6-1.8,1.2c-1.4-0.3-2.8,0.3-3.1,2.3c-1.6,9.8-0.9,20-0.9,29.9c0,11.2-0.8,22.7,1,33.7   c0,0.2,0.1,0.4,0.2,0.6c-0.1,2.3,1.3,4.8,4.2,4.7c3.4,0,6.8-0.1,10.2-0.2c3.2-0.1,6.5,0.1,9.5-0.9c2.4-0.7,2.5-3.3,1.3-4.9   c0.5-7.3,0.8-14.7,1-22c13.9,8.5,27.8,17.3,41.5,26.2c2.9,1.9,5.1-1.6,3.9-4.1C1569.8-665.9,1569.9-665.9,1569.9-666.1z    M1512.1-667.9c-2.5-0.1-5-0.1-7.6-0.2c0.9-8.6,0.4-17.3,0.4-26c0-10.4,1-21.1-0.4-31.4c3.8,0.5,7.8,0.4,11.8,0.2   c-1,19-0.5,38.5,0.7,57.5C1515.4-667.8,1513.7-667.8,1512.1-667.9z M1529.1-693.2c11.4-7.7,23.8-15.9,34-25.4   c-0.5,15.9-1,32.3,0.4,48.2C1551.9-677.9,1540.4-685.5,1529.1-693.2z"
       id="path208" /><g
       class="st1"
       id="g210"><path
         d="M998.6-727.4c0-0.2-0.1-0.4-0.2-0.6c0.1-2.3-1.3-4.8-4.2-4.7c-3.4,0-6.8,0.1-10.2,0.2    c-3.2,0.1-6.5-0.1-9.5,0.9c-2.4,0.7-2.5,3.3-1.3,4.9c-1.3,20.6-1.9,41.7-0.7,62.3c0,0,0,0.1,0,0.1c-0.2,1.7,0.9,3.7,3.1,3.9    c5.8,0.6,12.4,0.9,18.1,0.1c0.8-0.1,1.4-0.6,1.8-1.2c1.4,0.3,2.8-0.3,3.1-2.3c1.6-9.8,0.9-20,0.9-29.9    C999.5-704.8,1000.3-716.3,998.6-727.4z M991.5-698.4c0,10.4-1,21.1,0.4,31.4c-3.8-0.5-7.8-0.4-11.8-0.2c1-19,0.5-38.5-0.7-57.5    c1.6,0.1,3.3,0.1,4.9,0.1c2.5,0.1,5,0.1,7.6,0.2C991.1-715.8,991.5-707,991.5-698.4z"
         id="path212" /><path
         d="M1036.3-693.6c0-11.2,0.8-22.7-1-33.7c0-0.2-0.1-0.4-0.2-0.6c0.1-2.3-1.3-4.8-4.2-4.7    c-3.4,0-6.8,0.1-10.2,0.2c-3.2,0.1-6.5-0.1-9.5,0.9c-2.4,0.7-2.5,3.3-1.3,4.9c-1.3,20.6-1.9,41.7-0.7,62.3c0,0,0,0.1,0,0.1    c-0.2,1.7,0.9,3.7,3.1,3.9c5.8,0.6,12.4,0.9,18.1,0.1c0.8-0.1,1.4-0.6,1.8-1.2c1.4,0.3,2.8-0.3,3.1-2.3    C1037-673.5,1036.3-683.7,1036.3-693.6z M1028.3-698.4c0,10.4-1,21.1,0.4,31.4c-3.8-0.5-7.8-0.4-11.8-0.2c1-19,0.5-38.5-0.7-57.5    c1.6,0.1,3.3,0.1,4.9,0.1c2.5,0.1,5,0.1,7.6,0.2C1027.8-715.8,1028.3-707,1028.3-698.4z"
         id="path214" /></g><path
       class="st1"
       d="M1112.8-729c-0.4-0.1-0.7-0.2-1-0.2c-13.4-7.2-29.4-3.8-38.8,10.9c-10.3,16.1-5.1,39,11.3,48.8   c17.2,10.3,39.3,4,48.1-14C1141.3-701.5,1131.2-722.4,1112.8-729z M1125.7-691.3c-4,14.2-20.1,21.4-33.5,15.9   c-13-5.3-18.9-19-14.8-32.3c3.6-11.6,18.6-21.3,30.3-16.8c0,1.5,0.7,3,2.3,3.7C1121.5-715.7,1129.4-704.4,1125.7-691.3z"
       id="path216" /><path
       class="st1"
       d="M1236.4-726.1c0-2-1.2-3.2-2.7-3.6c-0.6-0.8-1.5-1.3-2.7-1.5c-20.2-2.4-43.1-1.4-63.3,0.5   c-2.7,0.2-3.3,2.8-2.3,4.6c-1.3,19.6-1.7,39.9-0.5,59.5c0,0.1,0,0.1,0,0.2c-0.2,1.9,1.1,4,3.5,4.2c20.3,2.2,42.6,1.6,63,0.3   c2.2-0.1,3.3-1.6,3.4-3.2c0.5-0.5,0.8-1.2,0.8-2.1C1236.5-686.7,1236.6-706.4,1236.4-726.1z M1172.1-669.7   c0.9-17.9,0.6-36.3-0.5-54.2c18.5,1.6,38.7,2.3,57.1,0.4c-0.2,17.9,0,35.9,0.7,53.7C1210.8-670.9,1190.7-671.4,1172.1-669.7z"
       id="path218" /><path
       class="st1"
       d="M779.4-721c0-6.9-0.1-13.8-0.3-20.8c0-0.6-0.2-1.1-0.4-1.5c-0.1-0.3-0.2-0.6-0.4-1   c-0.4-2-3.2-3.1-4.5-1.9c-5.5,0-11.1-0.1-16.6-0.2c0-1.4,0-2.9-0.1-4.3c0.2-4-5.9-4.1-6.1,0c-0.1,1.4-0.1,2.8-0.1,4.2   c-11.3-0.2-22.6-0.4-33.8-0.2c0-0.9,0-1.8,0-2.7c0-0.8-0.3-1.4-0.7-1.9c-0.4-2.9-4.8-3.1-5.1,0c-0.4,0.5-0.7,1.1-0.6,2   c0,0.9,0,1.9,0,2.8c-2.3,0.1-4.7,0.2-7,0.3c-3.8,0-7.7,0.1-11.5,0.1c-3.1,0.1-3.8,3.3-2.4,5.4c-2.1,10-1.1,20.5-1.1,30.7   c0.1,12.5-0.1,24.8,1,37.2c0,0,0,0.1,0,0.1c-0.8,2,0.4,4.8,3.1,4.9c2.6,0.1,5.1,0.1,7.7,0.2c24.4,1.2,49.3,0.1,73.7,0.1   c1.4,0,2.3-0.7,2.8-1.6c1.2-0.4,2.2-1.5,2.2-3.2C779.3-688.5,779.7-704.8,779.4-721z M704.1-739.1c2.3,0.1,4.5,0.2,6.8,0.3   c0,2.2,0,4.3,0.1,6.5c-0.1,3.9,6,4.1,6.1,0c0.1-2.1,0.1-4.2,0.1-6.3c11.2,0.2,22.5,0,33.7-0.2c0,2.1,0,4.3,0.2,6.3   c0.4,3.1,5.6,4.7,6.1,0.8c0.3-2.4,0.3-4.8,0.3-7.2c5-0.1,10.1-0.2,15.1-0.2c-0.1,5-0.1,9.9-0.2,14.9c-25.2-0.4-51.2-1.4-76.3,0.6   c0-5.2-0.2-10.4-1.2-15.5C697.9-739.1,701-739.1,704.1-739.1z M700.3-674.8c-1.8,0-3.6,0.1-5.4,0.1c0.8-10.9,0.9-21.8,0.9-32.8   c0-3.4,0.1-6.9,0.2-10.3c25.1,2,51.1,1,76.3,0.6c-0.1,11.8,0,23.6,0.1,35.4c0,2.3,0,4.6,0,6.9C748.5-675,724.2-676,700.3-674.8z"
       id="path220" /><g
       class="st1"
       id="g222"><path
         d="M816.7-704c2.3,10.1,16.8,14.9,26.1,13.3c15.6-2.6,14.2-22.9,13.7-34.6c-0.5-12.3-3.6-25.3-17.5-27.6    c-13-2.2-23.2,4.8-23.3,17.9c-0.9,9.7-0.3,20.1,0.3,29.7C816.1-704.9,816.3-704.4,816.7-704z M820.8-734.3    c-1-13.9,18.7-16.9,25.6-7.2c3.2,4.5,3.4,11.2,3.5,16.8c-0.2,0-0.3-0.1-0.5-0.1c-9.4-0.3-19.1-0.2-28.5,0.5c0-3-0.1-5.9-0.3-8.8    C820.8-733.4,820.8-733.8,820.8-734.3z M820.9-718.8c9.5,0.8,19.4,0.9,28.9,0.5c0.2,0,0.3-0.1,0.4-0.1c0.2,5.7,0.2,13-1.9,16.2    c-4.6,7.1-24.5,6.2-26.5-4.1c-0.2-0.9-0.7-1.5-1.4-1.8C820.6-711.5,820.8-715.2,820.9-718.8z"
         id="path224" /><path
         d="M872.7-721.8c-0.4-4.4-7.3-4.5-6.9,0.1c0.6,7.4,1.5,15.1-2.4,21.8c-5.3,9.3-16.1,12.6-26.1,12.6    c-20.8,0-31-13.1-31.9-32.9c-0.2-3.3-5.4-3.5-5.1,0c1.2,10.4,1.6,21.3,8.9,29.6c6.7,7.7,17.5,10.2,27.4,10.4    c-0.2,2.8-0.1,5.5,0,8.3c-1.6,0-3.2,0.1-4.8,0.2c-1.7,0-3.5,0-5.2,0c-1.3,0-2.2,0.6-2.7,1.4c-0.1,0.1-0.1,0.2-0.2,0.2    c-0.2,0.2-0.4,0.4-0.6,0.7c-0.4,0.6-0.6,1.4-0.8,2.3c0,0.1-0.1,0.2-0.1,0.4c0,0.2,0,0.4,0,0.7c0,0.1,0,0.1,0,0.2c0,0,0,0,0,0    c0,0.3,0,0.6,0,0.9c0,0,0,0.1,0,0.1c0,0.1,0,0.1,0,0.1c0,0.2,0.1,0.5,0.1,0.7c0,0.1,0.1,0.2,0.1,0.3c0,0,0,0,0,0    c0.1,0.4,0.3,0.7,0.6,1c0,0,0,0,0,0c0.2,0.2,0.4,0.4,0.7,0.6c0.1,0.1,0.2,0.1,0.4,0.2c0.3,0.1,0.5,0.2,0.8,0.2c0.1,0,0.1,0,0.1,0    c0,0,0.1,0,0.1,0c0.1,0,0.2,0.1,0.3,0.1c0,0,0.1,0,0.1,0c0,0,0,0,0,0c8.6,1.8,18.5,1.3,27.3,0.7c2.7-0.2,3.5-2.6,2.8-4.5    c0-0.1,0-0.1,0-0.2c0,0,0-0.1,0-0.1c0-0.4,0-0.7,0-1.1c0.1-0.4,0.2-0.8,0.2-1.2c-0.1-1.6-1.3-3.2-3.3-3.3    c-3.1-0.1-6.3-0.3-9.6-0.4c0.1-2.9,0.2-5.8,0-8.6C864.9-682.8,874.9-700,872.7-721.8z"
         id="path226" /></g></g><g
     class="st0"
     id="g228"><path
       class="st1"
       d="M244.7-1124.9c-2.8-10.8-5-19.6-13.7-27.7c-7.4-6.9-17-10.1-26.9-10.4   c-0.1-5.2-0.3-10.4,0.6-15.4c0.4-2.2-1.3-3.4-2.9-3.4c-0.9-0.2-1.8,0-2.4,1c-3.7,6.3-7.8,12.4-12,18.3c-3.8,5.3-8.4,13-14,16.5   c-3.2,2,0.3,6.1,2.7,5.2c3.6,3.7,7.3,7.2,10.9,11c2,2.1,4,4.4,5.9,6.6c2.3,2.7,5.7,5.5,6.7,8.9c1.2,4.4,7.1,0.8,4.9-2.1   c0.1-2.6,0.1-5.2,0.4-7.8c0.2-2-0.3-5.3,0.3-7.5c11.8,0,25.7,2.5,35.1,10.1c0.4,0.6,1,1,1.7,1.2   C244.6-1119.2,246.8-1123,244.7-1124.9z M204.2-1136.5c-2.2-0.8-5.2,0.1-3.3,3.7c0.5,1-0.1,2.7-0.2,3.8c-0.1,1.4-0.1,2.8-0.1,4.2   c0,1.6,0,3.1-0.1,4.6c-1.1-1.4-2-2.9-3-4.2c-1.9-2.5-4.1-4.9-6.2-7.2c-4-4.4-8.1-8.8-12.6-12.7c2-3.1,5-6,7.2-8.7   c2.5-3.1,4.9-6.2,7.3-9.4c2.4-3.3,4.6-6.7,6.8-10.2c0.2,4,0,8-0.1,12c0,0.9,0.5,1.5,1.1,1.9c0.5,0.6,1.1,1,1.9,1   c16.2,0,36.9,12.5,37,30.5C228.3-1132.5,217.6-1136.6,204.2-1136.5z"
       id="path230" /><path
       class="st1"
       d="M377.8-1120.4c0.7-0.2,1.3-0.6,1.7-1.2c9.4-7.6,23.4-10.1,35.2-10.1c0.5,2.2,0.1,5.5,0.3,7.5   c0.3,2.6,0.3,5.2,0.4,7.8c-2.1,3,3.7,6.6,5,2.1c1-3.5,4.4-6.3,6.7-8.9c1.9-2.3,3.9-4.5,5.9-6.7c3.5-3.8,7.3-7.3,10.9-11   c2.4,0.9,5.9-3.2,2.7-5.2c-5.6-3.6-10.2-11.3-14.1-16.6c-4.3-5.9-8.4-12-12.1-18.3c-0.6-1-1.5-1.2-2.4-1c-1.6,0.1-3.3,1.2-2.9,3.4   c0.9,5.1,0.7,10.3,0.6,15.5c-10,0.3-19.6,3.5-27,10.4c-8.7,8.1-11,17-13.7,27.8C372.9-1123,375.2-1119.2,377.8-1120.4z    M379.7-1127.3c0.2-18.1,21-30.6,37.2-30.6c0.9,0,1.5-0.4,2-1c0.6-0.4,1.1-1,1.1-1.9c-0.1-4-0.2-8-0.1-12.1   c2.2,3.5,4.4,6.9,6.8,10.2c2.4,3.2,4.8,6.3,7.3,9.4c2.2,2.8,5.2,5.7,7.2,8.8c-4.5,3.9-8.6,8.3-12.6,12.7c-2.1,2.3-4.3,4.8-6.2,7.3   c-1,1.3-1.9,2.8-3,4.2c-0.1-1.6-0.1-3.1-0.1-4.7c0-1.4,0.1-2.8-0.1-4.3c-0.1-1.1-0.7-2.8-0.2-3.8c1.9-3.6-1.2-4.5-3.4-3.7   C402.2-1136.7,391.5-1132.6,379.7-1127.3z"
       id="path232" /><path
       class="st1"
       d="M363.8-1123.8c-2.8-11-5.2-20.1-14-28.3c-7.5-7-17.4-10.3-27.5-10.6   c-0.1-5.3-0.3-10.6,0.6-15.8c0.4-2.2-1.3-3.4-3-3.5c-0.9-0.2-1.9,0-2.5,1c-3.8,6.4-7.9,12.6-12.3,18.7c0-1.7,0-3.5,0-5.2   c0-3.2-0.4-6.7,0.5-9.9c0.4-1.5-0.3-2.6-1.4-3.1c-1.1-1.2-3.1-1.6-4.4,0.4c-8,12.7-21.4,21.8-31.3,32.9c-0.2,0.2-0.2,0.4-0.3,0.6   c-1.3,1.3-1.7,3.6,0.6,4.6c3.5,1.5,6.4,5.2,9.1,7.8c2.5,2.4,5,4.9,7.4,7.4c4.4,4.6,8.6,9.4,13.3,13.7c0.5,3.5,6.8,2.8,5.4-1.2   c-1.2-3.5-0.6-8.3-0.6-12c0-1.3,0-2.5,0-3.7c0.4,0.4,0.8,0.8,1.2,1.2c2.1,2.2,4,4.5,6,6.8c2.3,2.7,5.8,5.6,6.8,9.1   c1.3,4.5,7.2,0.9,5-2.2c0.1-2.7,0.1-5.3,0.4-8c0.2-2.1-0.3-5.4,0.3-7.6c12.1,0,26.3,2.5,35.9,10.3c0.4,0.6,1.1,1,1.7,1.2   C363.6-1118,365.8-1121.9,363.8-1123.8z M299.5-1118.4c-3.2-3.8-6.9-7.4-10.4-10.9c-2.5-2.4-5-4.9-7.4-7.3   c-2.6-2.5-6.3-5.1-8.4-8.1c9.8-8.9,17.6-20.2,27.6-28.8c0.1,2.7-0.1,5.5-0.1,8c0,3,0.1,5.9,0.2,8.9c0,0.1,0,0.2,0.1,0.3   c-3,4.2-6.3,8.5-10.1,10.9c-3.2,2,0.3,6.3,2.8,5.3c2,2,4,4.1,6.1,6.1c-0.2,2.3-0.3,4.7-0.2,7   C299.4-1124.5,299.7-1121.3,299.5-1118.4z M322.3-1135.7c-2.2-0.8-5.3,0.1-3.4,3.8c0.5,1-0.1,2.7-0.2,3.9c-0.1,1.5-0.1,2.9-0.1,4.3   c0,1.6,0,3.2-0.1,4.8c-1.1-1.4-2-3-3.1-4.3c-2-2.5-4.2-5-6.3-7.4c-4.1-4.5-8.2-9-12.9-13c2.1-3.2,5.1-6.1,7.4-8.9   c2.5-3.2,5.1-6.3,7.5-9.6c2.5-3.4,4.7-6.9,6.9-10.4c0.2,4.1,0,8.2-0.1,12.3c0,0.9,0.5,1.6,1.1,1.9c0.5,0.6,1.1,1,2,1   c16.5,0,37.7,12.8,37.9,31.2C346.9-1131.7,336-1135.9,322.3-1135.7z"
       id="path234" /><path
       class="st1"
       d="M1938.3-1160.3c-1.6-11.2-10.2-19.6-21.8-19.2c-10.8,0.4-20.2,6.9-26.2,15.4   c-7.5-8.5-16-15.9-28.5-15.4c-12.4,0.5-19.6,11.1-17.9,23c1.6,11.2,10.2,19.6,21.8,19.2c10.8-0.4,20.2-6.9,26.2-15.4   c7.5,8.5,16,15.9,28.5,15.4C1932.8-1137.7,1940-1148.4,1938.3-1160.3z M1851.7-1157.1c-3.9-22.8,26.5-14.5,35.3-2.5   C1878.7-1148.1,1855.5-1135.3,1851.7-1157.1z M1895-1157.1c8.3-11.6,31.6-24.4,35.3-2.5C1934.2-1136.8,1903.8-1145.2,1895-1157.1z"
       id="path236" /><path
       class="st1"
       d="M2022.7-1217.7c-21.3,21.5-34.1,49.3-39.3,78.8c-5.6-9.6-10.5-19.7-12.8-30.5   c-1.1-5.3-9.8-3-7.7,2.1c6.1,14.4,11.1,28.3,19.6,41.6c1.7,2.7,6.6,2.8,7.2-1c4.5-32.5,19-59.6,40.7-83.8   C2034.7-1215.4,2027.3-1222.4,2022.7-1217.7z"
       id="path238" /><g
       class="st1"
       id="g240"><path
         d="M1560.7-1120.5c-1-1.8-1.9-4-3.8-5c-1.8-0.9-3.6,0.3-3.6,2.2c0,2.1,1.5,3.7,2.4,5.5    c0.1,0.1,0.1,0.2,0.2,0.4c-15.8-4.6-25.8-21.8-25-38.2c0.9-18.4,13.3-27.3,28.6-31.5v-4.6c-42.4,4.5-43.4,67.8-6.7,79.5    c-1.5,0.7-3,1.5-4.4,2.5c-2.4,1.8-0.6,6.6,2.5,5.4c2.1-0.8,4.1-2,6-3.2c1-0.6,2-1.1,3-1.7c0.7-0.4,1.5-1.3,2.3-1.5    c2.3-0.8,2-3.1,0.9-4.4C1562.4-1117.1,1561.6-1118.8,1560.7-1120.5z"
         id="path242" /><path
         d="M1606-1149.1c-1.1-18.8-11.8-37-29.4-42.2c1.5-0.8,3.1-1.6,4.4-2.8c2.1-1.8-0.6-5.5-3-4.8    c-2,0.6-3.9,1.9-5.7,2.9c-0.9,0.5-1.7,1-2.6,1.6c-0.9,0.6-2.1,1.6-3.1,2c-1.8,0.6-2,2.1-1.5,3.4c0.1,0.6,0.3,1.2,0.9,1.7    c1.5,1.5,2.7,3.7,4,5.3c1.4,1.7,3.1,3.2,4.7,4.8c2.6,2.6,6.2-1.6,3.5-3.9c-1.5-1.3-2.8-2.8-4.2-4.3c-0.1-0.1-0.2-0.3-0.4-0.4    c14.8,3.8,23.5,18.5,25.1,34.2c1.9,18-13.1,33.4-30.9,35.2v5.9C1588.3-1111.8,1607.3-1128,1606-1149.1z"
         id="path244" /></g><path
       class="st1"
       d="M1680-1195.1c19.1,1.3,37.6,12.5,42.2,30.7c0.9-1.9,1.5-3.8,2.3-5.7c1.5-3.7,7.4-1.9,6.2,1.9   c-0.8,2.5-2.2,4.8-3.4,7.1c-0.6,1-1.2,2-1.9,3c-0.6,0.9-2,1.9-2.3,2.9c-1,3.1-4.1,1.7-5.1-0.1c-0.7-0.8-2.1-1.3-2.9-1.9   c-1.1-0.8-2.2-1.6-3.2-2.4c-1.9-1.4-4.3-2.8-5.7-4.7c-1.9-2.4,0.5-5.3,3.2-3.8c2.2,1.1,4,3.2,5.9,4.6c0.4,0.3,0.8,0.6,1.2,0.9   c-3.7-14.8-18.3-23.6-34-25.4c-19.5-2.2-36.1,15.5-35.7,35.1c0.5,20.1,20.3,33.6,39.2,32.8c18.6-0.8,27.6-13.3,31.9-28.8   c1.5-0.1,3-0.2,4.5-0.1c-4.7,47.5-82,43.4-81.4-5.8C1641.1-1176,1658-1196.6,1680-1195.1z"
       id="path246" /><path
       class="st1"
       d="M1784.8-1195.1c-19.1,1.3-37.6,12.5-42.2,30.7c-0.9-1.9-1.5-3.8-2.3-5.7   c-1.5-3.7-7.4-1.9-6.2,1.9c0.8,2.5,2.2,4.8,3.4,7.1c0.6,1,1.2,2,1.9,3c0.6,0.9,2,1.9,2.3,2.9c1,3.1,4.1,1.7,5.1-0.1   c0.7-0.8,2.1-1.3,2.9-1.9c1.1-0.8,2.2-1.6,3.2-2.4c1.9-1.4,4.3-2.8,5.7-4.7c1.9-2.4-0.5-5.3-3.2-3.8c-2.2,1.1-4,3.2-5.9,4.6   c-0.4,0.3-0.8,0.6-1.2,0.9c3.7-14.8,18.3-23.6,34-25.4c19.5-2.2,36.1,15.5,35.7,35.1c-0.5,20.1-20.3,33.6-39.2,32.8   c-18.6-0.8-27.6-13.3-31.9-28.8c-1.5-0.1-3-0.2-4.5-0.1c4.7,47.5,82,43.4,81.4-5.8C1823.7-1176,1806.8-1196.6,1784.8-1195.1z"
       id="path248" /><g
       class="st1"
       id="g250"><path
         d="M543.1-1167.4c0,1.5,0,2.9,0.1,4.4c0,0.7,0.4,1.3,0.9,1.7c-0.6,2.3,2.8,5.2,5.1,2.9    c3.2-3.2,6.5-6.5,8.9-10.3c1.7-0.3,2.6-2.3,1.7-4.3c-1.2-2.6-3.8-4.2-5.7-6.2c-1.8-2-4-4.4-6.3-5.7c-0.7-0.4-1.3-0.4-1.9-0.4    c-1.5-0.3-3.1,0.4-3,2.6c0.2,2.8,0.2,5.6,0.2,8.4c-9.2,2.3-17.5,6.6-24.3,13.8c-12.5,13.3-22,44.4-45.8,36.3    c-3.5-1.2-4.5,4.7-1,5.5c13.3,3,23.7-1.5,32.6-11.7C517.5-1145.1,524.4-1162.3,543.1-1167.4z"
         id="path252" /><path
         d="M473-1165.4c14.2-4.8,23.4,4.3,31.1,15.3c1.2-1.8,2.4-3.6,3.7-5.3c-1-1.3-2.1-2.6-3.2-3.8    c-8.9-10.2-19.4-14.7-32.6-11.7C468.6-1170.2,469.5-1164.3,473-1165.4z"
         id="path254" /><path
         d="M558.1-1122.9c-2.4-3.9-5.7-7.1-8.9-10.3c-2.2-2.2-5.7,0.6-5.1,2.9c-0.5,0.4-0.8,1-0.9,1.7    c-0.1,1.5-0.1,2.9-0.1,4.4c-9.9-2.7-16.5-8.8-22.4-16.1c-1.4,2.2-2.7,4.5-3.9,6.8c0.7,0.9,1.4,1.7,2.1,2.4    c6.8,7.3,15.1,11.5,24.3,13.8c0,2.8,0.1,5.6-0.2,8.4c-0.2,2.2,1.4,2.9,3,2.6c0.6,0.1,1.2,0,1.9-0.4c2.3-1.3,4.5-3.8,6.3-5.7    c1.9-2.1,4.5-3.7,5.7-6.2C560.7-1120.5,559.8-1122.6,558.1-1122.9z"
         id="path256" /></g><g
       class="st1"
       id="g258"><path
         d="M1240.2-1195c-19.9,1.4-39.2,13-44,32c-0.9-1.9-1.5-3.9-2.4-5.9c-1.6-3.8-7.7-2-6.4,2    c0.8,2.6,2.3,5,3.6,7.4c0.6,1.1,1.2,2.1,1.9,3.1c0.7,0.9,2.1,2,2.4,3.1c1,3.2,4.3,1.8,5.4-0.1c0.8-0.8,2.1-1.4,3-2    c1.1-0.8,2.2-1.6,3.3-2.5c2-1.5,4.4-2.9,6-4.8c2-2.5-0.5-5.5-3.4-4c-2.2,1.2-4.1,3.3-6.2,4.8c-0.4,0.3-0.8,0.6-1.3,0.9    c3.9-15.4,19.1-24.6,35.4-26.4c20.3-2.3,37.6,16.1,37.1,36.5c-0.5,20.9-21.1,35-40.8,34.2c-19.3-0.8-28.7-13.9-33.2-30    c-1.6-0.1-3.1-0.2-4.7-0.1c4.9,49.4,85.4,45.2,84.8-6.1C1280.6-1175.2,1263.1-1196.6,1240.2-1195z"
         id="path260" /><path
         d="M1241.6-1162.6c0-4.6-0.5-9.3-0.5-13.9c0-3.5-5.4-3.8-5.5,0c-0.1,8.3-2.3,18.6,0.3,26.6    c0.3,0.8,0.8,1.3,1.4,1.6c1.4,1.9,2.9,3.7,4.7,5.2c0.9,1,1.8,1.9,2.7,2.8c1.2,1.3,2,2.2,3.8,2.7c2.3,0.7,3.8-1.6,3.3-3.6    c-0.7-2.6-3.5-4.4-5.3-6.3c-1.6-1.6-3.3-3.1-5.1-4.5C1241.9-1155.5,1241.6-1159.2,1241.6-1162.6z"
         id="path262" /></g><path
       class="st1"
       d="M666.3-1157c0-0.2-0.1-0.5-0.2-0.7c0.4-2.2-1-4.8-3.7-4.8c-20.8-0.6-41.6-0.9-62.5-0.6   c-0.1-3-0.3-6-0.5-9c-0.2-2.4-3.1-4.7-5.4-3.1c-5.5,3.9-11.2,8.3-15.4,13.6c-0.4,0.5-0.6,1-0.8,1.5c-1.2,1.2-1.6,3.2,0.1,4.6   c5.5,4.5,11,8.4,17.4,11.6c2.5,1.3,4.9-0.4,4.9-3.1c0-2.4,0-4.8-0.1-7.2c19.5,0.3,39.1,0,58.6-0.6c-0.6,9.9-0.4,20.4,0.4,30.4   c-25.4-1-51,0.2-76.4,0.7c-4.2,0.1-3.5,6.5,0.4,6.6c25.9,0.6,52,1.8,77.9,0.7c1.3-0.1,2.2-0.6,2.7-1.3c0.9-0.2,1.7-0.9,1.8-2.3   C666.9-1131.8,667.2-1145,666.3-1157z"
       id="path264" /><path
       class="st1"
       d="M766.6-1128c-2.9-1.8-5.5-4.5-8.3-6.5c-2.7-1.9-5.5-3.7-8.3-5.3c-2.4-1.4-5.6,0.5-5.4,3.3   c0.2,2.8,0.4,5.5,0.5,8.3c-14.8-0.2-29.7-0.4-44.5,0.1c-4.2,0-8.3,0-12.5,0c0-10-1-20-0.6-29.9c0.1-3.9-6.2-4.2-6.1,0   c0.4,11.2-0.9,22.4-0.6,33.6c0,1.4,0.7,2.3,1.5,2.9c0.7,0.9,1.7,1.5,3.1,1.5c5.2,0,10.4,0,15.5,0c14.7,0.5,29.6,0.3,44.3,0.1   c0.1,3.1,0.1,6.3,0.2,9.4c0.1,3.5,4.1,4.7,6.5,2.6c5.4-4.7,10.9-9.4,16.3-14.1C770.7-1124,769.1-1127.1,766.6-1128z"
       id="path266" /><path
       class="st1"
       d="M980.1-1157.5c2.9,1.8,5.5,4.5,8.3,6.5c2.7,1.9,5.5,3.7,8.3,5.3c2.4,1.4,5.6-0.5,5.4-3.3   c-0.2-2.8-0.4-5.5-0.5-8.3c14.8,0.2,29.7,0.4,44.5-0.1c4.2,0,8.3,0,12.5,0c0,10,1,20,0.6,29.9c-0.1,3.9,6.2,4.2,6.1,0   c-0.4-11.2,0.9-22.4,0.6-33.6c0-1.4-0.7-2.3-1.5-2.9c-0.7-0.9-1.7-1.5-3.1-1.5c-5.2,0-10.4,0-15.5,0c-14.7-0.5-29.6-0.3-44.3-0.1   c-0.1-3.1-0.1-6.3-0.2-9.4c-0.1-3.5-4.1-4.7-6.5-2.6c-5.4,4.7-10.9,9.4-16.3,14.1C976.1-1161.5,977.7-1158.4,980.1-1157.5z"
       id="path268" /><g
       class="st1"
       id="g270"><path
         d="M802.6-1130.2c-3.9,0-7.8,0.1-11.8,0.1c0.4-6.9,0.6-14.2,0.4-21.4c2.6-0.2,5.2-0.4,7.8-0.6    c3-0.2,4.9-4.2,2.3-6.4c-3.5-2.9-7-5.7-10.5-8.6c-0.4-0.4-0.9-0.6-1.4-0.7c-0.8-1-2.2-1.6-3.3-1c-0.4,0.2-0.7,0.4-1,0.9    c-3.4,4.2-8,8-12,11.7c-2.1,2,0.1,5.4,2.5,5.5c2.7,0.1,5.3,0,8-0.2c-0.2,8.3,0.1,16.6,0.6,24.5c0.1,1.8,1.3,2.8,2.6,3    c0.5,0.3,1.1,0.5,1.8,0.5c4.7,0.1,9.5,0.1,14.2,0.2c11.8,0.3,23.6,0.2,35.4,0.1c-2.9-2.6-5.8-5.1-8.6-7.7    C820.7-1130.5,811.6-1130.5,802.6-1130.2z"
         id="path272" /><path
         d="M861.5-1140.8c-2.7-0.1-5.3,0-8,0.2c0.2-8.3-0.1-16.6-0.6-24.5c-0.1-1.8-1.3-2.8-2.6-3    c-0.5-0.3-1.1-0.5-1.8-0.5c-4.7-0.1-9.5-0.1-14.2-0.2c-11.8-0.3-23.6-0.2-35.4-0.1c2.9,2.6,5.8,5.1,8.6,7.7    c9,0.1,18.1,0.1,27.1-0.1c3.9,0,7.8-0.1,11.8-0.1c-0.4,6.9-0.6,14.2-0.4,21.4c-2.6,0.2-5.2,0.4-7.8,0.6c-3,0.2-4.9,4.2-2.3,6.4    c3.5,2.9,7,5.7,10.5,8.6c0.4,0.4,0.9,0.6,1.4,0.7c0.8,1,2.2,1.6,3.3,1c0.4-0.2,0.7-0.4,1-0.9c3.4-4.2,8-8,12-11.7    C866.1-1137.3,864-1140.8,861.5-1140.8z"
         id="path274" /></g><path
       class="st1"
       d="M967.7-1166.6c0-0.2-0.1-0.3-0.1-0.5c0-1.8,0-3.5,0-5.3c0-3.7-4.1-4.6-6.3-2.9   c-0.6-0.7-1.5-1.1-2.7-1.1c-4.5,0-9-0.1-13.5,0.1c-1,0.1-1.8,0.5-2.3,1c-0.1,0-0.2,0-0.3,0c-5.6,0-5.1,8.7,0.3,8.6   c5.7,0,11.3,0.2,17-0.1c0,0.1,0,0.1-0.1,0.2c-0.5,13.9-0.3,27.9-0.3,41.8c-2.3,0-4.5,0-6.8,0c-22.4-1.7-45.8-0.1-68.2,0   c0.3-13.8-0.3-27.8-0.5-41.6c7.2-0.1,14.4-0.2,21.6-0.2c1.4,0,2.8,0,4.2,0c0.2,3,0.4,6.1,0.7,9.1c0.3,2.7,3.4,5.2,6,3.4   c5.1-3.6,9.4-8,12.3-13.6c0.1-0.2,0.1-0.3,0.2-0.5c1.3-0.9,1.9-3.1,0.4-4.9c-4.1-4.7-8.3-9.6-12.8-13.9c-2-1.9-5.8-1.1-6.2,1.8   c-0.5,3.4-0.7,6.9-0.8,10.3c-1.7,0-3.3,0-5,0c-7.4,0-14.8-0.1-22.2-0.2c-2-1.5-5.6-0.7-5.7,2.7c-0.3,0.7-0.3,1.6-0.1,2.5   c-0.1,3.5-0.1,7-0.2,10.6c-0.3,12.6-0.7,25.2-0.3,37.7c0,0.1-0.1,0.1-0.1,0.2c-0.3,2.4,1.2,5,4.2,5c23.6-0.1,48.3,1.8,72.1,0.1   c3.3,0,6.6,0,9.8,0c0.7,0,1.4-0.2,1.9-0.4c2-0.2,3.9-1.6,3.9-4.3C968-1136,968.2-1151.3,967.7-1166.6z"
       id="path276" /><g
       class="st1"
       id="g278"><path
         d="M1152.3-1158c4,0,3.7-6.3-0.3-6.3c-14.1,0-29-1-43.3-0.1c-2.3,0-4.5,0-6.8,0c0-3.2,0-6.4,0-9.6    c0-2.3-3.2-3.7-4.8-1.9c-3.4,3.8-6.7,7.6-10.1,11.4c-0.8,0.8-0.9,1.8-0.6,2.7c0,0.4,0.1,0.9,0.4,1.4c3.4,4.7,6.7,9.4,11,13.4    c1.6,1.5,4.3,0.4,4.2-1.9c-0.1-3-0.2-6.1-0.2-9.1c2.3,0,4.6,0,6.8,0C1123.2-1157,1138.1-1158,1152.3-1158z"
         id="path280" /><path
         d="M1179.2-1138.5c0-0.4-0.1-0.9-0.4-1.4c-3.4-4.7-6.7-9.4-11-13.4c-1.6-1.5-4.3-0.4-4.2,1.9    c0.1,3,0.2,6.1,0.2,9.1c-2.3,0-4.6,0-6.8,0c-14.3-1-29.2,0.1-43.4,0.1c-4,0-3.7,6.3,0.3,6.3c14.1,0,29,1,43.3,0.1    c2.3,0,4.5,0,6.8,0c0,3.2,0,6.4,0,9.6c0,2.3,3.2,3.7,4.8,1.9c3.4-3.8,6.7-7.6,10.1-11.4    C1179.3-1136.7,1179.4-1137.7,1179.2-1138.5z"
         id="path282" /></g><g
       class="st1"
       id="g284"><path
         d="M1382.8-1191.5c-0.1-1.6-0.9-2.6-2.1-3.2c-0.4-0.4-1-0.8-1.8-0.9c-7.9-1.2-15.5-2.6-23.5-2.3    c-3.1,0.1-4.6,3.8-2.3,5.9c3.1,2.8,6,5.7,9,8.6c-2.2,2.2-4.4,4.4-6.6,6.6c-3.5,3.1-7,6.3-10.4,9.6c2.4,2.2,4.7,4.5,7,6.9    c3.3-3.4,6.6-6.9,9.7-10.4c2.2-2.2,4.3-4.4,6.5-6.6c3.1,3.1,6.2,6.2,9.2,9.3c2.2,2.3,6.6,0.5,6.4-2.7    C1383.7-1177.7,1383.2-1184.6,1382.8-1191.5z"
         id="path286" /><path
         d="M1333.1-1140c-2.4-2.2-4.7-4.5-7-6.9c-3.3,3.4-6.6,6.9-9.7,10.4c-2.2,2.2-4.3,4.4-6.5,6.6    c-3.1-3.1-6.2-6.2-9.2-9.3c-2.2-2.3-6.6-0.5-6.4,2.7c0.4,6.9,0.9,13.8,1.3,20.7c0.1,1.6,0.9,2.6,2.1,3.2c0.4,0.4,1,0.8,1.8,0.9    c7.9,1.2,15.5,2.6,23.5,2.3c3.1-0.1,4.6-3.8,2.3-5.9c-3.1-2.8-6-5.7-9-8.6c2.2-2.2,4.4-4.4,6.6-6.6    C1326.2-1133.5,1329.7-1136.7,1333.1-1140z"
         id="path288" /></g><g
       class="st1"
       id="g290"><path
         d="M1475.8-1174.8c2.2-2.2,4.4-4.4,6.6-6.6c3.5-3.1,7-6.3,10.4-9.6c-2.4-2.2-4.7-4.5-7-6.9    c-3.3,3.4-6.6,6.9-9.7,10.4c-2.2,2.2-4.3,4.4-6.5,6.6c-3.1-3.1-6.2-6.2-9.2-9.3c-2.2-2.3-6.6-0.5-6.4,2.7    c0.4,6.9,0.9,13.8,1.3,20.7c0.1,1.6,0.9,2.6,2.1,3.2c0.4,0.4,1,0.8,1.8,0.9c7.9,1.2,15.5,2.6,23.5,2.3c3.1-0.1,4.6-3.8,2.3-5.9    C1481.8-1169,1478.8-1171.9,1475.8-1174.8z"
         id="path292" /><path
         d="M1438.5-1143.7c-0.4-0.4-1-0.8-1.8-0.9c-7.9-1.2-15.5-2.6-23.5-2.3c-3.1,0.1-4.6,3.8-2.3,5.9    c3.1,2.8,6,5.7,9,8.6c-2.2,2.2-4.4,4.4-6.6,6.6c-3.5,3.1-7,6.3-10.4,9.6c2.4,2.2,4.7,4.5,7,6.9c3.3-3.4,6.6-6.9,9.7-10.4    c2.2-2.2,4.3-4.4,6.5-6.6c3.1,3.1,6.2,6.2,9.2,9.3c2.2,2.3,6.6,0.5,6.4-2.7c-0.4-6.9-0.9-13.8-1.3-20.7    C1440.5-1142,1439.6-1143.1,1438.5-1143.7z"
         id="path294" /></g></g><g
     id="g296"><g
       id="g298"><path
         d="M19,40.3c-6-1.8-12.3,2.6-12.3,9c0,0,0,0,0,0c-0.7,4.5,1,8.7,6,10.3c5,1.6,10.7-1,12.7-5.9    C27.5,48.3,24.7,42,19,40.3z"
         id="path300" /><path
         d="M52.7,40.3c-6-1.8-12.3,2.6-12.3,9c0,0,0,0,0,0c-0.7,4.5,1,8.7,6,10.3c5,1.6,10.7-1,12.7-5.9    C61.2,48.3,58.4,42,52.7,40.3z"
         id="path302" /><path
         d="M86.4,40.3c-6-1.8-12.3,2.6-12.3,9c0,0,0,0,0,0c-0.7,4.5,1,8.7,6,10.3c5,1.6,10.7-1,12.7-5.9    C94.9,48.3,92.2,42,86.4,40.3z"
         id="path304" /></g></g></svg>