<?xml version="1.0" encoding="UTF-8" standalone="no"?>
<svg
   xmlns:dc="http://purl.org/dc/elements/1.1/"
   xmlns:cc="http://creativecommons.org/ns#"
   xmlns:rdf="http://www.w3.org/1999/02/22-rdf-syntax-ns#"
   xmlns:svg="http://www.w3.org/2000/svg"
   xmlns="http://www.w3.org/2000/svg"
   xmlns:sodipodi="http://sodipodi.sourceforge.net/DTD/sodipodi-0.dtd"
   xmlns:inkscape="http://www.inkscape.org/namespaces/inkscape"
   version="1.1"
   x="0px"
   y="0px"
   viewBox="0 0 100 125"
   enable-background="new 0 0 100 100"
   xml:space="preserve"
   id="svg2"
   inkscape:version="0.91 r13725"
   sodipodi:docname="requi.svg"><metadata
     id="metadata20"><rdf:RDF><cc:Work
         rdf:about=""><dc:format>image/svg+xml</dc:format><dc:type
           rdf:resource="http://purl.org/dc/dcmitype/StillImage" /></cc:Work></rdf:RDF></metadata><defs
     id="defs18" /><sodipodi:namedview
     pagecolor="#ffffff"
     bordercolor="#666666"
     borderopacity="1"
     objecttolerance="10"
     gridtolerance="10"
     guidetolerance="10"
     inkscape:pageopacity="0"
     inkscape:pageshadow="2"
     inkscape:window-width="640"
     inkscape:window-height="480"
     id="namedview16"
     showgrid="false"
     inkscape:zoom="1.888"
     inkscape:cx="50"
     inkscape:cy="62.5"
     inkscape:window-x="0"
     inkscape:window-y="0"
     inkscape:window-maximized="0"
     inkscape:current-layer="svg2" /><g
     id="g4"><path
       d="M93.508,31.7h-7.899l-6.834-14.941l-26.061,9.653l2.331,5.288h-3.883V20.818c0-3.85-3.132-6.981-6.981-6.981h-0.26   c-3.85,0-6.981,3.132-6.981,6.981V31.7H24.676l-5.98-21.305H6.667v2.5h10.135l18.77,66.871h57.937v-9.109H35.61l-1.948-6.939   h59.845V31.7z M91.008,73.156v4.109H37.465l-1.153-4.109H91.008z M91.008,39.127H80.706V34.2h10.302V39.127z M29.284,48.118h7.656   v4.068h-6.514L29.284,48.118z M43.817,34.2v4.927H39.44V34.2H43.817z M57.572,45.618h-4.378v-3.991h4.378V45.618z M60.072,41.627   h4.378v3.991h-4.378V41.627z M50.694,45.618h-4.377v-3.991h4.377V45.618z M50.694,48.118v4.068h-4.377v-4.068H50.694z    M53.194,48.118h4.378v4.068h-4.378V48.118z M60.072,48.118h4.378v4.068h-4.378V48.118z M66.95,48.118h4.379v4.068H66.95V48.118z    M66.95,45.618v-3.991h4.379v3.991H66.95z M73.829,41.627h4.377v3.991h-4.377V41.627z M73.829,39.127V34.2h4.377v4.927H73.829z    M71.329,39.127H66.95V34.2h4.379V39.127z M64.45,39.127h-4.378V34.2h4.378V39.127z M57.572,39.127h-4.378V34.2h4.378V39.127z    M50.694,34.2v4.927h-4.377V34.2H50.694z M43.817,41.627v3.991H39.44v-3.991H43.817z M36.94,45.618h-8.357l-1.12-3.991h9.478   V45.618z M39.44,48.118h4.377v4.068H39.44V48.118z M43.817,54.686v6.531H39.44v-6.531H43.817z M46.317,54.686h4.377v6.531h-4.377   V54.686z M53.194,54.686h4.378v6.531h-4.378V54.686z M60.072,54.686h4.378v6.531h-4.378V54.686z M66.95,54.686h4.379v6.531H66.95   V54.686z M73.829,54.686h4.377v6.531h-4.377V54.686z M73.829,52.186v-4.068h4.377v4.068H73.829z M80.706,48.118h10.302v4.068   H80.706V48.118z M80.706,45.618v-3.991h10.302v3.991H80.706z M56.073,27.833l21.393-7.924L82.859,31.7H57.776L56.073,27.833z    M39.44,20.818c0-2.471,2.01-4.481,4.481-4.481h0.26c2.471,0,4.481,2.01,4.481,4.481V31.7H39.44V20.818z M36.94,34.2v4.927H26.761   L25.377,34.2H36.94z M31.127,54.686h5.813v6.531h-3.979L31.127,54.686z M80.706,61.217v-6.531h10.302v6.531H80.706z"
       id="path6" /><path
       d="M48.93,80.583c-3.702,0-6.714,3.012-6.714,6.714s3.012,6.714,6.714,6.714c3.702,0,6.713-3.012,6.713-6.714   S52.632,80.583,48.93,80.583z M48.93,91.511c-2.324,0-4.214-1.891-4.214-4.214s1.89-4.214,4.214-4.214s4.213,1.891,4.213,4.214   S51.254,91.511,48.93,91.511z"
       id="path8" /><path
       d="M81.027,80.583c-3.702,0-6.714,3.012-6.714,6.714s3.012,6.714,6.714,6.714c3.7,0,6.711-3.012,6.711-6.714   S84.728,80.583,81.027,80.583z M81.027,91.511c-2.323,0-4.214-1.891-4.214-4.214s1.891-4.214,4.214-4.214   c2.322,0,4.211,1.891,4.211,4.214S83.35,91.511,81.027,91.511z"
       id="path10" /></g></svg>