<svg xmlns="http://www.w3.org/2000/svg" data-name="Layer 1" viewBox="0 0 512 640" x="0px" y="0px"><title>c1</title><g data-name="Group"><path data-name="Compound Path" d="M472.968,233H448V191.9a60.56,60.56,0,0,0-6.8-27.584L417.57,118.273a15.057,15.057,0,0,1-1.57-6.917V48.684A16.924,16.924,0,0,0,399.405,32H370.648A16.971,16.971,0,0,0,354,48.684v63a15.013,15.013,0,0,1-1.323,6.58L330.031,165A60.557,60.557,0,0,0,324,191.237V233h-6V191.9a60.56,60.56,0,0,0-6.8-27.584L287.57,118.273a15.057,15.057,0,0,1-1.57-6.917V48.684A16.924,16.924,0,0,0,269.4,32H240.648A16.971,16.971,0,0,0,224,48.684v63a15.013,15.013,0,0,1-1.323,6.58L200.031,165A60.557,60.557,0,0,0,194,191.237V233h-6V191.9a60.56,60.56,0,0,0-6.8-27.584L157.57,118.273a15.057,15.057,0,0,1-1.57-6.917V48.684A16.924,16.924,0,0,0,139.405,32H110.648A16.971,16.971,0,0,0,94,48.684v63a15.013,15.013,0,0,1-1.323,6.58L70.031,165A60.557,60.557,0,0,0,64,191.237V233H39.032A9.813,9.813,0,0,0,29,242.745V429.59C29,457.16,51.462,480,79.032,480H432.968C460.538,480,483,457.16,483,429.59V242.745A9.813,9.813,0,0,0,472.968,233ZM374,107V82h22v25Zm22-55V62H374V52ZM348.125,173.5,370.642,127h28.943l23.841,46.258A41.386,41.386,0,0,1,428,191.9V193H344v-1.763A41.5,41.5,0,0,1,348.125,173.5ZM344,213h84v20H344ZM244,107V82h22v25Zm22-55V62H244V52ZM218.125,173.5,240.642,127h28.943l23.841,46.258A41.386,41.386,0,0,1,298,191.9V193H214v-1.763A41.5,41.5,0,0,1,218.125,173.5ZM214,213h84v20H214ZM114,107V82h22v25Zm22-55V62H114V52ZM88.125,173.5,110.642,127h28.943l23.841,46.258A41.386,41.386,0,0,1,168,191.9V193H84v-1.763A41.5,41.5,0,0,1,88.125,173.5ZM84,213h84v20H84ZM463,429.59c0,16.542-13.49,30.41-30.032,30.41H79.032C62.49,460,49,446.132,49,429.59V253H463Z"/><path data-name="Compound Path" d="M338,316a26,26,0,0,0-26-26H201a26,26,0,0,0-26,26v21a26,26,0,0,0,26,26H312a26,26,0,0,0,26-26Zm-20,21a6,6,0,0,1-6,6H201a6,6,0,0,1-6-6V316a6,6,0,0,1,6-6H312a6,6,0,0,1,6,6Z"/></g><text x="0" y="527" fill="#000000" font-size="5px" font-weight="bold" font-family="'Helvetica Neue', Helvetica, Arial-Unicode, Arial, Sans-serif">Created by Shastry</text><text x="0" y="532" fill="#000000" font-size="5px" font-weight="bold" font-family="'Helvetica Neue', Helvetica, Arial-Unicode, Arial, Sans-serif">from the Noun Project</text></svg>