<?xml version="1.0" encoding="UTF-8" standalone="no"?>
<svg
   xmlns:dc="http://purl.org/dc/elements/1.1/"
   xmlns:cc="http://creativecommons.org/ns#"
   xmlns:rdf="http://www.w3.org/1999/02/22-rdf-syntax-ns#"
   xmlns:svg="http://www.w3.org/2000/svg"
   xmlns="http://www.w3.org/2000/svg"
   xmlns:sodipodi="http://sodipodi.sourceforge.net/DTD/sodipodi-0.dtd"
   xmlns:inkscape="http://www.inkscape.org/namespaces/inkscape"
   version="1.1"
   x="0px"
   y="0px"
   viewBox="0 0 100 125"
   enable-background="new 0 0 100 100"
   xml:space="preserve"
   id="svg2"
   inkscape:version="0.91 r13725"
   sodipodi:docname="usuarios.svg"><metadata
     id="metadata16"><rdf:RDF><cc:Work
         rdf:about=""><dc:format>image/svg+xml</dc:format><dc:type
           rdf:resource="http://purl.org/dc/dcmitype/StillImage" /></cc:Work></rdf:RDF></metadata><defs
     id="defs14" /><sodipodi:namedview
     pagecolor="#ffffff"
     bordercolor="#666666"
     borderopacity="1"
     objecttolerance="10"
     gridtolerance="10"
     guidetolerance="10"
     inkscape:pageopacity="0"
     inkscape:pageshadow="2"
     inkscape:window-width="718"
     inkscape:window-height="480"
     id="namedview12"
     showgrid="false"
     inkscape:zoom="1.888"
     inkscape:cx="50"
     inkscape:cy="62.5"
     inkscape:window-x="0"
     inkscape:window-y="0"
     inkscape:window-maximized="0"
     inkscape:current-layer="svg2" /><path
     fill="#000000"
     d="M50.485,56.079c8.973,0,16.001-7.029,16.001-16.001c0-8.97-7.028-15.997-16.001-15.997  c-8.7,0-15.778,7.176-15.778,15.997C34.707,48.901,41.785,56.079,50.485,56.079z M50.485,25.081c8.411,0,15.001,6.587,15.001,14.997  c0,8.412-6.59,15.001-15.001,15.001c-8.149,0-14.778-6.729-14.778-15.001C35.707,31.809,42.336,25.081,50.485,25.081z"
     id="path4" /><path
     fill="#000000"
     d="M50.485,95.807c24.831,0,45.033-20.201,45.033-45.032c0-24.952-20.202-45.252-45.033-45.252  c-24.829,0-45.029,20.3-45.029,45.252C5.456,75.605,25.656,95.807,50.485,95.807z M22.445,84.696  c2.621-10.497,10.79-18.614,21.387-21.212c7.564-1.785,15.357-0.516,21.946,3.57c6.449,4,10.968,10.258,12.756,17.637  c-7.623,6.314-17.4,10.115-28.049,10.115C39.84,94.807,30.066,91.008,22.445,84.696z M50.485,6.522  c24.28,0,44.033,19.852,44.033,44.252c0,13.23-5.874,25.107-15.142,33.186c-1.929-7.42-6.543-13.706-13.071-17.756  c-6.816-4.227-14.878-5.54-22.707-3.693c-10.799,2.647-19.15,10.838-21.99,21.46c-9.274-8.079-15.153-19.96-15.153-33.197  C6.456,26.374,26.208,6.522,50.485,6.522z"
     id="path6" /></svg>