<svg xmlns="http://www.w3.org/2000/svg" xmlns:xlink="http://www.w3.org/1999/xlink" version="1.1" x="0px" y="0px" viewBox="0 0 32 40" style="enable-background:new 0 0 32 32;" xml:space="preserve"><g><g><path d="M30.296875,19.6721802H1.703125C1.3149414,19.6721802,1,19.3572388,1,18.9690552V1.703125    C1,1.3149414,1.3149414,1,1.703125,1h28.59375C30.6850586,1,31,1.3149414,31,1.703125v17.2659302    C31,19.3572388,30.6850586,19.6721802,30.296875,19.6721802z M2.40625,18.2659302h27.1875V2.40625H2.40625V18.2659302z"/></g><g><path d="M30.296875,24.90625H1.703125C1.3149414,24.90625,1,24.5913086,1,24.203125v-5.2340698    c0-0.3881836,0.3149414-0.703125,0.703125-0.703125h28.59375c0.3881836,0,0.703125,0.3149414,0.703125,0.703125v5.2340698    C31,24.5913086,30.6850586,24.90625,30.296875,24.90625z M2.40625,23.5h27.1875v-3.8278198H2.40625V23.5z"/></g><g><path d="M21.9765625,27.25h-11.953125c-0.3881836,0-0.703125-0.3149414-0.703125-0.703125v-2.34375    c0-0.3881836,0.3149414-0.703125,0.703125-0.703125h11.953125c0.3881836,0,0.703125,0.3149414,0.703125,0.703125v2.34375    C22.6796875,26.9350586,22.3647461,27.25,21.9765625,27.25z M10.7265625,25.84375h10.546875v-0.9375h-10.546875V25.84375z"/></g><g><path d="M26.546875,31H5.453125c-0.2352905,0-0.4559326-0.118103-0.5859375-0.3140259    c-0.1300049-0.1968384-0.1538086-0.4449463-0.0622559-0.6628418l1.5820313-3.75    C6.4968262,26.0131226,6.7522583,25.84375,7.0351563,25.84375h17.9296875c0.2828979,0,0.5383301,0.1693726,0.6481934,0.4293823    l1.5820313,3.75c0.0915527,0.2178955,0.067749,0.4660034-0.0622559,0.6628418C27.0028076,30.881897,26.7821655,31,26.546875,31z     M6.5133057,29.59375h18.9733887L24.4979248,27.25H7.5020752L6.5133057,29.59375z"/></g><g><circle cx="16" cy="21.5859375" r="0.8740234"/></g><g><g><path d="M15.8095703,14.84552c-0.6079102,0-1.1672974-0.2151489-1.5765381-0.6060791     c-0.317688-0.3048706-0.6976318-0.8624268-0.6976318-1.791687c0-0.3881836,0.3149414-0.703125,0.703125-0.703125     s0.703125,0.3149414,0.703125,0.703125c0,0.8624268,0.5438232,0.9915161,0.8679199,0.9915161     c0.4824829,0,1.2487793-0.3460693,1.2487793-1.2753296c0-0.819397-0.5950928-1.1627197-1.5664673-1.6534424     c-0.8605957-0.435791-1.9326782-0.9786987-1.9326782-2.2238159c0-1.2277222,0.6317139-2.1185303,1.6900635-2.3840332     c1.8319702-0.4577637,3.0322266,1.1773682,3.0825806,1.2478638c0.2270508,0.3149414,0.1556396,0.7543945-0.1593018,0.9814453     c-0.3158569,0.2270508-0.7525635,0.1556396-0.9796143-0.1565552c-0.0357056-0.0485229-0.7141113-0.9292603-1.6021729-0.7086182     c-0.2682495,0.067749-0.6253052,0.2462769-0.6253052,1.0198975c0,0.3433228,0.3717041,0.569458,1.1618042,0.9686279     c0.9860229,0.4989624,2.3373413,1.1828613,2.3373413,2.9086304C18.4645996,13.8421021,17.1141968,14.84552,15.8095703,14.84552z"/></g><g><path d="M16,7.2301636c-0.3881836,0-0.703125-0.3149414-0.703125-0.703125V4.9450073     c0-0.3881836,0.3149414-0.703125,0.703125-0.703125s0.703125,0.3149414,0.703125,0.703125v1.5820313     C16.703125,6.9152222,16.3881836,7.2301636,16,7.2301636z"/></g><g><path d="M16,16.4293823c-0.3881836,0-0.703125-0.3149414-0.703125-0.703125v-1.5939331     c0-0.3881836,0.3149414-0.703125,0.703125-0.703125s0.703125,0.3149414,0.703125,0.703125v1.5939331     C16.703125,16.1144409,16.3881836,16.4293823,16,16.4293823z"/></g></g></g><text x="0" y="47" fill="#000000" font-size="5px" font-weight="bold" font-family="'Helvetica Neue', Helvetica, Arial-Unicode, Arial, Sans-serif">Created by Royyan Wijaya</text><text x="0" y="52" fill="#000000" font-size="5px" font-weight="bold" font-family="'Helvetica Neue', Helvetica, Arial-Unicode, Arial, Sans-serif">from the Noun Project</text></svg>